<?xml version="1.0" encoding="utf-8"?>
<!-- Generator: Adobe Illustrator 18.0.0, SVG Export Plug-In . SVG Version: 6.00 Build 0)  -->
<!DOCTYPE svg PUBLIC "-//W3C//DTD SVG 1.1//EN" "http://www.w3.org/Graphics/SVG/1.1/DTD/svg11.dtd">
<svg version="1.1" id="Layer_1" xmlns="http://www.w3.org/2000/svg" xmlns:xlink="http://www.w3.org/1999/xlink" x="0px" y="0px"
	 viewBox="0 0 28 32" enable-background="new 0 0 28 32" xml:space="preserve">
<path d="M27.5,22.6l-3.9-2.3l2.4-0.6c0.5-0.1,0.8-0.7,0.7-1.2c-0.1-0.5-0.7-0.8-1.2-0.7L21.1,19l-2.4-1.4c0.2-0.5,0.3-1,0.3-1.6
	c0-0.6-0.1-1.1-0.3-1.6l2.4-1.4l4.3,1.2c0.1,0,0.2,0,0.3,0c0.4,0,0.8-0.3,1-0.7c0.1-0.5-0.2-1.1-0.7-1.2l-2.4-0.6l3.9-2.3
	C28,9.1,28.1,8.5,27.8,8c-0.3-0.5-0.9-0.6-1.4-0.4l-3.9,2.3l0.6-2.4C23.4,7,23,6.4,22.5,6.3C22,6.1,21.4,6.4,21.3,7l-1.2,4.3
	l-2.4,1.4c-0.7-0.8-1.6-1.4-2.7-1.6V8.3l3.2-3.2c0.4-0.4,0.4-1,0-1.4c-0.4-0.4-1-0.4-1.4,0L15,5.5V1c0-0.6-0.4-1-1-1s-1,0.4-1,1v4.5
	l-1.8-1.8c-0.4-0.4-1-0.4-1.4,0c-0.4,0.4-0.4,1,0,1.4L13,8.3v2.8c-1.1,0.2-2,0.8-2.7,1.6l-2.4-1.4L6.7,7C6.6,6.4,6,6.1,5.5,6.3
	C4.9,6.4,4.6,7,4.8,7.5l0.6,2.4L1.5,7.6C1,7.4,0.4,7.5,0.1,8C-0.1,8.5,0,9.1,0.5,9.4l3.9,2.3L2,12.3c-0.5,0.1-0.8,0.7-0.7,1.2
	c0.1,0.4,0.5,0.7,1,0.7c0.1,0,0.2,0,0.3,0L6.9,13l2.4,1.4C9.1,14.9,9,15.4,9,16c0,0.6,0.1,1.1,0.3,1.6L6.9,19l-4.3-1.2
	C2,17.7,1.4,18,1.3,18.5C1.2,19,1.5,19.6,2,19.7l2.4,0.6l-3.9,2.3C0,22.9-0.1,23.5,0.1,24c0.2,0.3,0.5,0.5,0.9,0.5
	c0.2,0,0.3,0,0.5-0.1l3.9-2.3l-0.6,2.4c-0.1,0.5,0.2,1.1,0.7,1.2c0.1,0,0.2,0,0.3,0c0.4,0,0.8-0.3,1-0.7l1.2-4.3l2.4-1.4
	c0.7,0.8,1.6,1.4,2.7,1.6v2.8l-3.2,3.2c-0.4,0.4-0.4,1,0,1.4c0.4,0.4,1,0.4,1.4,0l1.8-1.8V31c0,0.6,0.4,1,1,1s1-0.4,1-1v-4.5
	l1.8,1.8c0.2,0.2,0.5,0.3,0.7,0.3c0.3,0,0.5-0.1,0.7-0.3c0.4-0.4,0.4-1,0-1.4L15,23.7v-2.8c1.1-0.2,2-0.8,2.7-1.6l2.4,1.4l1.2,4.3
	c0.1,0.4,0.5,0.7,1,0.7c0.1,0,0.2,0,0.3,0c0.5-0.1,0.8-0.7,0.7-1.2l-0.6-2.4l3.9,2.3c0.2,0.1,0.3,0.1,0.5,0.1c0.3,0,0.7-0.2,0.9-0.5
	C28.1,23.5,28,22.9,27.5,22.6z M14,19c-1.7,0-3-1.3-3-3s1.3-3,3-3s3,1.3,3,3S15.6,19,14,19z"/>
</svg>
