<?xml version="1.0" encoding="utf-8"?>
<!-- Generator: Adobe Illustrator 18.0.0, SVG Export Plug-In . SVG Version: 6.00 Build 0)  -->
<!DOCTYPE svg PUBLIC "-//W3C//DTD SVG 1.1//EN" "http://www.w3.org/Graphics/SVG/1.1/DTD/svg11.dtd">
<svg version="1.1" id="Layer_1" xmlns="http://www.w3.org/2000/svg" xmlns:xlink="http://www.w3.org/1999/xlink" x="0px" y="0px"
	 viewBox="0 0 31.8 29" enable-background="new 0 0 31.8 29" xml:space="preserve">
<path d="M29,0H3C1.3,0,0,1.3,0,3v20c0,1.7,1.3,3,3,3h1v2c0,0.6,0.4,1,1,1s1-0.4,1-1v-2h20v2c0,0.6,0.4,1,1,1s1-0.4,1-1v-2h1
	c1.7,0,3-1.3,3-3V3C32,1.3,30.7,0,29,0z M30,23c0,0.6-0.4,1-1,1H3c-0.6,0-1-0.4-1-1V3c0-0.6,0.4-1,1-1h26c0.6,0,1,0.4,1,1V23z M21,4
	H7C5.3,4,4,5.3,4,7v12c0,1.7,1.3,3,3,3h14c1.7,0,3-1.3,3-3V7C24,5.3,22.7,4,21,4z M22,19c0,0.6-0.4,1-1,1H7c-0.6,0-1-0.4-1-1V7
	c0-0.6,0.4-1,1-1h14c0.6,0,1,0.4,1,1V19z M27,8c-0.6,0-1,0.4-1,1c0,0.6,0.4,1,1,1s1-0.4,1-1C28,8.4,27.6,8,27,8z M27,12
	c-0.6,0-1,0.4-1,1c0,0.6,0.4,1,1,1s1-0.4,1-1C28,12.4,27.6,12,27,12z M27,16c-0.6,0-1,0.4-1,1c0,0.6,0.4,1,1,1s1-0.4,1-1
	C28,16.4,27.6,16,27,16z"/>
</svg>
