<?xml version="1.0" encoding="utf-8"?>
<!-- Generator: Adobe Illustrator 18.0.0, SVG Export Plug-In . SVG Version: 6.00 Build 0)  -->
<!DOCTYPE svg PUBLIC "-//W3C//DTD SVG 1.1//EN" "http://www.w3.org/Graphics/SVG/1.1/DTD/svg11.dtd">
<svg version="1.1" id="Layer_1" xmlns="http://www.w3.org/2000/svg" xmlns:xlink="http://www.w3.org/1999/xlink" x="0px" y="0px"
	 viewBox="0 0 27.1 31.2" enable-background="new 0 0 27.1 31.2" xml:space="preserve">
<path d="M24.1,6.4C21.4,2.4,17.4,0,13.7,0c-1.5,0-2.9,0.4-4.1,1.2C9.5,1.3,9.4,1.4,9.3,1.4l0,0C5.2,3.8,2.9,7.8,3,12.4
	c0.1,3.5,1.5,6.8,3.9,9.2V26C4.5,26.1,0,26.5,0,28.6c0,2.4,6,2.6,7.9,2.6s7.9-0.2,7.9-2.6c0-2.1-4.5-2.5-6.9-2.6v-2.9
	c0.3,0.2,0.6,0.4,0.9,0.5c1.6,0.8,3.4,1.2,5.2,1.2c2.9,0,5.9-1,9-3.1l0,0c0,0,0,0,0,0c2-1.4,3.1-3.8,3.1-6.8
	C27.1,12.1,26,9.1,24.1,6.4z M7.9,29.2c-2.5,0-4.3-0.3-5.3-0.6c1-0.3,2.7-0.6,5.3-0.6s4.3,0.3,5.3,0.6C12.2,28.9,10.4,29.2,7.9,29.2
	z M10.7,21.9c-3.4-1.7-5.6-5.5-5.7-9.5c0-2.1,0.5-4,1.5-5.6c-0.4,3.1,0.6,6.7,2.8,9.9c2.1,3,5,5.2,7.9,6
	C14.9,23.2,12.7,22.9,10.7,21.9z M22.8,20.2C22.8,20.2,22.8,20.2,22.8,20.2c-0.8,0.6-1.8,0.9-2.9,0.9c-2.7,0-5.7-1.7-8-4.4l3.3-2.6
	c0.7,0.5,1.4,0.9,2.2,0.9c0.5,0,1-0.1,1.4-0.4c1.4-0.9,1.5-3,0.3-4.8c-0.8-1.2-2-1.9-3.2-1.9c-0.5,0-1,0.1-1.4,0.4
	c-0.7,0.5-1.1,1.3-1.1,2.3c0,0.7,0.2,1.4,0.5,2L10.7,15c-3-4.7-3-10,0-12.2C11.6,2.3,12.5,2,13.7,2c3,0,6.5,2.2,8.8,5.5
	c1.6,2.4,2.6,5,2.6,7.5C25.1,17.3,24.3,19.2,22.8,20.2z M15.4,10.5c0-0.1,0-0.5,0.2-0.6c0.1,0,0.2-0.1,0.3-0.1c0.4,0,1,0.3,1.5,1
	c0.6,0.9,0.6,1.8,0.2,2c-0.3,0.2-1.2,0-1.8-1C15.5,11.4,15.4,10.9,15.4,10.5z"/>
</svg>
