<?xml version="1.0" encoding="utf-8"?>
<!-- Generator: Adobe Illustrator 18.0.0, SVG Export Plug-In . SVG Version: 6.00 Build 0)  -->
<!DOCTYPE svg PUBLIC "-//W3C//DTD SVG 1.1//EN" "http://www.w3.org/Graphics/SVG/1.1/DTD/svg11.dtd">
<svg version="1.1" id="Layer_1" xmlns="http://www.w3.org/2000/svg" xmlns:xlink="http://www.w3.org/1999/xlink" x="0px" y="0px"
	 viewBox="0 3.2 50 43.6" enable-background="new 0 3.2 50 43.6" xml:space="preserve">
<path d="M1.6,34.6c1.9,0,2.8,0.5,3.9,1.2c1.3,0.8,2.7,1.6,5.5,1.6s4.2-0.9,5.5-1.6c1.1-0.6,2-1.2,3.9-1.2s2.8,0.5,3.9,1.2
	c1.2,0.8,2.7,1.6,5.5,1.6s4.2-0.9,5.5-1.6c1.1-0.6,2-1.2,3.9-1.2s2.8,0.5,3.9,1.2c1.2,0.8,2.7,1.6,5.5,1.6c0.9,0,1.6-0.6,1.6-1.6
	s-0.6-1.6-1.6-1.6c-1.9,0-2.8-0.5-3.9-1.2c-1.2-0.8-2.7-1.6-5.5-1.6s-4.2,0.9-5.5,1.6c-1.1,0.6-2,1.2-3.9,1.2s-2.8-0.5-3.9-1.2
	c-1.2-0.8-2.7-1.6-5.5-1.6s-4.2,0.9-5.5,1.6c-1.1,0.6-2,1.2-3.9,1.2S8.1,33.8,7,33c-1.2-0.8-2.7-1.6-5.5-1.6C0.6,31.5,0,32.1,0,33
	S0.6,34.6,1.6,34.6z M48.4,43.7c-1.9,0-2.8-0.5-3.9-1.2c-1.2-0.8-2.7-1.6-5.5-1.6s-4.2,0.9-5.5,1.6c-1.1,0.6-2,1.2-3.9,1.2
	s-2.8-0.5-3.9-1.2c-1.2-0.8-2.7-1.6-5.5-1.6s-4.2,0.9-5.5,1.6c-1.1,0.6-2,1.2-3.9,1.2S8.1,43.2,7,42.4c-1.2-0.8-2.7-1.6-5.5-1.6
	c-0.9,0-1.6,0.6-1.6,1.6S0.6,44,1.6,44c1.9,0,2.8,0.5,3.9,1.2c1.3,0.8,2.7,1.6,5.5,1.6s4.2-0.9,5.5-1.6c1.1-0.6,2-1.2,3.9-1.2
	s2.8,0.5,3.9,1.2c1.2,0.8,2.7,1.6,5.5,1.6s4.2-0.9,5.5-1.6c1.1-0.6,2-1.2,3.9-1.2s2.8,0.5,3.9,1.2c1.2,0.8,2.7,1.6,5.5,1.6
	c0.9,0,1.6-0.6,1.6-1.6S49.4,43.7,48.4,43.7z M10.9,31.3c0.9,0,1.6-0.6,1.6-1.6v-4.7H28v4.7c0,0.9,0.6,1.6,1.6,1.6
	c0.9,0,1.6-0.6,1.6-1.6V11c0-2.7,2-4.7,4.7-4.7c0.9,0,1.6-0.6,1.6-1.6s-0.6-1.6-1.6-1.6C31.6,3.2,28,6.6,28,11v1.6H12.5V11
	c0-2.7,2-4.7,4.7-4.7c0.9,0,1.6-0.6,1.6-1.6s-0.6-1.6-1.6-1.6c-4.4,0-7.8,3.4-7.8,7.8v18.8C9.4,30.7,10,31.3,10.9,31.3z M12.5,15.7
	H28V22H12.5V15.7z"/>
</svg>
