<?xml version="1.0" encoding="utf-8"?>
<!-- Generator: Adobe Illustrator 18.0.0, SVG Export Plug-In . SVG Version: 6.00 Build 0)  -->
<!DOCTYPE svg PUBLIC "-//W3C//DTD SVG 1.1//EN" "http://www.w3.org/Graphics/SVG/1.1/DTD/svg11.dtd">
<svg version="1.1" id="Layer_1" xmlns="http://www.w3.org/2000/svg" xmlns:xlink="http://www.w3.org/1999/xlink" x="0px" y="0px"
	 viewBox="0 0 30.1 27.5" enable-background="new 0 0 30.1 27.5" xml:space="preserve">
<g>
	<path d="M29.1,0H1C0.4,0,0,0.4,0,1v22.2c0,0.6,0.4,1,1,1h3.8L3.6,26c-0.3,0.5-0.2,1.1,0.2,1.4c0.2,0.1,0.4,0.2,0.6,0.2
		c0.3,0,0.6-0.1,0.8-0.4l2-2.9h15.6l2,2.9c0.2,0.3,0.5,0.4,0.8,0.4c0.2,0,0.4-0.1,0.6-0.2c0.5-0.3,0.6-0.9,0.2-1.4l-1.2-1.7h3.8
		c0.6,0,1-0.4,1-1V1C30.1,0.4,29.7,0,29.1,0z M28.1,22.2H2V2h26.1V22.2z"/>
	<path d="M5.1,20.5H25c0.6,0,1-0.4,1-1V4.8c0-0.6-0.4-1-1-1H5.1c-0.6,0-1,0.4-1,1v14.7C4.1,20,4.6,20.5,5.1,20.5z M6.1,5.8H24v12.7
		H6.1V5.8z"/>
	<path d="M21.1,8.6c-0.6,0-1,0.4-1,1v4c0,0.6,0.4,1,1,1s1-0.4,1-1v-4C22.1,9.1,21.6,8.6,21.1,8.6z"/>
</g>
</svg>
