<?xml version="1.0" encoding="utf-8"?>
<!-- Generator: Adobe Illustrator 18.0.0, SVG Export Plug-In . SVG Version: 6.00 Build 0)  -->
<!DOCTYPE svg PUBLIC "-//W3C//DTD SVG 1.1//EN" "http://www.w3.org/Graphics/SVG/1.1/DTD/svg11.dtd">
<svg version="1.1" id="Layer_1" xmlns="http://www.w3.org/2000/svg" xmlns:xlink="http://www.w3.org/1999/xlink" x="0px" y="0px"
	 viewBox="0 0 28.7 31.5" enable-background="new 0 0 28.7 31.5" xml:space="preserve">
<path d="M27.1,24.7c-0.1-2.2-1.9-4-4.2-4h-5.1c-2.3,0-4.2,1.9-4.2,4.2l0,3c0,0.9-0.8,1.7-1.7,1.7H3.7c-0.9,0-1.7-0.8-1.7-1.7
	c0-0.9,0.6-1.6,1.5-1.7L4,26.7c0.4,0.4,0.9,0.6,1.5,0.6c0.7,0,1.4-0.3,1.9-0.7l10.4-10.4c0.8,0.2,1.6,0.3,2.4,0.3
	c2.4,0,4.6-0.8,6-2.3c3.2-3.2,3.2-8.5,0-11.8C24.7,0.9,22.6,0,20.4,0c-2.2,0-4.3,0.9-5.9,2.4C12,4.9,11.3,8,12.5,11L2.2,21.3
	c-0.9,0.9-1.2,2.4-0.3,3.3l0,0C0.8,25.3,0,26.5,0,27.8c0,2,1.7,3.7,3.7,3.7H12c2,0,3.7-1.7,3.7-3.7l0-3c0-1.2,1-2.2,2.2-2.2H23
	c1.1,0,2.1,0.9,2.2,2c0,0.2,0,5.8,0,5.8c0,0.6,0.4,1,1,1s1-0.4,1-1v-5.7C27.1,24.8,27.1,24.8,27.1,24.7
	C27.1,24.7,27.1,24.7,27.1,24.7z M20.4,2c1.7,0,3.2,0.7,4.4,1.8c2.4,2.4,2.5,6.2,0.2,8.7l-9.4-8.5c0.1-0.1,0.1-0.2,0.2-0.2
	C17.1,2.7,18.7,2,20.4,2z M3.6,22.7L14.4,12c0.3-0.3,0.4-0.8,0.2-1.2c-1-2-0.8-3.7,0-5.1l8.9,8.1c-1.2,0.6-2.4,0.7-3.2,0.7
	c-0.8,0-1.7-0.1-2.4-0.4c-0.4-0.1-0.8,0-1,0.2L6,25.1c-0.1,0.1-0.3,0.2-0.5,0.2c-0.1,0-0.1,0-0.1,0l-2.1-2.1
	C3.4,23.1,3.4,22.9,3.6,22.7z"/>
</svg>
