<?xml version="1.0" encoding="utf-8"?>
<!-- Generator: Adobe Illustrator 18.0.0, SVG Export Plug-In . SVG Version: 6.00 Build 0)  -->
<!DOCTYPE svg PUBLIC "-//W3C//DTD SVG 1.1//EN" "http://www.w3.org/Graphics/SVG/1.1/DTD/svg11.dtd">
<svg version="1.1" id="Layer_1" xmlns="http://www.w3.org/2000/svg" xmlns:xlink="http://www.w3.org/1999/xlink" x="0px" y="0px"
	 viewBox="0 0 30 31.1" enable-background="new 0 0 30 31.1" xml:space="preserve">
<g>
	<path d="M29,14.9V4.3C29,2,27.2,0.1,24.9,0c-0.1,0-0.1,0-0.2,0c-2,0-3.7,1.4-4.2,3.3c-2.2,0.4-3.9,2.3-3.9,4.6c0,0.6,0.4,1,1,1h7.3
		c0,0,0,0,0,0c0.6,0,1-0.4,1-1c0-0.1,0-0.2,0-0.2c-0.1-2-1.5-3.7-3.4-4.2c0.3-0.8,1.1-1.4,2-1.4c0.1,0,0.1,0,0.2,0C26,2,27,3,27,4.3
		v10.6H2H1c-0.6,0-1,0.4-1,1s0.4,1,1,1v5.3c0,2.6,2.2,4.7,4.9,4.7h0c0,0.1,0,0.3-0.1,0.4l-1.3,1.7c-0.3,0.1-0.6,0.1-0.9,0.1
		c-0.6,0-1,0.4-1,1s0.4,1,1,1c1.4,0,2.5-0.4,3.2-1.3c0.8-0.9,1-2,1.1-2.9h14.2c0.1,0.8,0.3,2,1.1,2.9c0.8,0.9,1.9,1.3,3.2,1.3
		c0.6,0,1-0.4,1-1s-0.4-1-1-1c-0.4,0-0.7,0-0.9-0.1l-1.3-1.7c0-0.1,0-0.3-0.1-0.4h0c2.7,0,4.9-2.1,4.9-4.7v-5.3c0.6,0,1-0.4,1-1
		S29.6,14.9,29,14.9z M23.7,6.9h-4.9c0.4-1,1.4-1.7,2.5-1.7c0,0,0.1,0,0.1,0c0,0,0,0,0,0c0,0,0,0,0,0C22.5,5.3,23.3,6,23.7,6.9z
		 M27,22.2c0,1.5-1.3,2.7-2.9,2.7H5.9c-1.6,0-2.9-1.2-2.9-2.7v-5.3h24V22.2z"/>
	<path d="M22,12.9v-2c0-0.6-0.4-1-1-1s-1,0.4-1,1v2c0,0.6,0.4,1,1,1S22,13.5,22,12.9z"/>
	<path d="M17.7,13.9c0.4,0,0.8-0.3,1-0.7l0.5-1.9c0.1-0.5-0.2-1.1-0.7-1.2c-0.5-0.1-1.1,0.2-1.2,0.7l-0.5,1.9
		c-0.1,0.5,0.2,1.1,0.7,1.2C17.6,13.9,17.7,13.9,17.7,13.9z"/>
	<path d="M24.3,13.9c0.1,0,0.2,0,0.3,0c0.5-0.1,0.8-0.7,0.7-1.2l-0.5-1.9c-0.1-0.5-0.7-0.9-1.2-0.7c-0.5,0.1-0.8,0.7-0.7,1.2
		l0.5,1.9C23.4,13.6,23.8,13.9,24.3,13.9z"/>
</g>
</svg>
