<?xml version="1.0" encoding="utf-8"?>
<!-- Generator: Adobe Illustrator 18.0.0, SVG Export Plug-In . SVG Version: 6.00 Build 0)  -->
<!DOCTYPE svg PUBLIC "-//W3C//DTD SVG 1.1//EN" "http://www.w3.org/Graphics/SVG/1.1/DTD/svg11.dtd">
<svg version="1.1" id="Layer_1" xmlns="http://www.w3.org/2000/svg" xmlns:xlink="http://www.w3.org/1999/xlink" x="0px" y="0px"
	 viewBox="0 0 32.7 31.2" enable-background="new 0 0 32.7 31.2" xml:space="preserve">
<g>
	<path d="M31.3,16.4c-1.3-1-3.4-1.2-5.1-0.6c0.1-0.7,0.1-1.5,0.1-2.2c0-0.6-0.4-1-1-1H1c-0.6,0-1,0.4-1,1c0,10,5.7,17.6,13.1,17.6
		c4.1,0,7.6-2.2,10-5.9c2.1-0.1,8.9-1,9.5-5.5C32.8,18.4,32.4,17.2,31.3,16.4z M13.1,29.2C7,29.2,2.4,23,2,14.7h22.2
		C23.9,23,19.3,29.2,13.1,29.2z M30.6,19.5c-0.3,2.3-3.8,3.3-6.3,3.7c0.7-1.4,1.2-3,1.5-4.8c0.2-0.4,0.7-0.6,1-0.7
		c1.1-0.4,2.5-0.3,3.3,0.2C30.6,18.4,30.7,18.9,30.6,19.5z"/>
	<path d="M15.1,11.2c0.2,0.2,0.4,0.3,0.7,0.3c0.3,0,0.5-0.1,0.7-0.3c0.4-0.4,0.4-1,0-1.4c-0.1-0.1-1.3-1.3,0.1-3.2
		c1.9-2.6,0.8-5.2,0-6.2c-0.4-0.4-1-0.5-1.4-0.1c-0.4,0.4-0.5,1-0.1,1.4c0.1,0.1,1.4,1.8,0,3.7C13.1,8,14.2,10.3,15.1,11.2z"/>
	<path d="M11.5,11.5c0.3,0,0.5-0.1,0.7-0.3c0.4-0.4,0.4-1,0-1.4c-0.1-0.1-1.3-1.3,0.1-3.2c0.3-0.4,0.2-1.1-0.2-1.4
		c-0.4-0.3-1.1-0.2-1.4,0.2c-2,2.6-0.8,5,0.1,5.8C11,11.4,11.3,11.5,11.5,11.5z"/>
</g>
</svg>
