<?xml version="1.0" encoding="utf-8"?>
<!-- Generator: Adobe Illustrator 18.0.0, SVG Export Plug-In . SVG Version: 6.00 Build 0)  -->
<!DOCTYPE svg PUBLIC "-//W3C//DTD SVG 1.1//EN" "http://www.w3.org/Graphics/SVG/1.1/DTD/svg11.dtd">
<svg version="1.1" id="Layer_1" xmlns="http://www.w3.org/2000/svg" xmlns:xlink="http://www.w3.org/1999/xlink" x="0px" y="0px"
	 viewBox="0 0 32 28" enable-background="new 0 0 32 28" xml:space="preserve">
<path d="M1,10h11c2.8,0,5-2.2,5-5s-2.2-5-5-5S7,2.2,7,5c0,0.6,0.4,1,1,1s1-0.4,1-1c0-1.7,1.3-3,3-3s3,1.3,3,3s-1.3,3-3,3H1
	C0.4,8,0,8.4,0,9S0.4,10,1,10z M14,18H1c-0.6,0-1,0.4-1,1s0.4,1,1,1h13c1.7,0,3,1.3,3,3s-1.3,3-3,3s-3-1.3-3-3c0-0.6-0.4-1-1-1
	s-1,0.4-1,1c0,2.8,2.2,5,5,5s5-2.2,5-5S16.8,18,14,18z M26,4c-3.3,0-6,2.7-6,6c0,0.6,0.4,1,1,1s1-0.4,1-1c0-2.2,1.8-4,4-4s4,1.8,4,4
	c0,2.2-1.8,4-4,4H1c-0.6,0-1,0.4-1,1s0.4,1,1,1h25c3.3,0,6-2.7,6-6S29.3,4,26,4z"/>
</svg>
