<?xml version="1.0" encoding="utf-8"?>
<!-- Generator: Adobe Illustrator 18.0.0, SVG Export Plug-In . SVG Version: 6.00 Build 0)  -->
<!DOCTYPE svg PUBLIC "-//W3C//DTD SVG 1.1//EN" "http://www.w3.org/Graphics/SVG/1.1/DTD/svg11.dtd">
<svg version="1.1" id="Layer_1" xmlns="http://www.w3.org/2000/svg" xmlns:xlink="http://www.w3.org/1999/xlink" x="0px" y="0px"
	 viewBox="0 0 33.6 33.4" enable-background="new 0 0 33.6 33.4" xml:space="preserve">
<path d="M33.4,20.2l-20-20C13.2,0.1,12.8,0,12.5,0c-0.3,0.1-0.6,0.3-0.7,0.6L2.6,22.2c-4,4.1-2.1,6.7,0,8.8c1.1,1.1,2.5,2.3,4.3,2.3
	c1.4,0,2.9-0.8,4.5-2.4L33,21.9c0.3-0.1,0.5-0.4,0.6-0.7C33.7,20.8,33.6,20.5,33.4,20.2z M7.2,25L19.2,9l5.4,5.4L8.5,26.4L7.2,25z
	 M13,2.8l4.8,4.8L5.7,23.6l-1.1-1.1L13,2.8z M6.9,31.4c-0.9,0-1.8-0.7-2.9-1.7c-1.7-1.7-2.7-2.9-0.5-5.4l6,6
	C8.5,31,7.6,31.4,6.9,31.4z M11.1,29L10,27.8L26,15.8l4.8,4.8L11.1,29z"/>
</svg>
