<?xml version="1.0" encoding="utf-8"?>
<!-- Generator: Adobe Illustrator 18.0.0, SVG Export Plug-In . SVG Version: 6.00 Build 0)  -->
<!DOCTYPE svg PUBLIC "-//W3C//DTD SVG 1.1//EN" "http://www.w3.org/Graphics/SVG/1.1/DTD/svg11.dtd">
<svg version="1.1" id="Layer_1" xmlns="http://www.w3.org/2000/svg" xmlns:xlink="http://www.w3.org/1999/xlink" x="0px" y="0px"
	 viewBox="0 0 26 32.4" enable-background="new 0 0 26 32.4" xml:space="preserve">
<g>
	<path d="M9.7,13.5c0.3-0.5,0.2-1.1-0.2-1.4C9,11.8,8.4,11.9,8,12.3c-0.7,1-1.6,3.4,0.1,5.4c1.1,1.3,0,3-0.1,3
		c-0.3,0.5-0.2,1.1,0.3,1.4c0.2,0.1,0.4,0.2,0.6,0.2c0.3,0,0.6-0.2,0.8-0.4c0.7-1,1.6-3.5-0.1-5.5C8.5,15.2,9.6,13.5,9.7,13.5z"/>
	<path d="M13.8,21.9c0.7-1,1.6-3.5-0.1-5.5c-1.1-1.2,0-2.9,0.1-2.9c0.3-0.5,0.2-1.1-0.2-1.4s-1.1-0.2-1.4,0.2
		c-0.7,1-1.6,3.4,0.1,5.4c1.1,1.2,0,2.9-0.1,3c-0.3,0.5-0.2,1.1,0.3,1.4c0.2,0.1,0.4,0.2,0.6,0.2C13.3,22.3,13.6,22.1,13.8,21.9z"/>
	<path d="M16.3,20.7c-0.3,0.5-0.2,1.1,0.3,1.4c0.2,0.1,0.4,0.2,0.6,0.2c0.3,0,0.6-0.2,0.8-0.4c0.7-1,1.6-3.5-0.1-5.5
		c-1.1-1.2,0-2.9,0.1-2.9c0.3-0.5,0.2-1.1-0.2-1.4c-0.5-0.3-1.1-0.2-1.4,0.2c-0.7,1-1.6,3.4,0.1,5.4C17.5,19,16.4,20.7,16.3,20.7z"
		/>
	<path d="M26,21.9V1c0-0.6-0.4-1-1-1c0,0,0,0,0,0c0,0,0,0,0,0H1.1c0,0,0,0,0,0c0,0,0,0,0,0C0.4,0,0,0.4,0,1v20.9
		c0,3.2,6,5.4,11.9,5.7v1.3c0,0.1,0,0.2,0,0.2c0.1,1.8,1.7,3.3,3.5,3.3H25c0.6,0,1-0.4,1-1s-0.4-1-1-1h-9.6c-0.8,0-1.4-0.6-1.5-1.4
		c0,0,0-0.1,0-0.1v-1.3C19.9,27.4,26,25.1,26,21.9z M23.4,2C22,3.6,18.1,5.9,13,5.9S4,3.6,2.6,2H23.4z M2,21.9V4.1
		c2.3,2,6.3,3.8,11,3.8s8.7-1.8,11-3.8v17.8c0,1.3-4.5,3.7-11,3.7S2,23.2,2,21.9z"/>
</g>
</svg>
