<?xml version="1.0" encoding="utf-8"?>
<!-- Generator: Adobe Illustrator 18.0.0, SVG Export Plug-In . SVG Version: 6.00 Build 0)  -->
<!DOCTYPE svg PUBLIC "-//W3C//DTD SVG 1.1//EN" "http://www.w3.org/Graphics/SVG/1.1/DTD/svg11.dtd">
<svg version="1.1" id="Layer_1" xmlns="http://www.w3.org/2000/svg" xmlns:xlink="http://www.w3.org/1999/xlink" x="0px" y="0px"
	 viewBox="0 0 30.7 28.8" enable-background="new 0 0 30.7 28.8" xml:space="preserve">
<g>
	<path d="M1.5,24.8c0.6,0,1-0.4,1-1V5.5C2.5,3.6,4.1,2,6,2h18.6c1.9,0,3.5,1.6,3.5,3.5v18.3c0,0.6,0.4,1,1,1s1-0.4,1-1V5.5
		c0-3-2.5-5.5-5.5-5.5H6C3,0,0.5,2.5,0.5,5.5v18.3C0.5,24.4,1,24.8,1.5,24.8z"/>
	<path d="M29.7,26.8H1c-0.6,0-1,0.4-1,1s0.4,1,1,1h28.7c0.6,0,1-0.4,1-1S30.3,26.8,29.7,26.8z"/>
	<path d="M9.8,20.4c-0.7,0.6-1.7,1.4-1.7,3c0,0.6,0.4,1,1,1s1-0.4,1-1c0-0.6,0.3-0.9,1-1.5c0.7-0.6,1.7-1.4,1.7-3c0-1.6-1-2.4-1.7-3
		c-0.6-0.5-1-0.8-1-1.5c0-0.6-0.4-1-1-1s-1,0.4-1,1c0,1.6,1,2.4,1.7,3c0.6,0.5,1,0.8,1,1.5C10.8,19.5,10.5,19.8,9.8,20.4z"/>
	<path d="M16,14c0.7-0.6,1.7-1.3,1.7-2.8s-1-2.3-1.7-2.8C15.3,7.8,15,7.5,15,7.1c0-0.6-0.4-1-1-1s-1,0.4-1,1c0,1.5,1,2.3,1.7,2.8
		c0.7,0.5,0.9,0.8,0.9,1.3s-0.3,0.7-0.9,1.3C14,12.9,13,13.7,13,15.2c0,1.5,1,2.3,1.7,2.8c0.7,0.5,0.9,0.8,0.9,1.2s-0.3,0.7-0.9,1.2
		C14,21.1,13,21.9,13,23.4c0,0.6,0.4,1,1,1s1-0.4,1-1c0-0.5,0.3-0.7,0.9-1.2c0.7-0.6,1.7-1.3,1.7-2.8c0-1.5-1-2.3-1.7-2.8
		c-0.7-0.5-0.9-0.8-0.9-1.2C15,14.7,15.3,14.5,16,14z"/>
	<path d="M19.6,20.4c-0.7,0.6-1.7,1.4-1.7,3c0,0.6,0.4,1,1,1s1-0.4,1-1c0-0.6,0.3-0.9,1-1.5c0.7-0.6,1.7-1.4,1.7-3
		c0-1.6-1-2.4-1.7-3c-0.6-0.5-1-0.8-1-1.5c0-0.6-0.4-1-1-1s-1,0.4-1,1c0,1.6,1,2.4,1.7,3c0.6,0.5,1,0.8,1,1.5
		C20.5,19.5,20.2,19.8,19.6,20.4z"/>
</g>
</svg>
