<?xml version="1.0" encoding="utf-8"?>
<!-- Generator: Adobe Illustrator 18.0.0, SVG Export Plug-In . SVG Version: 6.00 Build 0)  -->
<!DOCTYPE svg PUBLIC "-//W3C//DTD SVG 1.1//EN" "http://www.w3.org/Graphics/SVG/1.1/DTD/svg11.dtd">
<svg version="1.1" id="Layer_1" xmlns="http://www.w3.org/2000/svg" xmlns:xlink="http://www.w3.org/1999/xlink" x="0px" y="0px"
	 viewBox="0 0 32 32" enable-background="new 0 0 32 32" xml:space="preserve">
<g>
	<path d="M25.6,6.1c-0.4-0.2-0.8-0.1-1.1,0.2L13.3,16.6l-5.8-5.5c-0.3-0.3-0.7-0.3-1.1-0.2c-0.4,0.2-0.6,0.5-0.6,0.9v7.3
		c0,0.3,0.1,0.5,0.3,0.7l6.5,6.1c0.2,0.2,0.4,0.3,0.7,0.3c0.2,0,0.5-0.1,0.6-0.2L25.8,16c0.2-0.2,0.4-0.5,0.4-0.8V7.1
		C26.2,6.7,25.9,6.3,25.6,6.1z M24.2,14.8L13.4,24l-5.5-5.2v-4.6l4.8,4.5c0.4,0.4,1,0.4,1.4,0l10.1-9.4V14.8z"/>
	<path d="M29,0H3C1.3,0,0,1.3,0,3v26c0,1.7,1.3,3,3,3h26c1.7,0,3-1.3,3-3V3C32,1.3,30.7,0,29,0z M30,29c0,0.6-0.4,1-1,1H3
		c-0.6,0-1-0.4-1-1V3c0-0.6,0.4-1,1-1h26c0.6,0,1,0.4,1,1V29z"/>
</g>
</svg>
