<?xml version="1.0" encoding="utf-8"?>
<!-- Generator: Adobe Illustrator 18.0.0, SVG Export Plug-In . SVG Version: 6.00 Build 0)  -->
<!DOCTYPE svg PUBLIC "-//W3C//DTD SVG 1.1//EN" "http://www.w3.org/Graphics/SVG/1.1/DTD/svg11.dtd">
<svg version="1.1" id="Layer_1" xmlns="http://www.w3.org/2000/svg" xmlns:xlink="http://www.w3.org/1999/xlink" x="0px" y="0px"
	 viewBox="0 0 32.1 29.7" enable-background="new 0 0 32.1 29.7" xml:space="preserve">
<path d="M29,8.7h2.1c0.5,0,0.9-0.3,1-0.8c0.1-0.5-0.1-0.9-0.6-1.1L16.7,0.1c-0.3-0.1-0.6-0.1-0.8,0L1.1,6.8C0.7,7,0.4,7.4,0.5,7.9
	c0.1,0.5,0.5,0.8,1,0.8h2.1v19.1H1c-0.6,0-1,0.4-1,1s0.4,1,1,1h30c0.6,0,1-0.4,1-1s-0.4-1-1-1h-2V8.7z M27,17.7h-9.7V8.7H27V17.7z
	 M15.3,19.7v8h-4v-8H15.3z M17.3,19.7h3.9v8h-3.9V19.7z M16.3,2.1l10.1,4.6H6.1L16.3,2.1z M15.3,8.7v9.1H5.6V8.7H15.3z M5.6,19.7
	h3.8v8H5.6V19.7z M23.1,27.7v-8H27v8H23.1z"/>
</svg>
