<?xml version="1.0" encoding="utf-8"?>
<!-- Generator: Adobe Illustrator 18.0.0, SVG Export Plug-In . SVG Version: 6.00 Build 0)  -->
<!DOCTYPE svg PUBLIC "-//W3C//DTD SVG 1.1//EN" "http://www.w3.org/Graphics/SVG/1.1/DTD/svg11.dtd">
<svg version="1.1" id="Layer_1" xmlns="http://www.w3.org/2000/svg" xmlns:xlink="http://www.w3.org/1999/xlink" x="0px" y="0px"
	 viewBox="0 0 35.7 33.8" enable-background="new 0 0 35.7 33.8" xml:space="preserve">
<g>
	<path d="M34.4,31.5h-2.8V5.3c0-2.5-2-4.5-4.5-4.5c-2.5,0-4.5,2-4.5,4.5v12.3c-2.2-1.4-5-2.2-8-2.2c-6.3,0-11.4,3.5-12.2,7.9
		c-1.2,1.1-2,2.6-2,4.4c0,3.2,2.6,5.8,5.8,5.8c1.1,0,2.2-0.3,3.1-0.9c1.6,0.6,3.4,0.9,5.4,0.9c6.8,0,12.3-4,12.3-9
		c0-1.9-0.8-3.7-2.2-5.2v-14c0-1.4,1.1-2.5,2.5-2.5s2.5,1.1,2.5,2.5v26.1h-3.2c-0.6,0-1,0.4-1,1c0,0.6,0.4,1,1,1h8c0.6,0,1-0.4,1-1
		C35.4,31.9,34.9,31.5,34.4,31.5z M6.1,31.5c-2.1,0-3.8-1.7-3.8-3.8c0-0.4,0.1-0.9,0.2-1.3c0.6,2,2.1,3.7,4.2,5
		C6.6,31.4,6.4,31.5,6.1,31.5z M24.9,24.5c0,3.9-4.6,7-10.3,7s-10.3-3.1-10.3-7s4.6-7,10.3-7c3.4,0,6.4,1.1,8.3,2.9
		c0,0,0.1,0.1,0.1,0.1C24.2,21.6,24.9,23,24.9,24.5z"/>
	<path d="M19.4,20.5h-4c-0.6,0-1,0.4-1,1s0.4,1,1,1h4c0.6,0,1-0.4,1-1S19.9,20.5,19.4,20.5z"/>
	<path d="M19.4,23.5h-4c-0.6,0-1,0.4-1,1s0.4,1,1,1h4c0.6,0,1-0.4,1-1S19.9,23.5,19.4,23.5z"/>
	<path d="M19.4,26.5h-4c-0.6,0-1,0.4-1,1s0.4,1,1,1h4c0.6,0,1-0.4,1-1S19.9,26.5,19.4,26.5z"/>
	<path d="M9.4,13.8c3.7,0,6.8-3,6.8-6.8c0-3.7-3-6.8-6.8-6.8S2.6,3.3,2.6,7C2.6,10.8,5.7,13.8,9.4,13.8z M9.4,2.3
		c2.6,0,4.8,2.1,4.8,4.8c0,2.6-2.1,4.8-4.8,4.8S4.6,9.7,4.6,7C4.6,4.4,6.8,2.3,9.4,2.3z"/>
	<path d="M9.4,8.5h2c0.6,0,1-0.4,1-1s-0.4-1-1-1h-1v-2c0-0.6-0.4-1-1-1s-1,0.4-1,1v3C8.4,8,8.8,8.5,9.4,8.5z"/>
</g>
</svg>
