<?xml version="1.0" encoding="utf-8"?>
<!-- Generator: Adobe Illustrator 18.0.0, SVG Export Plug-In . SVG Version: 6.00 Build 0)  -->
<!DOCTYPE svg PUBLIC "-//W3C//DTD SVG 1.1//EN" "http://www.w3.org/Graphics/SVG/1.1/DTD/svg11.dtd">
<svg version="1.1" id="Layer_1" xmlns="http://www.w3.org/2000/svg" xmlns:xlink="http://www.w3.org/1999/xlink" x="0px" y="0px"
	 viewBox="0 0 32.6 32.7" enable-background="new 0 0 32.6 32.7" xml:space="preserve">
<g>
	<path d="M32.6,10.9L29.2,0.7c0,0,0,0,0,0c0,0,0,0,0,0c0-0.1-0.1-0.2-0.1-0.2c0,0,0,0,0,0c0,0,0,0-0.1-0.1c0-0.1-0.1-0.1-0.1-0.1
		c0,0-0.1,0-0.1-0.1c-0.1,0-0.1-0.1-0.2-0.1c0,0-0.1,0-0.1,0c0,0-0.1,0-0.1,0c0,0-0.1,0-0.1,0c0,0-0.1,0-0.1,0c-0.1,0-0.1,0-0.2,0
		c0,0,0,0,0,0L17.7,3.4c-0.2,0.1-0.4,0.2-0.5,0.4l-2.6,3.8c0,0,0,0,0,0.1c0,0,0,0.1-0.1,0.1c0,0.1-0.1,0.1-0.1,0.2c0,0,0,0.1,0,0.1
		c0,0.1,0,0.2,0,0.3c0,0,0,0,0,0l0.4,1.1l-7.9,0c-0.2,0-0.4,0.1-0.6,0.2l-5.6,4.3c0,0,0,0-0.1,0.1c0,0,0,0,0,0c0,0,0,0,0,0.1
		c-0.1,0.1-0.1,0.1-0.1,0.2c0,0,0,0.1,0,0.1c0,0.1-0.1,0.2-0.1,0.3c0,0,0,0,0,0l0,0c0,0,0,0,0,0l0,16.7c0,0.6,0.4,1,1,1H18
		c0.1,0,0.2,0,0.4-0.1c0,0,0.1,0,0.1-0.1c0,0,0.1,0,0.1-0.1l5.7-4.3c0.2-0.2,0.4-0.5,0.4-0.8l0-9.8l4.7-1.6c0,0,0,0,0,0
		c0.1,0,0.2-0.1,0.3-0.2c0,0,0,0,0,0c0.1-0.1,0.1-0.1,0.2-0.2l2.6-3.8C32.6,11.5,32.7,11.2,32.6,10.9z M25.7,2.9L25,3.9l-7.1,2.4
		l0.7-1.1L25.7,2.9z M7.3,11.6l13.5,0l-2.4,1.8l-0.7,0.5H4.2L7.3,11.6z M2.3,15.9H17v14.7H2.3L2.3,15.9z M19,29.6V15.4l1-0.8l2.6-2
		l0,14.2L19,29.6z M24.7,10.6C24.7,10.6,24.7,10.6,24.7,10.6C24.7,10.6,24.6,10.5,24.7,10.6c0-0.1,0-0.2-0.1-0.3c0,0,0,0,0,0
		c0,0,0,0,0-0.1c0-0.1-0.1-0.1-0.1-0.2c0,0,0-0.1-0.1-0.1c0,0-0.1-0.1-0.1-0.1c0,0-0.1,0-0.1-0.1c0,0,0,0-0.1-0.1c0,0,0,0-0.1,0
		c0,0-0.1,0-0.1,0c-0.1,0-0.1,0-0.2,0c0,0,0,0-0.1,0l-6.7,0l-0.3-0.8l4.2-1.4L25,6l1.4,4.2l1.4,4.2l-3.1,1L24.7,10.6z M29.4,12.8
		l-2.6-7.8l1.1-1.7l2.6,7.8L29.4,12.8z"/>
	<circle cx="12.7" cy="19" r="1"/>
	<circle cx="12.7" cy="23.4" r="1"/>
	<circle cx="12.7" cy="27.7" r="1"/>
	<circle cx="6.6" cy="19" r="1"/>
	<circle cx="6.6" cy="23.3" r="1"/>
	<circle cx="6.6" cy="27.7" r="1"/>
</g>
</svg>
