<?xml version="1.0" encoding="utf-8"?>
<!-- Generator: Adobe Illustrator 18.0.0, SVG Export Plug-In . SVG Version: 6.00 Build 0)  -->
<!DOCTYPE svg PUBLIC "-//W3C//DTD SVG 1.1//EN" "http://www.w3.org/Graphics/SVG/1.1/DTD/svg11.dtd">
<svg version="1.1" id="Layer_1" xmlns="http://www.w3.org/2000/svg" xmlns:xlink="http://www.w3.org/1999/xlink" x="0px" y="0px"
	 viewBox="0 0 31.3 29.1" enable-background="new 0 0 31.3 29.1" xml:space="preserve">
<g>
	<polygon points="2,19.2 2,19.2 2,19.2 	"/>
	<path d="M30,23.5c-0.6,0-1,0.4-1,1c0,0.7,0,2.4-3.6,2.4h-3.2v-2.6h2.3c2.7,0,4.9-2.3,4.9-5.1c0-2.8-2.3-5.1-4.9-5.1h-4.8
		c-1,0-2.1-0.5-2.3-1.8L15.7,1.2c-0.1-0.5-0.5-0.9-1-0.9H5.9c-0.5,0-0.9,0.4-1,0.8c0,0.1-2.3,13.2-2.8,16.8C2,18.3,2,18.6,2,18.8
		l0,0.1c0,0.1,0,0.3,0,0.3c0,2.7,2.3,5,4.9,5h0.6v2.6H1.4c-0.6,0-1,0.4-1,1s0.4,1,1,1h24c5.1,0,5.6-3.1,5.6-4.4
		C31,23.9,30.6,23.5,30,23.5z M4,19.2l0-0.4c0-0.2,0-0.3,0-0.5c0.5-3.1,2.2-13.1,2.7-16h7.1l0.3,2h-3.3c-0.6,0-1,0.4-1,1s0.4,1,1,1
		h3.6l0.2,1.4h-3.8c-0.6,0-1,0.4-1,1s0.4,1,1,1h4.1l0.2,1.4h-4.3c-0.6,0-1,0.4-1,1s0.4,1,1,1h4.6c0.5,1.8,2.1,3,4.2,3h4.8
		c1.6,0,2.9,1.5,2.9,3.1c0,1.7-1.4,3.1-2.9,3.1H6.9C5.3,22.2,4,20.9,4,19.2z M9.5,24.2h10.6v2.6H9.5V24.2z"/>
</g>
</svg>
