<?xml version="1.0" encoding="utf-8"?>
<!-- Generator: Adobe Illustrator 18.0.0, SVG Export Plug-In . SVG Version: 6.00 Build 0)  -->
<!DOCTYPE svg PUBLIC "-//W3C//DTD SVG 1.1//EN" "http://www.w3.org/Graphics/SVG/1.1/DTD/svg11.dtd">
<svg version="1.1" id="Layer_1" xmlns="http://www.w3.org/2000/svg" xmlns:xlink="http://www.w3.org/1999/xlink" x="0px" y="0px"
	 viewBox="0 0 33.8 23.4" enable-background="new 0 0 33.8 23.4" xml:space="preserve">
<g>
	<path d="M33.2,17.8L29,10.9c-0.7-1.1-1.8-1.7-3.1-1.7l-14,0l0.5-3h13.5c1.7,0,3.1-1.4,3.1-3.1S27.7,0,25.9,0H8.1
		c-1.4,0-2.6,0.9-3,2.3l-5,17.2c-0.3,1-0.1,1.9,0.5,2.7c0.6,0.8,1.5,1.2,2.5,1.2h27c1.3,0,2.5-0.7,3.2-1.9S33.9,19,33.2,17.8z
		 M7,2.8C7.2,2.3,7.6,2,8.1,2h17.8c0.6,0,1.1,0.5,1.1,1.1s-0.5,1.1-1.1,1.1H12.3c-0.9,0-1.7,0.7-1.8,1.5L9.9,9
		c-0.1,0.5,0.1,1.1,0.4,1.5c0.4,0.4,0.9,0.7,1.4,0.7l14.2,0c0.6,0,1.1,0.3,1.4,0.8l3,4.9H3L7,2.8z M31.6,20.6
		c-0.3,0.5-0.8,0.9-1.4,0.9h-27c-0.4,0-0.7-0.2-0.9-0.4C2,20.7,1.9,20.3,2,20l0.3-1.1h29.1l0,0C31.8,19.4,31.9,20,31.6,20.6z"/>
	<circle cx="25.5" cy="14.2" r="1.1"/>
	<circle cx="20.1" cy="14.2" r="1.1"/>
	<circle cx="14.8" cy="14.2" r="1.1"/>
</g>
</svg>
