<?xml version="1.0" encoding="utf-8"?>
<!-- Generator: Adobe Illustrator 18.0.0, SVG Export Plug-In . SVG Version: 6.00 Build 0)  -->
<!DOCTYPE svg PUBLIC "-//W3C//DTD SVG 1.1//EN" "http://www.w3.org/Graphics/SVG/1.1/DTD/svg11.dtd">
<svg version="1.1" id="Layer_1" xmlns="http://www.w3.org/2000/svg" xmlns:xlink="http://www.w3.org/1999/xlink" x="0px" y="0px"
	 viewBox="0 0 26 32" enable-background="new 0 0 26 32" xml:space="preserve">
<g>
	<path d="M13,28c5,0,9-4,9-9c0-5-4-9-9-9s-9,4-9,9C4,24,8,28,13,28z M13,12c3.7,0,6.7,2.9,7,6.6c-1.8,1.5-4.6,1.5-6.3-0.3
		c-2-2-4.9-2.5-7.4-1.4C7.2,14.1,9.9,12,13,12z M12.3,19.7c1.3,1.3,3,1.9,4.7,1.9c0.9,0,1.8-0.2,2.7-0.6C18.8,23.9,16.1,26,13,26
		c-3.7,0-6.7-2.9-7-6.6C7.9,17.9,10.6,18,12.3,19.7z"/>
	<path d="M23,0H3C1.3,0,0,1.3,0,3v26c0,1.7,1.3,3,3,3h20c1.7,0,3-1.3,3-3V3C26,1.3,24.7,0,23,0z M24,29c0,0.6-0.4,1-1,1H3
		c-0.6,0-1-0.4-1-1V8h22V29z M24,6H2V3c0-0.6,0.4-1,1-1h20c0.6,0,1,0.4,1,1V6z"/>
</g>
</svg>
