<?xml version="1.0" encoding="utf-8"?>
<!-- Generator: Adobe Illustrator 18.0.0, SVG Export Plug-In . SVG Version: 6.00 Build 0)  -->
<!DOCTYPE svg PUBLIC "-//W3C//DTD SVG 1.1//EN" "http://www.w3.org/Graphics/SVG/1.1/DTD/svg11.dtd">
<svg version="1.1" id="Layer_1" xmlns="http://www.w3.org/2000/svg" xmlns:xlink="http://www.w3.org/1999/xlink" x="0px" y="0px"
	 viewBox="0 0 31.4 34.7" enable-background="new 0 0 31.4 34.7" xml:space="preserve">
<g>
	<path d="M22.1,21.7c0.2,0,0.4,0,0.5-0.2c3.6-2.2,4.4-4.9,4.4-5c0.2-0.5-0.1-1.1-0.7-1.2c-0.5-0.2-1.1,0.1-1.3,0.6
		c0,0.1-0.7,2.1-3.6,3.9c-0.5,0.3-0.6,0.9-0.3,1.4C21.4,21.6,21.7,21.7,22.1,21.7z"/>
	<path d="M11.7,8.7c-0.3,0.5-0.1,1.1,0.4,1.4c0.2,0.1,0.3,0.1,0.5,0.1c0.3,0,0.7-0.2,0.9-0.5c0.1-0.1,1.3-2.3-0.2-5
		c-0.9-1.6-0.1-2.8,0-2.9c0.3-0.5,0.2-1.1-0.2-1.4c-0.5-0.3-1.1-0.2-1.4,0.2c-0.1,0.1-1.6,2.3,0,5C12.4,7.4,11.8,8.7,11.7,8.7z"/>
	<path d="M17,8.7c-0.3,0.5-0.1,1.1,0.4,1.4c0.2,0.1,0.3,0.1,0.5,0.1c0.3,0,0.7-0.2,0.9-0.5c0.1-0.1,1.3-2.3-0.2-5
		c-0.9-1.6-0.1-2.8,0-2.9c0.3-0.5,0.2-1.1-0.2-1.4c-0.5-0.3-1.1-0.2-1.4,0.2c-0.1,0.1-1.6,2.3,0,5C17.7,7.4,17,8.7,17,8.7z"/>
	<path d="M22.3,8.7c-0.3,0.5-0.1,1.1,0.4,1.4c0.2,0.1,0.3,0.1,0.5,0.1c0.3,0,0.7-0.2,0.9-0.5c0.1-0.1,1.3-2.3-0.2-5
		c-0.9-1.6-0.1-2.8,0-2.9c0.3-0.5,0.2-1.1-0.2-1.4c-0.5-0.3-1.1-0.2-1.4,0.2c-0.1,0.1-1.6,2.3,0,5C23,7.4,22.3,8.7,22.3,8.7z"/>
	<path d="M24.5,27l-0.6-1.9c4.5-2.3,7.5-6.9,7.5-12.3c0-0.6-0.4-1-1-1H4.8c-0.6,0-1,0.4-1,1c0,0.6,0,1.1,0.1,1.7l-2.9,0c0,0,0,0,0,0
		c-0.5,0-1,0.4-1,1c0,0.6,0.4,1,1,1l3.3,0c1,3.8,3.6,7,7.1,8.7l-2.4,8.2c-0.2,0.5,0.1,1.1,0.7,1.2c0.1,0,0.2,0,0.3,0
		c0.4,0,0.8-0.3,1-0.7l1.3-4.4h8.4c-0.1,0.4-0.2,0.8-0.2,1.2c0,2.1,1.7,3.8,3.8,3.8s3.8-1.7,3.8-3.8C28,28.8,26.5,27.2,24.5,27z
		 M5.9,13.8h23.6c-0.5,6.1-5.5,10.8-11.8,10.8S6.3,19.9,5.9,13.8z M13.2,25.9c1.4,0.4,2.8,0.7,4.4,0.7c1.6,0,3-0.3,4.4-0.7l0.5,1.5
		c-0.1,0.1-0.3,0.1-0.4,0.2h-9.4L13.2,25.9z M24.2,32.7c-1,0-1.8-0.8-1.8-1.8s0.8-1.8,1.8-1.8s1.8,0.8,1.8,1.8S25.2,32.7,24.2,32.7z
		"/>
</g>
</svg>
