<?xml version="1.0" encoding="utf-8"?>
<!-- Generator: Adobe Illustrator 18.0.0, SVG Export Plug-In . SVG Version: 6.00 Build 0)  -->
<!DOCTYPE svg PUBLIC "-//W3C//DTD SVG 1.1//EN" "http://www.w3.org/Graphics/SVG/1.1/DTD/svg11.dtd">
<svg version="1.1" id="Layer_1" xmlns="http://www.w3.org/2000/svg" xmlns:xlink="http://www.w3.org/1999/xlink" x="0px" y="0px"
	 viewBox="0 0 29.8 26.8" enable-background="new 0 0 29.8 26.8" xml:space="preserve">
<path d="M7.7,22.2h20.2c1,0,1.8-0.8,1.8-1.8v-2.9c0-0.6-0.3-1-0.6-1.4c-0.2-0.3-0.5-0.4-0.8-0.4h-0.4H16.1h-0.2v-2.7h3.5
	c0.4,0,0.8-0.3,1-0.7l1.4-5c0.1-0.3,0-0.6-0.2-0.9c-0.2-0.3-0.5-0.4-0.8-0.4h-0.8V1c0-0.6-0.4-1-1-1h-8.4c-0.6,0-1,0.4-1,1v5.1H8.9
	c-0.3,0-0.6,0.1-0.8,0.4C7.9,6.7,7.8,7,7.9,7.3l1.4,5c0.1,0.4,0.5,0.7,1,0.7h3.6v3.1c0,0.9,0.7,1.6,1.6,1.6h0.6h11.6v2.5h-20H1.8
	c-1,0-1.8,0.8-1.8,1.8v2.9c0,1,0.8,1.8,1.8,1.8h26.9c0.6,0,1-0.4,1-1s-0.4-1-1-1H2v-2.5H7.7z M18.1,6.1h-2.2V2h2.2V6.1z M11.7,2h2.2
	v4.1h-2.2V2z M10.2,8.1h0.5h8.4h0.5l-0.9,3h-7.6L10.2,8.1z"/>
</svg>
