<?xml version="1.0" encoding="utf-8"?>
<!-- Generator: Adobe Illustrator 18.0.0, SVG Export Plug-In . SVG Version: 6.00 Build 0)  -->
<!DOCTYPE svg PUBLIC "-//W3C//DTD SVG 1.1//EN" "http://www.w3.org/Graphics/SVG/1.1/DTD/svg11.dtd">
<svg version="1.1" id="Layer_1" xmlns="http://www.w3.org/2000/svg" xmlns:xlink="http://www.w3.org/1999/xlink" x="0px" y="0px"
	 viewBox="0 0 32.8 32.8" enable-background="new 0 0 32.8 32.8" xml:space="preserve">
<g>
	<path d="M24.5,8.3C24.5,8.3,24.5,8.3,24.5,8.3C24.5,8.3,24.5,8.3,24.5,8.3l-6-6c-0.4-0.4-1-0.4-1.4,0s-0.4,1,0,1.4L22.3,9L9,22.3
		l-5.3-5.3c-0.4-0.4-1-0.4-1.4,0s-0.4,1,0,1.4l12,12c0.2,0.2,0.5,0.3,0.7,0.3s0.5-0.1,0.7-0.3c0.4-0.4,0.4-1,0-1.4l-5.3-5.3
		l13.3-13.3l5.3,5.3c0.2,0.2,0.5,0.3,0.7,0.3s0.5-0.1,0.7-0.3c0.4-0.4,0.4-1,0-1.4L24.5,8.3z"/>
	<path d="M22.3,1.3c-0.4-0.4-1-0.4-1.4,0s-0.4,1,0,1.4l9.2,9.2c0.2,0.2,0.5,0.3,0.7,0.3s0.5-0.1,0.7-0.3c0.4-0.4,0.4-1,0-1.4
		L22.3,1.3z"/>
	<path d="M32.5,6.7L26,0.3c-0.4-0.4-1-0.4-1.4,0s-0.4,1,0,1.4l6.4,6.4c0.2,0.2,0.5,0.3,0.7,0.3s0.5-0.1,0.7-0.3
		C32.9,7.8,32.9,7.1,32.5,6.7z"/>
	<path d="M2.7,20.8c-0.4-0.4-1-0.4-1.4,0s-0.4,1,0,1.4l9.2,9.2c0.2,0.2,0.5,0.3,0.7,0.3s0.5-0.1,0.7-0.3c0.4-0.4,0.4-1,0-1.4
		L2.7,20.8z"/>
	<path d="M1.7,24.6c-0.4-0.4-1-0.4-1.4,0s-0.4,1,0,1.4l6.4,6.4c0.2,0.2,0.5,0.3,0.7,0.3s0.5-0.1,0.7-0.3c0.4-0.4,0.4-1,0-1.4
		L1.7,24.6z"/>
</g>
</svg>
