<?xml version="1.0" encoding="utf-8"?>
<!-- Generator: Adobe Illustrator 18.0.0, SVG Export Plug-In . SVG Version: 6.00 Build 0)  -->
<!DOCTYPE svg PUBLIC "-//W3C//DTD SVG 1.1//EN" "http://www.w3.org/Graphics/SVG/1.1/DTD/svg11.dtd">
<svg version="1.1" id="Layer_1" xmlns="http://www.w3.org/2000/svg" xmlns:xlink="http://www.w3.org/1999/xlink" x="0px" y="0px"
	 viewBox="0 0 30 26.8" enable-background="new 0 0 30 26.8" xml:space="preserve">
<g>
	<path d="M29.5,20.8L18.4,2c-0.7-1.2-2-2-3.4-2c-1.4,0-2.7,0.7-3.4,2l-11,18.8c-0.7,1.3-0.7,2.8,0,4c0.7,1.3,2,2,3.4,2h22
		c1.4,0,2.7-0.8,3.4-2C30.2,23.5,30.2,22,29.5,20.8z M27.7,23.8c-0.4,0.6-1,1-1.7,1H4c-0.7,0-1.4-0.4-1.7-1c-0.4-0.6-0.4-1.4,0-2
		L13.3,3c0.4-0.6,1-1,1.7-1c0.7,0,1.3,0.4,1.7,1l11,18.8C28.1,22.4,28.1,23.2,27.7,23.8z"/>
	<path d="M7.6,17.6c-1.8,0-3.3,1.5-3.3,3.3s1.5,3.3,3.3,3.3s3.3-1.5,3.3-3.3S9.4,17.6,7.6,17.6z M7.6,22.2c-0.7,0-1.3-0.6-1.3-1.3
		s0.6-1.3,1.3-1.3s1.3,0.6,1.3,1.3S8.3,22.2,7.6,22.2z"/>
	<path d="M15.1,17.6c-1.8,0-3.3,1.5-3.3,3.3s1.5,3.3,3.3,3.3s3.3-1.5,3.3-3.3S16.9,17.6,15.1,17.6z M15.1,22.2
		c-0.7,0-1.3-0.6-1.3-1.3s0.6-1.3,1.3-1.3s1.3,0.6,1.3,1.3S15.8,22.2,15.1,22.2z"/>
	<path d="M22.6,17.6c-1.8,0-3.3,1.5-3.3,3.3s1.5,3.3,3.3,3.3s3.3-1.5,3.3-3.3S24.4,17.6,22.6,17.6z M22.6,22.2
		c-0.7,0-1.3-0.6-1.3-1.3s0.6-1.3,1.3-1.3s1.3,0.6,1.3,1.3S23.3,22.2,22.6,22.2z"/>
	<path d="M14.5,14.4c0-1.8-1.5-3.3-3.3-3.3s-3.3,1.5-3.3,3.3s1.5,3.3,3.3,3.3S14.5,16.2,14.5,14.4z M11.2,15.7
		c-0.7,0-1.3-0.6-1.3-1.3s0.6-1.3,1.3-1.3s1.3,0.6,1.3,1.3S11.9,15.7,11.2,15.7z"/>
	<path d="M22,14.4c0-1.8-1.5-3.3-3.3-3.3s-3.3,1.5-3.3,3.3s1.5,3.3,3.3,3.3S22,16.2,22,14.4z M18.7,15.7c-0.7,0-1.3-0.6-1.3-1.3
		s0.6-1.3,1.3-1.3s1.3,0.6,1.3,1.3S19.4,15.7,18.7,15.7z"/>
	<path d="M14.9,11.2c1.8,0,3.3-1.5,3.3-3.3s-1.5-3.3-3.3-3.3S11.6,6,11.6,7.9S13.1,11.2,14.9,11.2z M14.9,6.6c0.7,0,1.3,0.6,1.3,1.3
		s-0.6,1.3-1.3,1.3s-1.3-0.6-1.3-1.3S14.2,6.6,14.9,6.6z"/>
</g>
</svg>
