<?xml version="1.0" encoding="utf-8"?>
<!-- Generator: Adobe Illustrator 18.0.0, SVG Export Plug-In . SVG Version: 6.00 Build 0)  -->
<!DOCTYPE svg PUBLIC "-//W3C//DTD SVG 1.1//EN" "http://www.w3.org/Graphics/SVG/1.1/DTD/svg11.dtd">
<svg version="1.1" id="Layer_1" xmlns="http://www.w3.org/2000/svg" xmlns:xlink="http://www.w3.org/1999/xlink" x="0px" y="0px"
	 viewBox="0 0 30 26" enable-background="new 0 0 30 26" xml:space="preserve">
<g>
	<path d="M29,9.8V6.1c0-1.6-1.3-3-2.9-3.1c-0.1,0-0.1,0-0.2,0c-1.7,0-3,1.4-3,3c0,0.6,0.4,1,1,1s1-0.4,1-1c0-0.5,0.4-1,0.9-1
		c0,0,0.1,0,0.1,0c0.6,0,1.1,0.5,1.1,1.1v3.7H2H1c-0.6,0-1,0.4-1,1s0.4,1,1,1v5.3c0,2.6,2.2,4.7,4.9,4.7h0c-0.1,0.5-0.2,1.1-0.6,1.5
		C4.9,23.8,4.4,24,3.6,24c-0.6,0-1,0.4-1,1s0.4,1,1,1c1.4,0,2.5-0.4,3.2-1.3c0.8-0.9,1-2,1.1-2.9h14.2c0.1,0.8,0.3,2,1.1,2.9
		c0.8,0.9,1.9,1.3,3.2,1.3c0.6,0,1-0.4,1-1s-0.4-1-1-1c-0.8,0-1.4-0.2-1.7-0.6c-0.4-0.4-0.5-1-0.6-1.5h0c2.7,0,4.9-2.1,4.9-4.7v-4.4
		v-0.9c0.6,0,1-0.4,1-1S29.6,9.8,29,9.8z M27,12.7v4.4c0,1.5-1.3,2.7-2.9,2.7H5.9c-1.6,0-2.9-1.2-2.9-2.7v-5.3h24V12.7z"/>
	<path d="M18.3,5c0.4,0.3,0.5,0.6,0.5,0.8c0.1,0.6-0.4,1.3-0.6,1.6c-0.4,0.4-0.3,1,0.1,1.4C18.5,9,18.7,9.1,19,9.1
		c0.3,0,0.5-0.1,0.7-0.3c0.1-0.1,1.3-1.5,1.1-3.1c-0.1-0.9-0.5-1.6-1.3-2.2c-0.3-0.3-0.5-0.5-0.5-0.8c0-0.4,0.4-0.8,0.5-0.9
		c0.4-0.4,0.5-1,0.1-1.4c-0.4-0.4-1-0.5-1.4-0.1c-0.1,0.1-1.3,1.1-1.3,2.5C17.1,3.3,17.3,4.2,18.3,5z"/>
	<path d="M13.4,5c0.4,0.3,0.5,0.6,0.5,0.8c0.1,0.6-0.4,1.3-0.6,1.6c-0.4,0.4-0.3,1,0.1,1.4c0.2,0.2,0.4,0.3,0.7,0.3
		c0.3,0,0.5-0.1,0.7-0.3c0.1-0.1,1.3-1.5,1.1-3.1c-0.1-0.9-0.5-1.6-1.3-2.2c-0.3-0.3-0.5-0.5-0.5-0.8c0-0.4,0.4-0.8,0.5-0.9
		c0.4-0.4,0.5-1,0.1-1.4c-0.4-0.4-1-0.5-1.4-0.1c-0.1,0.1-1.3,1.1-1.3,2.5C12.2,3.3,12.4,4.2,13.4,5z"/>
	<path d="M8.5,5C9,5.4,9,5.7,9.1,5.9c0.1,0.6-0.4,1.3-0.6,1.6C8,7.8,8.1,8.5,8.5,8.9C8.7,9,8.9,9.1,9.2,9.1c0.3,0,0.5-0.1,0.7-0.3
		C10,8.6,11.2,7.3,11,5.7C11,4.8,10.5,4.1,9.8,3.5C9.4,3.2,9.3,2.9,9.3,2.7c0-0.4,0.4-0.8,0.5-0.9c0.4-0.4,0.5-1,0.1-1.4
		C9.6-0.1,9-0.1,8.5,0.2C8.4,0.3,7.3,1.3,7.3,2.7C7.3,3.3,7.5,4.2,8.5,5z"/>
</g>
</svg>
