<?xml version="1.0" encoding="utf-8"?>
<!-- Generator: Adobe Illustrator 18.0.0, SVG Export Plug-In . SVG Version: 6.00 Build 0)  -->
<!DOCTYPE svg PUBLIC "-//W3C//DTD SVG 1.1//EN" "http://www.w3.org/Graphics/SVG/1.1/DTD/svg11.dtd">
<svg version="1.1" id="Layer_1" xmlns="http://www.w3.org/2000/svg" xmlns:xlink="http://www.w3.org/1999/xlink" x="0px" y="0px"
	 viewBox="0 0 24 32" enable-background="new 0 0 24 32" xml:space="preserve">
<g>
	<path d="M17,12c0.6,0,1-0.4,1-1V1c0-0.6-0.4-1-1-1s-1,0.4-1,1v10C16,11.6,16.4,12,17,12z"/>
	<path d="M4,0C1.8,0,0,1.8,0,4v12c0,1.3,0.8,2.4,2,2.8V29c0,1.6,1.3,3,3,3h0c1.6,0,3-1.3,3-3V4C8,1.8,6.2,0,4,0z M6,29
		c0,0.5-0.4,1-1,1h0c-0.5,0-1-0.4-1-1V18c0-0.6-0.5-1-1-1c-0.5,0-1-0.4-1-1V4c0-1.1,0.9-2,2-2c1.1,0,2,0.9,2,2V29z"/>
	<path d="M23,0c-0.6,0-1,0.4-1,1v10c0,1.7-1.3,3-3,3c-0.6,0-1,0.4-1,1v14c0,0.6-0.4,1-1,1s-1-0.4-1-1V15c0-0.6-0.4-1-1-1
		c-1.7,0-3-1.3-3-3V1c0-0.6-0.4-1-1-1s-1,0.4-1,1v10c0,2.4,1.7,4.4,4,4.9V29c0,1.7,1.3,3,3,3s3-1.3,3-3V15.9c2.3-0.5,4-2.5,4-4.9V1
		C24,0.4,23.6,0,23,0z"/>
</g>
</svg>
