<?xml version="1.0" encoding="utf-8"?>
<!-- Generator: Adobe Illustrator 18.0.0, SVG Export Plug-In . SVG Version: 6.00 Build 0)  -->
<!DOCTYPE svg PUBLIC "-//W3C//DTD SVG 1.1//EN" "http://www.w3.org/Graphics/SVG/1.1/DTD/svg11.dtd">
<svg version="1.1" id="Layer_1" xmlns="http://www.w3.org/2000/svg" xmlns:xlink="http://www.w3.org/1999/xlink" x="0px" y="0px"
	 viewBox="0 0 31.9 21.5" enable-background="new 0 0 31.9 21.5" xml:space="preserve">
<path d="M31.6,1C31.6,1,31.5,1,31.6,1c-0.2-0.4-0.5-0.7-1-0.7H1.3c-0.6,0-1,0.4-1,1v18.9c0,0.6,0.4,1,1,1h29.3c0.6,0,1-0.4,1-1V1.5
	C31.6,1.3,31.6,1.2,31.6,1z M2.3,2.9c2.7,1.6,4.4,4.6,4.4,7.9c0,3.3-1.7,6.3-4.4,7.9V2.9z M8.6,10.7c0-3.3-1.4-6.4-3.8-8.4h10.1v3.8
	c-2.1,0.5-3.7,2.3-3.7,4.6s1.6,4.1,3.7,4.6v3.9H4.9C7.2,17.1,8.6,14.1,8.6,10.7z M14.9,13.2c-1-0.4-1.7-1.4-1.7-2.5
	c0-1.1,0.7-2.1,1.7-2.5V13.2z M16.9,8.2c1,0.4,1.7,1.4,1.7,2.5c0,1.1-0.7,2.1-1.7,2.5V8.2z M16.9,15.3c2.1-0.5,3.7-2.3,3.7-4.6
	s-1.6-4.1-3.7-4.6V2.3h10.3c-2.3,2.1-3.8,5.1-3.8,8.4c0,3.3,1.4,6.4,3.8,8.4H16.9V15.3z M25.4,10.7c0-3.2,1.6-6.1,4.2-7.7v15.5
	C27.1,16.9,25.4,14,25.4,10.7z"/>
</svg>
