<?xml version="1.0" encoding="utf-8"?>
<!-- Generator: Adobe Illustrator 18.0.0, SVG Export Plug-In . SVG Version: 6.00 Build 0)  -->
<!DOCTYPE svg PUBLIC "-//W3C//DTD SVG 1.1//EN" "http://www.w3.org/Graphics/SVG/1.1/DTD/svg11.dtd">
<svg version="1.1" id="Layer_1" xmlns="http://www.w3.org/2000/svg" xmlns:xlink="http://www.w3.org/1999/xlink" x="0px" y="0px"
	 viewBox="0 0 29.5 29.4" enable-background="new 0 0 29.5 29.4" xml:space="preserve">
<g>
	<path d="M3.1,10.9H2.9c-1.6,0-2.9,1.3-2.9,2.9v12.8c0,1.6,1.3,2.9,2.9,2.9h0.3c1.6,0,2.9-1.3,2.9-2.9V13.7
		C6,12.2,4.7,10.9,3.1,10.9z M4,26.5c0,0.5-0.4,0.9-0.9,0.9H2.9C2.4,27.4,2,27,2,26.5V13.7c0-0.5,0.4-0.9,0.9-0.9h0.3
		c0.5,0,0.9,0.4,0.9,0.9V26.5z"/>
	<path d="M11,10.9h-0.3c-1.6,0-2.9,1.3-2.9,2.9v12.8c0,1.6,1.3,2.9,2.9,2.9H11c1.6,0,2.9-1.3,2.9-2.9V13.7
		C13.8,12.2,12.6,10.9,11,10.9z M11.8,26.5c0,0.5-0.4,0.9-0.9,0.9h-0.3c-0.5,0-0.9-0.4-0.9-0.9V13.7c0-0.5,0.4-0.9,0.9-0.9H11
		c0.5,0,0.9,0.4,0.9,0.9V26.5z"/>
	<path d="M18.8,10.9h-0.3c-1.6,0-2.9,1.3-2.9,2.9v12.8c0,1.6,1.3,2.9,2.9,2.9h0.3c1.6,0,2.9-1.3,2.9-2.9V13.7
		C21.7,12.2,20.4,10.9,18.8,10.9z M19.7,26.5c0,0.5-0.4,0.9-0.9,0.9h-0.3c-0.5,0-0.9-0.4-0.9-0.9V13.7c0-0.5,0.4-0.9,0.9-0.9h0.3
		c0.5,0,0.9,0.4,0.9,0.9V26.5z"/>
	<path d="M26.6,10.9h-0.3c-1.6,0-2.9,1.3-2.9,2.9v12.8c0,1.6,1.3,2.9,2.9,2.9h0.3c1.6,0,2.9-1.3,2.9-2.9V13.7
		C29.5,12.2,28.2,10.9,26.6,10.9z M27.5,26.5c0,0.5-0.4,0.9-0.9,0.9h-0.3c-0.5,0-0.9-0.4-0.9-0.9V13.7c0-0.5,0.4-0.9,0.9-0.9h0.3
		c0.5,0,0.9,0.4,0.9,0.9V26.5z"/>
	<path d="M8.1,3.9C7.2,3,8,2,8.2,1.7c0.4-0.4,0.3-1-0.1-1.4c-0.4-0.4-1-0.3-1.4,0.1c-1,1.1-1.8,3.4,0.1,5.1c1,0.9,0.1,2.1-0.1,2.4
		c-0.4,0.4-0.3,1,0.1,1.4C7,9.4,7.2,9.4,7.5,9.4c0.3,0,0.6-0.1,0.8-0.4C9.1,8.1,10.1,5.8,8.1,3.9z"/>
	<path d="M15.1,3.9c-1-0.9-0.2-2,0.1-2.3c0.4-0.4,0.3-1-0.1-1.4c-0.4-0.4-1-0.3-1.4,0.1c-1,1.1-1.8,3.4,0.1,5.1
		c1,0.9,0.1,2.1-0.1,2.4c-0.4,0.4-0.3,1,0.1,1.4c0.2,0.2,0.4,0.2,0.6,0.2c0.3,0,0.6-0.1,0.8-0.4C16.1,8.1,17.1,5.8,15.1,3.9z"/>
	<path d="M22.2,1.7c0.4-0.4,0.3-1-0.1-1.4c-0.4-0.4-1-0.3-1.4,0.1c-1,1.1-1.8,3.4,0.1,5.1c1,0.9,0.1,2.1-0.1,2.4
		c-0.4,0.4-0.3,1,0.1,1.4c0.2,0.2,0.4,0.2,0.6,0.2c0.3,0,0.6-0.1,0.8-0.4c0.8-1,1.9-3.3-0.1-5.1C21.2,3,22,2,22.2,1.7z"/>
</g>
</svg>
