<?xml version="1.0" encoding="utf-8"?>
<!-- Generator: Adobe Illustrator 18.0.0, SVG Export Plug-In . SVG Version: 6.00 Build 0)  -->
<!DOCTYPE svg PUBLIC "-//W3C//DTD SVG 1.1//EN" "http://www.w3.org/Graphics/SVG/1.1/DTD/svg11.dtd">
<svg version="1.1" id="Layer_1" xmlns="http://www.w3.org/2000/svg" xmlns:xlink="http://www.w3.org/1999/xlink" x="0px" y="0px"
	 viewBox="0 0 27.5 33.6" enable-background="new 0 0 27.5 33.6" xml:space="preserve">
<g>
	<path d="M13.7,5.2C9,5.2,5.3,9,5.3,13.8c0,3.2,1.8,6.1,4.7,7.6v5.3c0,0.6,0.4,1,1,1h5.6c0.6,0,1-0.4,1-1v-5.3
		c2.9-1.5,4.7-4.4,4.7-7.6C22.2,9.1,18.4,5.2,13.7,5.2z M16.1,19.8c-0.4,0.2-0.6,0.5-0.6,0.9v5H12v-5c0-0.4-0.2-0.8-0.6-0.9
		c-2.5-1-4.1-3.4-4.1-6c0-3.7,2.8-6.6,6.4-6.6c3.6,0,6.5,2.9,6.5,6.6C20.2,16.4,18.6,18.8,16.1,19.8z"/>
	<path d="M16.5,28.7H11c-0.6,0-1,0.4-1,1s0.4,1,1,1h5.6c0.6,0,1-0.4,1-1S17.1,28.7,16.5,28.7z"/>
	<path d="M15.4,31.6h-3.3c-0.6,0-1,0.4-1,1s0.4,1,1,1h3.3c0.6,0,1-0.4,1-1S16,31.6,15.4,31.6z"/>
	<path d="M13.7,4.4c0.6,0,1-0.4,1-1V1c0-0.6-0.4-1-1-1s-1,0.4-1,1v2.4C12.7,3.9,13.2,4.4,13.7,4.4z"/>
	<path d="M7.7,5.2c0.2,0.3,0.5,0.5,0.9,0.5c0.2,0,0.3,0,0.5-0.1c0.5-0.3,0.6-0.9,0.4-1.4l-1.2-2C8,1.7,7.3,1.6,6.9,1.8
		C6.4,2.1,6.2,2.7,6.5,3.2L7.7,5.2z"/>
	<path d="M2.2,8.2l2,1.2c0.2,0.1,0.3,0.1,0.5,0.1c0.3,0,0.7-0.2,0.9-0.5C5.9,8.6,5.7,8,5.2,7.7l-2-1.2C2.7,6.2,2.1,6.4,1.8,6.9
		C1.6,7.3,1.7,8,2.2,8.2z"/>
	<path d="M25.3,19.2l-2-1.2c-0.5-0.3-1.1-0.1-1.4,0.4c-0.3,0.5-0.1,1.1,0.4,1.4l2,1.2c0.2,0.1,0.3,0.1,0.5,0.1
		c0.3,0,0.7-0.2,0.9-0.5C25.9,20.1,25.7,19.5,25.3,19.2z"/>
	<path d="M4.4,13.7c0-0.6-0.4-1-1-1H1c-0.6,0-1,0.4-1,1s0.4,1,1,1h2.4C3.9,14.7,4.4,14.3,4.4,13.7z"/>
	<path d="M26.5,12.7h-2.4c-0.6,0-1,0.4-1,1s0.4,1,1,1h2.4c0.6,0,1-0.4,1-1S27,12.7,26.5,12.7z"/>
	<path d="M4.2,18l-2,1.2c-0.5,0.3-0.6,0.9-0.4,1.4c0.2,0.3,0.5,0.5,0.9,0.5c0.2,0,0.3,0,0.5-0.1l2-1.2c0.5-0.3,0.6-0.9,0.4-1.4
		C5.3,17.9,4.7,17.8,4.2,18z"/>
	<path d="M22.7,9.5c0.2,0,0.3,0,0.5-0.1l2-1.2c0.5-0.3,0.6-0.9,0.4-1.4c-0.3-0.5-0.9-0.6-1.4-0.4l-2,1.2C21.7,8,21.6,8.6,21.8,9
		C22,9.4,22.4,9.5,22.7,9.5z"/>
	<path d="M18.4,5.6c0.2,0.1,0.3,0.1,0.5,0.1c0.3,0,0.7-0.2,0.9-0.5l1.2-2c0.3-0.5,0.1-1.1-0.4-1.4c-0.5-0.3-1.1-0.1-1.4,0.4l-1.2,2
		C17.8,4.7,17.9,5.3,18.4,5.6z"/>
</g>
</svg>
