<?xml version="1.0" encoding="utf-8"?>
<!-- Generator: Adobe Illustrator 18.0.0, SVG Export Plug-In . SVG Version: 6.00 Build 0)  -->
<!DOCTYPE svg PUBLIC "-//W3C//DTD SVG 1.1//EN" "http://www.w3.org/Graphics/SVG/1.1/DTD/svg11.dtd">
<svg version="1.1" id="Layer_1" xmlns="http://www.w3.org/2000/svg" xmlns:xlink="http://www.w3.org/1999/xlink" x="0px" y="0px"
	 viewBox="0 0 32.3 28.6" enable-background="new 0 0 32.3 28.6" xml:space="preserve">
<g>
	<path d="M29.4,11.3V8.2c0-4-3.7-7.9-7.4-7.9H10.3c-3.8,0-7.4,3.8-7.4,7.9v3.1C1,13.1,0,15.5,0,18v4.4c0,1.1,0.9,2,2,2h1v1.2
		c0,1.6,1.3,2.9,2.9,2.9s2.9-1.3,2.9-2.9v-1.2h14.5v1.2c0,1.6,1.3,2.9,2.9,2.9s2.9-1.3,2.9-2.9v-1.2h1c1.1,0,2-0.9,2-2V18
		C32.3,15.5,31.3,13.1,29.4,11.3z M6.9,25.6c0,0.5-0.4,0.9-0.9,0.9S5,26.1,5,25.6v-1.2h1.9V25.6z M27.3,25.6c0,0.5-0.4,0.9-0.9,0.9
		s-0.9-0.4-0.9-0.9v-1.2h1.9V25.6z M30.3,22.4H2V18c0-2.4,1.1-4.3,2.9-5.8v-4c0-2.9,2.6-5.9,5.4-5.9s9.2,0,11.8,0s5.4,3,5.4,5.9v4
		c1.8,1.4,2.9,3.4,2.9,5.8V22.4z"/>
	<path d="M24.8,8.3c0-3.3-3-4.1-6-4.1h-5.3c-3,0-6,1-6,4.1v3.8h17.3V8.3z M22.8,10.1H9.5V8.3c0-1.8,2.2-2.1,4-2.1h5.3
		c4,0,4,1.5,4,2.1V10.1z"/>
	<path d="M6,15.7c-1.6,0-2.9,1.3-2.9,2.9c0,1.6,1.3,2.9,2.9,2.9c1.6,0,2.9-1.3,2.9-2.9C8.9,17,7.6,15.7,6,15.7z M6,19.6
		c-0.5,0-0.9-0.4-0.9-0.9c0-0.5,0.4-0.9,0.9-0.9c0.5,0,0.9,0.4,0.9,0.9C6.9,19.1,6.5,19.6,6,19.6z"/>
	<path d="M23.4,18.6c0,1.6,1.3,2.9,2.9,2.9c1.6,0,2.9-1.3,2.9-2.9c0-1.6-1.3-2.9-2.9-2.9C24.7,15.7,23.4,17,23.4,18.6z M27.3,18.6
		c0,0.5-0.4,0.9-0.9,0.9c-0.5,0-0.9-0.4-0.9-0.9c0-0.5,0.4-0.9,0.9-0.9C26.9,17.7,27.3,18.1,27.3,18.6z"/>
	<path d="M21.2,16.1h-10c-0.6,0-1,0.4-1,1s0.4,1,1,1h10c0.6,0,1-0.4,1-1S21.7,16.1,21.2,16.1z"/>
	<path d="M21.2,19.1h-10c-0.6,0-1,0.4-1,1s0.4,1,1,1h10c0.6,0,1-0.4,1-1S21.7,19.1,21.2,19.1z"/>
</g>
</svg>
