<?xml version="1.0" encoding="utf-8"?>
<!-- Generator: Adobe Illustrator 18.0.0, SVG Export Plug-In . SVG Version: 6.00 Build 0)  -->
<!DOCTYPE svg PUBLIC "-//W3C//DTD SVG 1.1//EN" "http://www.w3.org/Graphics/SVG/1.1/DTD/svg11.dtd">
<svg version="1.1" id="Layer_1" xmlns="http://www.w3.org/2000/svg" xmlns:xlink="http://www.w3.org/1999/xlink" x="0px" y="0px"
	 viewBox="0 0 32.3 30.6" enable-background="new 0 0 32.3 30.6" xml:space="preserve">
<g>
	<path d="M29.4,13.3v-1.8c0-3.2-2-6-5.4-7.4C23.7,1.8,21.7,0,19.2,0h-6.1c-2.5,0-4.5,1.8-4.8,4.2c-3.4,1.4-5.4,4.1-5.4,7.4v1.8
		C1,15.2,0,17.5,0,20v4.4c0,1.1,0.9,2,2,2h1v1.2c0,1.6,1.3,2.9,2.9,2.9s2.9-1.3,2.9-2.9v-1.2h14.5v1.2c0,1.6,1.3,2.9,2.9,2.9
		s2.9-1.3,2.9-2.9v-1.2h1c1.1,0,2-0.9,2-2V20C32.3,17.5,31.3,15.2,29.4,13.3z M6.9,27.7c0,0.5-0.4,0.9-0.9,0.9S5,28.2,5,27.7v-1.2
		h1.9V27.7z M27.3,27.7c0,0.5-0.4,0.9-0.9,0.9s-0.9-0.4-0.9-0.9v-1.2h1.9V27.7z M30.3,24.4h-1h-2h-1.9h-2H8.9h-2H5H3H2V20
		c0-2.4,1.1-4.3,2.9-5.8v-2.7c0-2.9,2.2-5.1,5.4-5.9V4.8c0-1.6,1.3-2.8,2.8-2.8h6.1c1.6,0,2.8,1.3,2.8,2.8v0.8
		c3.2,0.9,5.4,3,5.4,5.9v2.7c1.8,1.4,2.9,3.4,2.9,5.8V24.4z"/>
	<path d="M24.8,11.5c0-2.4-3-3.7-6-3.7h-5.3c-3,0-6,1.3-6,3.7v2.7h17.3V11.5z M22.8,12.1H9.5v-0.7c0-0.9,1.9-1.7,4-1.7h5.3
		c2.1,0,4,0.8,4,1.7V12.1z"/>
	<rect x="11.2" y="20.6" width="2" height="2"/>
	<rect x="13.2" y="18.6" width="2" height="2"/>
	<rect x="15.2" y="20.6" width="2" height="2"/>
	<rect x="17.2" y="18.6" width="2" height="2"/>
	<rect x="19.2" y="20.6" width="2" height="2"/>
	<path d="M6,17.8c-1.6,0-2.9,1.3-2.9,2.9c0,1.6,1.3,2.9,2.9,2.9c1.6,0,2.9-1.3,2.9-2.9C8.9,19.1,7.6,17.8,6,17.8z M6,21.6
		c-0.5,0-0.9-0.4-0.9-0.9c0-0.5,0.4-0.9,0.9-0.9c0.5,0,0.9,0.4,0.9,0.9C6.9,21.2,6.5,21.6,6,21.6z"/>
	<path d="M23.4,20.7c0,1.6,1.3,2.9,2.9,2.9c1.6,0,2.9-1.3,2.9-2.9c0-1.6-1.3-2.9-2.9-2.9C24.7,17.8,23.4,19.1,23.4,20.7z M27.3,20.7
		c0,0.5-0.4,0.9-0.9,0.9c-0.5,0-0.9-0.4-0.9-0.9c0-0.5,0.4-0.9,0.9-0.9C26.9,19.8,27.3,20.2,27.3,20.7z"/>
	<path d="M12.7,5.1h7c0.6,0,1-0.4,1-1s-0.4-1-1-1h-7c-0.6,0-1,0.4-1,1S12.1,5.1,12.7,5.1z"/>
</g>
</svg>
