<?xml version="1.0" encoding="utf-8"?>
<!-- Generator: Adobe Illustrator 18.0.0, SVG Export Plug-In . SVG Version: 6.00 Build 0)  -->
<!DOCTYPE svg PUBLIC "-//W3C//DTD SVG 1.1//EN" "http://www.w3.org/Graphics/SVG/1.1/DTD/svg11.dtd">
<svg version="1.1" id="Layer_1" xmlns="http://www.w3.org/2000/svg" xmlns:xlink="http://www.w3.org/1999/xlink" x="0px" y="0px"
	 viewBox="0 0 27.6 30.2" enable-background="new 0 0 27.6 30.2" xml:space="preserve">
<g>
	<path d="M26.6,6H10.1C8.9,6,8,7,8,8.2v1.7H4V8.2C4,4.8,6.7,2,10.1,2h16.4c0.6,0,1-0.4,1-1s-0.4-1-1-1H10.1C5.6,0,2,3.7,2,8.2v1.7H1
		c-0.6,0-1,0.4-1,1s0.4,1,1,1h9.7c0.6,0,1-0.4,1-1s-0.4-1-1-1H10V8.2C10,8.1,10,8,10.1,8h16.4c0.6,0,1-0.4,1-1S27.1,6,26.6,6z"/>
	<path d="M2.9,15.2c0.2-0.5,0-1.1-0.5-1.3c-0.5-0.2-1.1,0-1.3,0.5c-0.1,0.2-1.9,4.4,0,8c1.5,2.7,0,6.3,0,6.4c-0.2,0.5,0,1.1,0.5,1.3
		c0.1,0.1,0.3,0.1,0.4,0.1c0.4,0,0.8-0.2,0.9-0.6c0.1-0.2,1.9-4.5,0-8.1C1.4,18.8,2.9,15.3,2.9,15.2z"/>
	<path d="M6.8,15.2c0.2-0.5,0-1.1-0.5-1.3c-0.5-0.2-1.1,0-1.3,0.5c-0.1,0.2-1.9,4.4,0,8c1.5,2.7,0,6.3,0,6.4c-0.2,0.5,0,1.1,0.5,1.3
		c0.1,0.1,0.3,0.1,0.4,0.1c0.4,0,0.8-0.2,0.9-0.6c0.1-0.2,1.9-4.5,0-8.1C5.3,18.8,6.8,15.3,6.8,15.2z"/>
	<path d="M10.6,15.2c0.2-0.5,0-1.1-0.5-1.3c-0.5-0.2-1.1,0-1.3,0.5c-0.1,0.2-1.9,4.4,0,8c1.5,2.7,0,6.3,0,6.4
		c-0.2,0.5,0,1.1,0.5,1.3c0.1,0.1,0.3,0.1,0.4,0.1c0.4,0,0.8-0.2,0.9-0.6c0.1-0.2,1.9-4.5,0-8.1C9.1,18.8,10.6,15.3,10.6,15.2z"/>
</g>
</svg>
