<?xml version="1.0" encoding="utf-8"?>
<!-- Generator: Adobe Illustrator 18.0.0, SVG Export Plug-In . SVG Version: 6.00 Build 0)  -->
<!DOCTYPE svg PUBLIC "-//W3C//DTD SVG 1.1//EN" "http://www.w3.org/Graphics/SVG/1.1/DTD/svg11.dtd">
<svg version="1.1" id="Layer_1" xmlns="http://www.w3.org/2000/svg" xmlns:xlink="http://www.w3.org/1999/xlink" x="0px" y="0px"
	 viewBox="0 0 35.1 31" enable-background="new 0 0 35.1 31" xml:space="preserve">
<g>
	<path d="M17.3,20.7h11c0,0,0,0,0,0c0.6,0,1-0.4,1-1c0-0.1,0-0.1,0-0.2C29.2,2.4,17.6,0,17.5,0c-0.3-0.1-0.6,0-0.8,0.2
		c-0.2,0.2-0.4,0.5-0.4,0.8v18.7C16.3,20.2,16.8,20.7,17.3,20.7z M18.3,2.4c2.6,1,8.6,4.7,9,16.3h-9V2.4z"/>
	<path d="M5.7,20.7h8.1c0.6,0,1-0.4,1-1V5.9c0-0.3-0.1-0.6-0.4-0.8c-0.2-0.2-0.5-0.3-0.8-0.2c-0.1,0-8.9,1.9-8.9,14.8
		C4.7,20.2,5.1,20.7,5.7,20.7z M12.8,7.3v11.4H6.7C7,11,10.8,8.2,12.8,7.3z"/>
	<path d="M35,23.1c-0.2-0.3-0.5-0.4-0.8-0.4H1c-0.3,0-0.7,0.2-0.8,0.5c-0.2,0.3-0.2,0.6-0.1,1c0.7,1.5,2.3,5.1,2.5,5.5
		c0.5,0.9,1.6,1.4,3,1.4c1.4,0,2-0.6,2.8-1.1c0.7-0.6,1.5-1.2,3-1.2c1.5,0,2.2,0.6,3,1.2C15,30.4,15.6,31,17,31s2-0.6,2.8-1.1
		c0.7-0.6,1.5-1.2,3-1.2c1.5,0,2.2,0.6,3,1.2c0.7,0.6,1.4,1.1,2.8,1.1c1.3,0,2-0.6,2.6-1.1c0,0,0.1-0.1,0.1-0.1
		c2.4-2.3,3.8-5.6,3.8-5.7C35.2,23.8,35.1,23.4,35,23.1z M29.9,28.3c-0.6,0.5-0.8,0.6-1.4,0.6c-0.7,0-0.9-0.2-1.5-0.7
		c-0.8-0.7-2-1.7-4.2-1.7c-2.2,0-3.4,1-4.2,1.7C17.9,28.8,17.7,29,17,29c-0.7,0-0.9-0.2-1.5-0.7c-0.8-0.7-2-1.7-4.2-1.7
		c-2.2,0-3.4,1-4.2,1.7C6.4,28.8,6.2,29,5.6,29c-0.7,0-1.2-0.3-1.3-0.4c-0.1-0.2-0.9-2-1.8-3.9h30C31.9,25.7,31,27.2,29.9,28.3z"/>
</g>
</svg>
