<?xml version="1.0" encoding="utf-8"?>
<!-- Generator: Adobe Illustrator 18.0.0, SVG Export Plug-In . SVG Version: 6.00 Build 0)  -->
<!DOCTYPE svg PUBLIC "-//W3C//DTD SVG 1.1//EN" "http://www.w3.org/Graphics/SVG/1.1/DTD/svg11.dtd">
<svg version="1.1" id="Layer_1" xmlns="http://www.w3.org/2000/svg" xmlns:xlink="http://www.w3.org/1999/xlink" x="0px" y="0px"
	 viewBox="0 0 32.1 32.1" enable-background="new 0 0 32.1 32.1" xml:space="preserve">
<path d="M29.1,0.1h-26c-1.7,0-3,1.3-3,3v26c0,1.7,1.3,3,3,3h26c1.7,0,3-1.3,3-3v-26C32.1,1.4,30.7,0.1,29.1,0.1z M30.1,29.1
	c0,0.6-0.4,1-1,1h-26c-0.6,0-1-0.4-1-1v-26c0-0.6,0.4-1,1-1h26c0.6,0,1,0.4,1,1V29.1z M16.1,6.1h-7c-0.6,0-1,0.4-1,1v18
	c0,0.6,0.4,1,1,1s1-0.4,1-1v-3h5.7c4.2,0,7.9-3.2,8.3-7.2c0.2-2.3-0.5-4.5-2-6.2C20.5,7,18.3,6.1,16.1,6.1z M22,14.7
	c-0.3,3-3,5.4-6.3,5.4h-5.7v-12h6c1.7,0,3.3,0.7,4.4,2C21.7,11.3,22.2,13,22,14.7z"/>
</svg>
