<?xml version="1.0" encoding="utf-8"?>
<!-- Generator: Adobe Illustrator 18.0.0, SVG Export Plug-In . SVG Version: 6.00 Build 0)  -->
<!DOCTYPE svg PUBLIC "-//W3C//DTD SVG 1.1//EN" "http://www.w3.org/Graphics/SVG/1.1/DTD/svg11.dtd">
<svg version="1.1" id="Layer_1" xmlns="http://www.w3.org/2000/svg" xmlns:xlink="http://www.w3.org/1999/xlink" x="0px" y="0px"
	 viewBox="0 0 32 27" enable-background="new 0 0 32 27" xml:space="preserve">
<path d="M29,0H3C1.3,0,0,1.3,0,3v23c0,0.6,0.4,1,1,1s1-0.4,1-1v-4h28v4c0,0.6,0.4,1,1,1s1-0.4,1-1V3C32,1.3,30.7,0,29,0z M30,20H2
	v-6h28V20z M7.2,12c0.4-1,1.4-1.8,2.6-1.8s2.2,0.7,2.6,1.8H7.2z M19.7,12c0.4-1,1.4-1.8,2.6-1.8s2.2,0.7,2.6,1.8H19.7z M30,12h-3.1
	c-0.5-2.1-2.4-3.8-4.6-3.8s-4.2,1.6-4.6,3.8h-3.2C13.9,9.9,12,8.2,9.8,8.2S5.6,9.9,5.1,12H2V3c0-0.6,0.4-1,1-1h26c0.6,0,1,0.4,1,1
	V12z"/>
</svg>
