<?xml version="1.0" encoding="utf-8"?>
<!-- Generator: Adobe Illustrator 18.0.0, SVG Export Plug-In . SVG Version: 6.00 Build 0)  -->
<!DOCTYPE svg PUBLIC "-//W3C//DTD SVG 1.1//EN" "http://www.w3.org/Graphics/SVG/1.1/DTD/svg11.dtd">
<svg version="1.1" id="Layer_1" xmlns="http://www.w3.org/2000/svg" xmlns:xlink="http://www.w3.org/1999/xlink" x="0px" y="0px"
	 viewBox="0 0 28.6 33.1" enable-background="new 0 0 28.6 33.1" xml:space="preserve">
<path d="M25.2,0c-1.9,0-3.4,1.5-3.4,3.4v10.8H1c-0.6,0-1,0.4-1,1c0,5.7,3.7,9.5,9.9,10v6.9c0,0.6,0.4,1,1,1h11.4
	c0.4,0,0.7-0.2,0.9-0.5c0.2-0.3,0.1-0.7-0.1-1c-1.4-1.8-1.9-3.6-1.5-5.3c0.4-1.8,1.7-3.2,2.6-4l1,0c1.9,0,3.4-1.5,3.4-3.4V3.4
	C28.6,1.5,27.1,0,25.2,0z M20.5,31.1h-8.6v-5.9c2.7-0.1,5.3-1.2,7.3-3.1l2.3,0c-0.8,1-1.5,2.2-1.8,3.6
	C19.3,27.5,19.6,29.3,20.5,31.1z M26.6,18.8c0,0.8-0.6,1.4-1.4,1.4l-6.4,0c0,0,0,0,0,0c-0.3,0-0.5,0.1-0.7,0.3
	c-1.8,1.8-4.1,2.8-6.7,2.8c-5.4,0-8.8-2.6-9.3-7h20.7c0.6,0,1-0.4,1-1V3.4c0-0.8,0.6-1.4,1.4-1.4s1.4,0.6,1.4,1.4V18.8z"/>
</svg>
