<?xml version="1.0" encoding="utf-8"?>
<!-- Generator: Adobe Illustrator 18.0.0, SVG Export Plug-In . SVG Version: 6.00 Build 0)  -->
<!DOCTYPE svg PUBLIC "-//W3C//DTD SVG 1.1//EN" "http://www.w3.org/Graphics/SVG/1.1/DTD/svg11.dtd">
<svg version="1.1" id="Layer_1" xmlns="http://www.w3.org/2000/svg" xmlns:xlink="http://www.w3.org/1999/xlink" x="0px" y="0px"
	 viewBox="0 0 32 25" enable-background="new 0 0 32 25" xml:space="preserve">
<g>
	<path d="M29.1,0H2.9C1.3,0,0,1.3,0,2.9v15.3C0,19.7,1.3,21,2.9,21H4v3c0,0.6,0.4,1,1,1s1-0.4,1-1v-3h17h2h1v3c0,0.6,0.4,1,1,1
		s1-0.4,1-1v-3h1.1c1.6,0,2.9-1.3,2.9-2.9V2.9C32,1.3,30.7,0,29.1,0z M2.9,19C2.4,19,2,18.6,2,18.1V2.9C2,2.4,2.4,2,2.9,2H23v17H2.9
		z M30,18.1c0,0.5-0.4,0.9-0.9,0.9H25V2h4.1C29.6,2,30,2.4,30,2.9V18.1z"/>
	<path d="M12.6,4.5c-5.3,0-9.4,2.7-9.4,6.2s4.1,6.2,9.4,6.2c5.3,0,9.4-2.7,9.4-6.2S17.8,4.5,12.6,4.5z M12.6,14.8
		c-4,0-7.4-1.9-7.4-4.2s3.4-4.2,7.4-4.2s7.4,1.9,7.4,4.2S16.6,14.8,12.6,14.8z"/>
	<circle cx="27.4" cy="6.6" r="1.1"/>
	<circle cx="27.4" cy="10.6" r="1.1"/>
	<circle cx="27.4" cy="14.6" r="1.1"/>
</g>
</svg>
