<?xml version="1.0" encoding="utf-8"?>
<!-- Generator: Adobe Illustrator 18.0.0, SVG Export Plug-In . SVG Version: 6.00 Build 0)  -->
<!DOCTYPE svg PUBLIC "-//W3C//DTD SVG 1.1//EN" "http://www.w3.org/Graphics/SVG/1.1/DTD/svg11.dtd">
<svg version="1.1" id="Layer_1" xmlns="http://www.w3.org/2000/svg" xmlns:xlink="http://www.w3.org/1999/xlink" x="0px" y="0px"
	 viewBox="0 0 32 32" enable-background="new 0 0 32 32" xml:space="preserve">
<path d="M15.3,25.7c0.2,0.2,0.5,0.3,0.7,0.3c0.3,0,0.5-0.1,0.7-0.3c0.4-0.4,0.4-1,0-1.4c-2.9-2.9-2.9-7.7,0-10.6
	c3.7-3.7,3.7-9.7,0-13.4c-0.4-0.4-1-0.4-1.4,0c-0.4,0.4-0.4,1,0,1.4c2.9,2.9,2.9,7.7,0,10.6C11.6,16,11.6,22,15.3,25.7z M23.3,25.7
	c0.2,0.2,0.5,0.3,0.7,0.3c0.3,0,0.5-0.1,0.7-0.3c0.4-0.4,0.4-1,0-1.4c-2.9-2.9-2.9-7.7,0-10.6c3.7-3.7,3.7-9.7,0-13.4
	c-0.4-0.4-1-0.4-1.4,0c-0.4,0.4-0.4,1,0,1.4c2.9,2.9,2.9,7.7,0,10.6C19.6,16,19.6,22,23.3,25.7z M27,19.8c-0.5-0.2-1.1,0-1.3,0.6
	c-0.2,0.5,0,1.1,0.6,1.3c2.4,0.9,3.8,2.2,3.8,3.3c0,1.1-1.4,2.4-3.8,3.3c-5.6,2.3-14.8,2.3-20.5,0C3.4,27.4,2,26.1,2,25
	c0-1,1.1-2.1,3-3c0.5,1.4,1.2,2.6,2.3,3.7C7.5,25.9,7.7,26,8,26c0.3,0,0.5-0.1,0.7-0.3c0.4-0.4,0.4-1,0-1.4c-2.9-2.9-2.9-7.7,0-10.6
	c3.7-3.7,3.7-9.7,0-13.4c-0.4-0.4-1-0.4-1.4,0c-0.4,0.4-0.4,1,0,1.4c2.9,2.9,2.9,7.7,0,10.6c-2.1,2.1-3,5-2.7,7.7
	c-2.9,1.3-4.6,3-4.6,5c0,2,1.8,3.9,5,5.2c3,1.2,7,1.8,11,1.8c4,0,8-0.6,11-1.8c3.2-1.3,5-3.1,5-5.2C32,23,30.2,21.1,27,19.8z"/>
</svg>
