<?xml version="1.0" encoding="utf-8"?>
<!-- Generator: Adobe Illustrator 18.0.0, SVG Export Plug-In . SVG Version: 6.00 Build 0)  -->
<!DOCTYPE svg PUBLIC "-//W3C//DTD SVG 1.1//EN" "http://www.w3.org/Graphics/SVG/1.1/DTD/svg11.dtd">
<svg version="1.1" id="Layer_1" xmlns="http://www.w3.org/2000/svg" xmlns:xlink="http://www.w3.org/1999/xlink" x="0px" y="0px"
	 viewBox="0 0 31.7 30.4" enable-background="new 0 0 31.7 30.4" xml:space="preserve">
<path d="M30.3,24h-29c-0.6,0-1,0.4-1,1v4.2c0,0.6,0.4,1,1,1h29c0.6,0,1-0.4,1-1V25C31.3,24.5,30.9,24,30.3,24z M9.7,28.2H2.3V26h7.4
	V28.2z M29.3,28.2H11.7V26h17.6V28.2z M2,3.7c0.8-0.5,1.6-0.9,2.6-1.1c0.5-0.1,1-0.2,1.6-0.2c1.4,0,2.7,0.4,3.8,1.1
	C8,4.5,6.4,5.9,5.2,7.7c0,0,0,0,0,0c0,0,0,0,0,0c-0.4,0.7-0.9,2-0.9,3c0,3,2.5,5.5,5.5,5.5c2.4,0,4.5-1.6,5.3-4c0,0,0,0,0,0
	c0,0,0,0,0,0c0.2-0.8,0.3-1.6,0.3-2.5c0-2-0.6-3.8-1.7-5.3c0.4,0,0.7-0.1,1.1-0.1c3.4,0,6.4,1.9,8,4.6c-3.4,0-6.4,2-7.7,5.1
	c0,0,0,0,0,0c0,0,0,0,0,0c-0.3,0.7-0.4,1.5-0.4,2.2c0,3,2.4,5.4,5.4,5.4c1.9,0,3.7-1,4.6-2.6c0-0.1,0.1-0.1,0.1-0.2
	c0.9-1.6,1.3-3.4,1.3-5.3c0-0.7-0.1-1.3-0.2-1.9c2,1.1,3.3,3.2,3.3,5.6l0,3.4c0,0.6,0.4,1,1,1c0.6,0,1-0.4,1-1l0-3.4
	c0-3.8-2.5-7-6-8c-1.7-4.1-5.8-7-10.5-7c-0.9,0-1.8,0.1-2.7,0.3c-1.6-1.4-3.8-2.3-6.1-2.3c-0.7,0-1.3,0.1-2,0.2
	C2.9,0.9,1.8,1.4,0.8,2.1C0.4,2.4,0.3,3,0.6,3.5C0.9,3.9,1.5,4.1,2,3.7z M23.8,11.1c0.3,0.8,0.4,1.7,0.4,2.7c0,1.6-0.4,3-1.1,4.3
	c0,0,0,0,0,0.1c-0.6,1-1.7,1.7-2.9,1.7c-1.9,0-3.4-1.5-3.4-3.4c0-0.4,0.1-1,0.3-1.4c0,0,0,0,0,0c0,0,0,0,0,0c0.4-1,0.8-1.9,1.7-2.5
	C20.4,11.2,22.2,10.9,23.8,11.1z M13.4,9.8c0,0.7-0.1,1.3-0.3,1.9c-0.5,1.6-1.8,2.6-3.3,2.6c-1.9,0-3.5-1.6-3.5-3.5
	c0-0.5,0.3-1.5,0.6-2.1C8.1,7,9.7,5.7,11.6,5C12.7,6.3,13.4,8,13.4,9.8z"/>
</svg>
