<?xml version="1.0" encoding="utf-8"?>
<!-- Generator: Adobe Illustrator 18.0.0, SVG Export Plug-In . SVG Version: 6.00 Build 0)  -->
<!DOCTYPE svg PUBLIC "-//W3C//DTD SVG 1.1//EN" "http://www.w3.org/Graphics/SVG/1.1/DTD/svg11.dtd">
<svg version="1.1" id="Layer_1" xmlns="http://www.w3.org/2000/svg" xmlns:xlink="http://www.w3.org/1999/xlink" x="0px" y="0px"
	 viewBox="0 0 30 31.7" enable-background="new 0 0 30 31.7" xml:space="preserve">
<g>
	<circle cx="22.5" cy="27.7" r="1"/>
	<circle cx="19.5" cy="27.7" r="1"/>
	<circle cx="16.5" cy="27.7" r="1"/>
	<circle cx="13.5" cy="27.7" r="1"/>
	<circle cx="10.5" cy="27.7" r="1"/>
	<circle cx="7.5" cy="27.7" r="1"/>
	<path d="M27.3,0H2.7C1.2,0,0,1.2,0,2.7v16.7C0,20.8,1.2,22,2.7,22h24.7c1.5,0,2.7-1.2,2.7-2.7V2.7C30,1.2,28.8,0,27.3,0z M28,19.3
		c0,0.4-0.3,0.7-0.7,0.7H2.7C2.3,20,2,19.7,2,19.3V2.7C2,2.3,2.3,2,2.7,2h24.7C27.7,2,28,2.3,28,2.7V19.3z"/>
	<path d="M23.9,3.5H6.1C4.9,3.5,4,4.4,4,5.6v10.8c0,1.2,0.9,2.1,2.1,2.1h17.8c1.2,0,2.1-0.9,2.1-2.1V5.6C26,4.4,25.1,3.5,23.9,3.5z
		 M24,16.4c0,0.1,0,0.1-0.1,0.1H6.1c-0.1,0-0.1,0-0.1-0.1V5.6c0-0.1,0-0.1,0.1-0.1h17.8c0.1,0,0.1,0,0.1,0.1V16.4z"/>
	<path d="M25.5,24.5c-0.5-0.6-1.2-0.9-1.9-0.9H6.4c-0.7,0-1.4,0.3-1.9,0.9L2,27.6c-0.6,0.8-0.7,1.8-0.3,2.6c0.4,0.9,1.3,1.4,2.3,1.4
		h22.2c1,0,1.8-0.5,2.3-1.4c0.4-0.9,0.3-1.9-0.3-2.6L25.5,24.5z M26.5,29.4c0,0.1-0.2,0.3-0.4,0.3H3.9c-0.3,0-0.4-0.2-0.4-0.3
		c0-0.1-0.1-0.3,0.1-0.5l2.5-3.1c0.1-0.1,0.2-0.2,0.4-0.2h17.1c0.1,0,0.3,0.1,0.4,0.2l2.5,3.1C26.7,29.1,26.6,29.3,26.5,29.4z"/>
</g>
</svg>
