<?xml version="1.0" encoding="utf-8"?>
<!-- Generator: Adobe Illustrator 18.0.0, SVG Export Plug-In . SVG Version: 6.00 Build 0)  -->
<!DOCTYPE svg PUBLIC "-//W3C//DTD SVG 1.1//EN" "http://www.w3.org/Graphics/SVG/1.1/DTD/svg11.dtd">
<svg version="1.1" id="Layer_1" xmlns="http://www.w3.org/2000/svg" xmlns:xlink="http://www.w3.org/1999/xlink" x="0px" y="0px"
	 viewBox="0 0 30.3 24.2" enable-background="new 0 0 30.3 24.2" xml:space="preserve">
<g>
	<path d="M13.2,19.1c-0.6,0.6-0.9,1.3-0.9,2.1c0,0.8,0.3,1.6,0.9,2.1c0.6,0.6,1.3,0.9,2.1,0.9s1.6-0.3,2.1-0.9
		c0.6-0.6,0.9-1.3,0.9-2.1c0-0.8-0.3-1.6-0.9-2.1C16.3,17.9,14.4,17.9,13.2,19.1z M16,21.9c-0.4,0.4-1,0.4-1.4,0
		c-0.2-0.2-0.3-0.4-0.3-0.7s0.1-0.5,0.3-0.7c0.2-0.2,0.4-0.3,0.7-0.3s0.5,0.1,0.7,0.3c0.2,0.2,0.3,0.4,0.3,0.7S16.2,21.7,16,21.9z"
		/>
	<path d="M15.3,12c-2.5,0-4.8,1-6.5,2.7c-0.2,0.2-0.4,0.5-0.4,0.8c0,0.3,0.1,0.6,0.4,0.8c0.5,0.5,1.2,0.5,1.7,0c1.3-1.3,3-2,4.8-2
		s3.5,0.7,4.8,2c0.2,0.2,0.5,0.4,0.8,0.4s0.6-0.1,0.8-0.4c0.2-0.2,0.4-0.5,0.4-0.8c0-0.3-0.1-0.6-0.4-0.8C20.1,13,17.8,12,15.3,12z"
		/>
	<path d="M15.3,6c-4.1,0-7.9,1.6-10.7,4.5c-0.5,0.5-0.5,1.2,0,1.7c0.2,0.2,0.5,0.4,0.8,0.4s0.6-0.1,0.8-0.4c2.4-2.4,5.6-3.7,9.1-3.7
		s6.6,1.3,9.1,3.7c0.5,0.5,1.2,0.5,1.7,0c0.5-0.5,0.5-1.2,0-1.7C23.2,7.6,19.4,6,15.3,6z"/>
	<path d="M30.3,6.2c-4-4-9.3-6.2-15-6.2s-11,2.2-15,6.2c-0.5,0.5-0.5,1.2,0,1.7c0.5,0.5,1.2,0.5,1.7,0c3.6-3.6,8.3-5.5,13.3-5.5
		s9.7,2,13.3,5.5c0.2,0.2,0.5,0.4,0.8,0.4s0.6-0.1,0.8-0.4C30.8,7.4,30.8,6.7,30.3,6.2z"/>
</g>
</svg>
