<?xml version="1.0" encoding="utf-8"?>
<!-- Generator: Adobe Illustrator 18.0.0, SVG Export Plug-In . SVG Version: 6.00 Build 0)  -->
<!DOCTYPE svg PUBLIC "-//W3C//DTD SVG 1.1//EN" "http://www.w3.org/Graphics/SVG/1.1/DTD/svg11.dtd">
<svg version="1.1" id="Layer_1" xmlns="http://www.w3.org/2000/svg" xmlns:xlink="http://www.w3.org/1999/xlink" x="0px" y="0px"
	 viewBox="0 0 29.6 28.2" enable-background="new 0 0 29.6 28.2" xml:space="preserve">
<path d="M26.3,5.2h-6.4v0c0-2.8-2.3-5.1-5.1-5.1S9.7,2.3,9.7,5.1v0H3.2C1.5,5.2,0,6.6,0,8.4V25c0,1.8,1.5,3.2,3.2,3.2h23.1
	c1.8,0,3.2-1.5,3.2-3.2V8.4C29.6,6.6,28.1,5.2,26.3,5.2z M20.8,7.4V26h-12V7.4H20.8z M11.7,5.1c0-1.7,1.4-3.1,3.1-3.1
	s3.1,1.4,3.1,3.1v0L11.7,5.1L11.7,5.1z M2.2,25V8.4c0-0.6,0.5-1,1-1h3.5V26H3.2C2.7,26,2.2,25.6,2.2,25z M27.3,25c0,0.6-0.5,1-1,1
	h-3.5V7.4h3.5c0.6,0,1,0.5,1,1V25z"/>
</svg>
