<?xml version="1.0" encoding="utf-8"?>
<!-- Generator: Adobe Illustrator 18.0.0, SVG Export Plug-In . SVG Version: 6.00 Build 0)  -->
<!DOCTYPE svg PUBLIC "-//W3C//DTD SVG 1.1//EN" "http://www.w3.org/Graphics/SVG/1.1/DTD/svg11.dtd">
<svg version="1.1" id="Layer_1" xmlns="http://www.w3.org/2000/svg" xmlns:xlink="http://www.w3.org/1999/xlink" x="0px" y="0px"
	 viewBox="0 0 29.7 29.7" enable-background="new 0 0 29.7 29.7" xml:space="preserve">
<path d="M29.5,21.9l-0.1-0.4c-0.5-1.5-2-3-3.6-3.4l-3.4-0.9C22,17.1,21.6,17,21.2,17c-1.4,0-2.8,0.5-3.6,1.4l-0.4,0.4
	c-2.9-1.1-5.2-3.4-6.3-6.3l0.4-0.4c1.2-1.2,1.7-3.2,1.3-4.8l-0.9-3.4c-0.4-1.6-1.8-3.1-3.4-3.6L7.9,0.2C7.4,0.1,6.9,0,6.5,0
	C5.1,0,3.8,0.5,2.9,1.4L1.1,3.2C0.3,4,0,5.6,0,5.9c-0.1,6.3,2.5,12.5,6.9,16.9c4.4,4.4,10.5,6.9,16.7,6.9l0.2,0
	c0.3,0,1.9-0.3,2.7-1.1l1.8-1.8C29.5,25.6,30,23.5,29.5,21.9z M26.9,25.3l-1.8,1.8c-0.3,0.3-1.3,0.5-1.3,0.5c-0.1,0-0.1,0-0.2,0
	c-5.7,0-11.2-2.3-15.3-6.3C4.2,17.3,1.9,11.7,2,5.9c0,0,0.2-0.9,0.5-1.3l1.8-1.8C4.9,2.3,5.7,2,6.5,2C6.7,2,7,2,7.2,2.1l0.4,0.1
	c0.9,0.3,1.8,1.3,2.1,2.2l0.9,3.4c0.2,0.9-0.1,2.2-0.8,2.9l-1.2,1.2c1.2,4.4,4.7,7.9,9.1,9.1l1.2-1.2c0.5-0.5,1.4-0.8,2.2-0.8
	c0.2,0,0.5,0,0.7,0.1l3.4,0.9c0.9,0.3,1.9,1.2,2.2,2.1l0.1,0.4C27.9,23.4,27.6,24.7,26.9,25.3z"/>
</svg>
