<?xml version="1.0" encoding="utf-8"?>
<!-- Generator: Adobe Illustrator 18.0.0, SVG Export Plug-In . SVG Version: 6.00 Build 0)  -->
<!DOCTYPE svg PUBLIC "-//W3C//DTD SVG 1.1//EN" "http://www.w3.org/Graphics/SVG/1.1/DTD/svg11.dtd">
<svg version="1.1" id="Layer_1" xmlns="http://www.w3.org/2000/svg" xmlns:xlink="http://www.w3.org/1999/xlink" x="0px" y="0px"
	 viewBox="0 0 32 28.1" enable-background="new 0 0 32 28.1" xml:space="preserve">
<g>
	<path d="M31,16.1H20.5l0,0c1.4-1.7,2.2-3.9,2.2-6.2c0-5.5-4.4-9.9-9.9-9.9S2.9,4.4,2.9,9.9c0,2.3,0.8,4.5,2.2,6.2l0,0H1
		c-0.6,0-1,0.4-1,1v10c0,0.6,0.4,1,1,1h30c0.6,0,1-0.4,1-1v-10C32,16.6,31.6,16.1,31,16.1z M12.8,2c4.4,0,7.9,3.6,7.9,7.9
		s-3.6,7.9-7.9,7.9s-7.9-3.6-7.9-7.9S8.4,2,12.8,2z M30,26.1H2v-8h5.2c1.6,1.1,3.5,1.7,5.6,1.7s4-0.6,5.6-1.7H30V26.1z"/>
	<path d="M12.8,13.4c1.9,0,3.5-1.6,3.5-3.5c0-1.9-1.6-3.5-3.5-3.5c-1.9,0-3.5,1.6-3.5,3.5C9.3,11.9,10.9,13.4,12.8,13.4z M12.8,8.4
		c0.8,0,1.5,0.7,1.5,1.5c0,0.8-0.7,1.5-1.5,1.5c-0.8,0-1.5-0.7-1.5-1.5C11.3,9.1,12,8.4,12.8,8.4z"/>
	<path d="M16.8,21.1h-12c-0.6,0-1,0.4-1,1s0.4,1,1,1h12c0.6,0,1-0.4,1-1S17.4,21.1,16.8,21.1z"/>
	<circle cx="20.9" cy="22.1" r="1"/>
	<circle cx="23.9" cy="22.1" r="1"/>
	<circle cx="26.9" cy="22.1" r="1"/>
</g>
</svg>
