<?xml version="1.0" encoding="utf-8"?>
<!-- Generator: Adobe Illustrator 18.0.0, SVG Export Plug-In . SVG Version: 6.00 Build 0)  -->
<!DOCTYPE svg PUBLIC "-//W3C//DTD SVG 1.1//EN" "http://www.w3.org/Graphics/SVG/1.1/DTD/svg11.dtd">
<svg version="1.1" id="Layer_1" xmlns="http://www.w3.org/2000/svg" xmlns:xlink="http://www.w3.org/1999/xlink" x="0px" y="0px"
	 viewBox="0 0 26.9 34" enable-background="new 0 0 26.9 34" xml:space="preserve">
<g>
	<path d="M26.9,15.2c0-7.3-5.2-12.8-12.3-13.3V1c0-0.6-0.4-1-1-1s-1,0.4-1,1v0.9C5.5,2.4,0.2,7.9,0.2,15.2c0,0,0,0.1,0,0.1
		c0,0.1,0,0.2,0,0.2c0,0,0,0.1,0,0.1c0,0.1,0.1,0.2,0.2,0.2c0,0,0,0,0.1,0.1c0,0,0.1,0.1,0.1,0.1c0.2,0.1,0.4,0.2,0.6,0.2
		c0.3,0,0.6-0.2,0.8-0.4c0,0,0.7-1.1,1.9-1.2c0.8-0.1,1.7,0.3,2.6,1.2c0.1,0.1,0.2,0.2,0.3,0.3c0.2,0.1,0.4,0.2,0.6,0.2c0,0,0,0,0,0
		c0,0,0.1,0,0.1,0c0,0,0.1,0,0.1,0c0.2,0,0.4-0.1,0.5-0.3c0.1-0.1,0.2-0.2,0.2-0.3c0.3-0.3,0.9-0.9,1.7-1c0.8-0.1,1.6,0.3,2.5,1.1
		V25c0,0.6,0.4,1,1,1s1-0.4,1-1v-9.5c0.3-0.3,0.9-0.9,1.7-0.9c0.8-0.1,1.7,0.3,2.6,1.2c0.1,0.1,0.2,0.2,0.3,0.3
		c0.2,0.1,0.4,0.2,0.6,0.2c0,0,0,0,0,0c0,0,0.1,0,0.1,0c0,0,0.1,0,0.1,0c0.2,0,0.4-0.1,0.5-0.3c0.1-0.1,0.2-0.2,0.2-0.3
		c0.3-0.3,0.9-0.9,1.7-1c0.9-0.1,1.8,0.4,2.8,1.3c0.4,0.4,1,0.4,1.4,0C26.8,15.7,26.9,15.4,26.9,15.2C26.9,15.2,26.9,15.2,26.9,15.2
		z M22.2,12.6c-1.1,0.1-2,0.7-2.6,1.2c-1.2-0.9-2.4-1.3-3.6-1.2c-1.1,0.1-2,0.7-2.6,1.2c-1.2-0.9-2.4-1.3-3.6-1.2
		c-1.1,0.1-2,0.7-2.6,1.2c-1.2-0.9-2.4-1.3-3.6-1.2c-0.5,0.1-0.9,0.2-1.3,0.4c0.9-5.4,5.3-9.1,11.1-9.1c5.9,0,10.3,3.8,11.2,9.3
		C23.9,12.7,23.1,12.5,22.2,12.6z"/>
	<path d="M25.6,26c-1.4,0-2.2,0.7-2.7,1.3c-0.5,0.5-0.7,0.7-1.3,0.7s-0.8-0.2-1.3-0.7C19.7,26.7,19,26,17.6,26
		c-1.4,0-2.2,0.7-2.7,1.3c-0.5,0.5-0.7,0.7-1.3,0.7s-0.8-0.2-1.3-0.7C11.7,26.7,11,26,9.6,26c-1.4,0-2.2,0.7-2.7,1.3
		C6.4,27.8,6.1,28,5.6,28c-0.6,0-0.8-0.2-1.3-0.7C3.7,26.7,3,26,1.6,26c-0.6,0-1,0.4-1,1s0.4,1,1,1c0.6,0,0.8,0.2,1.3,0.7
		C3.4,29.3,4.2,30,5.6,30c1.4,0,2.2-0.7,2.7-1.3C8.8,28.2,9,28,9.6,28c0.6,0,0.8,0.2,1.3,0.7c0.5,0.5,1.3,1.3,2.7,1.3
		s2.2-0.7,2.7-1.3c0.5-0.5,0.7-0.7,1.3-0.7c0.6,0,0.8,0.2,1.3,0.7c0.5,0.5,1.3,1.3,2.7,1.3s2.2-0.7,2.7-1.3c0.5-0.5,0.7-0.7,1.3-0.7
		c0.6,0,1-0.4,1-1S26.1,26,25.6,26z"/>
	<path d="M25.6,30c-1.4,0-2.2,0.7-2.7,1.3c-0.5,0.5-0.7,0.7-1.3,0.7s-0.8-0.2-1.3-0.7C19.7,30.7,19,30,17.6,30
		c-1.4,0-2.2,0.7-2.7,1.3c-0.5,0.5-0.7,0.7-1.3,0.7s-0.8-0.2-1.3-0.7C11.7,30.7,11,30,9.6,30c-1.4,0-2.2,0.7-2.7,1.3
		C6.4,31.8,6.1,32,5.6,32c-0.6,0-0.8-0.2-1.3-0.7C3.7,30.7,3,30,1.6,30c-0.6,0-1,0.4-1,1s0.4,1,1,1c0.6,0,0.8,0.2,1.3,0.7
		C3.4,33.3,4.2,34,5.6,34c1.4,0,2.2-0.7,2.7-1.3C8.8,32.2,9,32,9.6,32c0.6,0,0.8,0.2,1.3,0.7c0.5,0.5,1.3,1.3,2.7,1.3
		s2.2-0.7,2.7-1.3c0.5-0.5,0.7-0.7,1.3-0.7c0.6,0,0.8,0.2,1.3,0.7c0.5,0.5,1.3,1.3,2.7,1.3s2.2-0.7,2.7-1.3c0.5-0.5,0.7-0.7,1.3-0.7
		c0.6,0,1-0.4,1-1S26.1,30,25.6,30z"/>
</g>
</svg>
