<?xml version="1.0" encoding="utf-8"?>
<!-- Generator: Adobe Illustrator 18.0.0, SVG Export Plug-In . SVG Version: 6.00 Build 0)  -->
<!DOCTYPE svg PUBLIC "-//W3C//DTD SVG 1.1//EN" "http://www.w3.org/Graphics/SVG/1.1/DTD/svg11.dtd">
<svg version="1.1" id="Layer_1" xmlns="http://www.w3.org/2000/svg" xmlns:xlink="http://www.w3.org/1999/xlink" x="0px" y="0px"
	 viewBox="0 0 32.3 25" enable-background="new 0 0 32.3 25" xml:space="preserve">
<g>
	<path d="M20.2,2.7C16.7,1.8,13.3,1,9.9,0.1C8.6-0.2,7.4-0.2,6.3,0C3.9,0.5,2,1.8,0.9,4c-1.5,2.9-1.1,6.2,1.1,8.7
		c0.5,1.2,0.8,2.4,0.7,3.5c-0.1,1.6-0.3,3.2-0.6,4.7c-0.3,1.6,0.5,2.9,2,3.4c0.6,0.2,1.1,0.3,1.7,0.3l0.5,0.1c0.5,0.1,1,0.2,1.5,0.2
		c0,0,0.1,0,0.1,0c1.1,0,1.5-0.6,1.7-1c0.5-0.9,0-1.6-0.2-1.9c-0.1-0.1-0.1-0.2-0.1-0.2l0,0c0-0.5,0-0.9,0.1-1.3
		c0.4-1.5,0.8-3,1.2-4.5c0.1-0.3,0.3-0.7,0.5-1c0.2-0.3,0.5-0.5,0.9-0.6c1.7-0.4,3.4-0.8,5.1-1.2l3.2-0.8c0.7-0.2,1.1-0.7,1.1-1.4
		c0-0.9,0-1.7,0-2.6l0-0.9l0-0.9c0-0.8,0-1.7,0-2.5C21.3,3.4,20.9,2.8,20.2,2.7z M7.9,24l0-0.9c0,0,0,0,0,0V24z M19.3,7.6l0,0.9
		c0,0.7,0,1.4,0,2.1l-2.8,0.7c-1.7,0.4-3.4,0.8-5.1,1.2c-0.8,0.2-1.5,0.7-2,1.4c-0.3,0.4-0.6,0.9-0.8,1.5c-0.4,1.6-0.9,3.1-1.2,4.6
		c-0.1,0.6-0.1,1.2-0.1,1.8c0,0.3,0.1,0.6,0.3,1c-0.3,0-0.6-0.1-1-0.1l-0.5-0.1c-0.5-0.1-1-0.1-1.4-0.3C4.1,22.3,3.9,22,4,21.3
		c0.3-1.6,0.5-3.3,0.6-4.9c0.1-1.5-0.2-2.9-0.9-4.5c-0.1-0.2-0.2-0.4-0.3-0.5C1.9,9.5,1.6,7.1,2.7,4.9c0.8-1.6,2.2-2.6,4-3
		c0.3-0.1,0.7-0.1,1-0.1c0.5,0,1,0.1,1.6,0.2c3.3,0.8,6.6,1.6,10,2.5c0,0.7,0,1.4,0,2.2L19.3,7.6z"/>
	<path d="M7.8,3.7C7.8,3.7,7.8,3.7,7.8,3.7c-2.2,0-3.9,1.8-3.9,3.9c0,1,0.4,2,1.1,2.8c0.7,0.8,1.7,1.2,2.8,1.2
		c2.2,0,3.9-1.8,3.9-3.9c0-1-0.4-2-1.1-2.8S8.8,3.7,7.8,3.7z M7.8,9.5c-0.5,0-1-0.2-1.4-0.6C6,8.6,5.8,8.1,5.8,7.6
		c0-1.1,0.9-1.9,1.9-1.9h0c0.5,0,1,0.2,1.4,0.6c0.4,0.4,0.6,0.8,0.6,1.4C9.7,8.6,8.8,9.5,7.8,9.5z"/>
	<path d="M23.2,4.2c0.5,0.2,1.2,0.4,1.9,0.4c1.1,0,2.3-0.4,3-1.8c0.6-1.2,1.9-0.7,2.2-0.5c0.5,0.2,1.1,0,1.3-0.5
		c0.2-0.5,0-1.1-0.5-1.3c-1.3-0.7-3.7-0.8-4.9,1.4c-0.6,1.2-2,0.7-2.3,0.5c-0.5-0.2-1.1,0-1.3,0.5C22.5,3.3,22.7,3.9,23.2,4.2z"/>
	<path d="M31.9,6.5c-1.1-1-3.4-1.8-5.1,0.1c-0.9,1-2.1,0.1-2.4-0.1c-0.4-0.4-1-0.3-1.4,0.1C22.7,7,22.8,7.6,23.2,8
		c0.6,0.5,1.6,1,2.7,1c0.8,0,1.7-0.3,2.4-1.1c0.9-1,2-0.2,2.3,0.1c0.4,0.4,1,0.3,1.4-0.1C32.4,7.5,32.3,6.8,31.9,6.5z"/>
	<path d="M26.7,11.3c-1.2,0.7-2.1-0.4-2.3-0.7c-0.3-0.5-0.9-0.6-1.4-0.3c-0.5,0.3-0.6,0.9-0.3,1.4c0.7,1.1,2.7,2.7,5,1.2
		c1.1-0.7,2,0.3,2.2,0.7c0.2,0.3,0.5,0.4,0.8,0.4c0.2,0,0.4-0.1,0.6-0.2c0.5-0.3,0.6-0.9,0.3-1.4C30.8,11.3,28.8,10,26.7,11.3z"/>
</g>
</svg>
