<?xml version="1.0" encoding="utf-8"?>
<!-- Generator: Adobe Illustrator 18.0.0, SVG Export Plug-In . SVG Version: 6.00 Build 0)  -->
<!DOCTYPE svg PUBLIC "-//W3C//DTD SVG 1.1//EN" "http://www.w3.org/Graphics/SVG/1.1/DTD/svg11.dtd">
<svg version="1.1" id="Layer_1" xmlns="http://www.w3.org/2000/svg" xmlns:xlink="http://www.w3.org/1999/xlink" x="0px" y="0px"
	 viewBox="0 0 33.2 32.8" enable-background="new 0 0 33.2 32.8" xml:space="preserve">
<path d="M32.4,17.9c1.3-3.1,0-6.8-3.1-8.4c-3.2-1.6-7.1-0.3-8.8,2.9c-0.4,0.8-0.6,1.6-0.7,2.5c0,0,0,0,0,0c0,0,0,0,0,0
	c0,0-0.4,3.4-0.6,8.1c0,0,0,0,0,0c-0.1,1.4-0.3,2.6-0.9,3.7c-1.9,3.5-6.3,4.8-9.8,2.9c-3.5-1.9-4.8-6.3-2.9-9.8
	c0.6-1.1,1.5-1.9,2.6-2.8c0,0,5.2-4,6.6-5.1c0.1-0.1,0.2-0.1,0.3-0.2c0,0,0.1-0.1,0.1-0.1c0,0,0,0,0.1-0.1c0.5-0.5,1-1,1.3-1.7
	c0.8-1.5,1-3.3,0.5-5c-0.5-1.7-1.6-3.1-3.1-3.9c-3-1.6-6.7-0.7-8.5,2.1c-0.1,0-0.2,0-0.3,0c-1.4,0-3,1.2-4,3
	c-1.3,2.4-1.1,4.9,0.5,5.8c0.3,0.2,0.7,0.3,1.1,0.3c1.4,0,3-1.2,4-3C7.4,8.1,7.7,7,7.7,6c0-0.7-0.2-1.3-0.5-1.7
	c0.6-0.9,1.4-1.5,2.4-1.8c1.2-0.3,2.4-0.2,3.4,0.4c1.1,0.6,1.8,1.5,2.2,2.7c0.3,1.2,0.2,2.4-0.4,3.4c-0.3,0.5-0.6,0.9-1,1.2
	c-0.1,0.1-0.2,0.2-0.3,0.2c-0.1,0.1-0.2,0.1-0.3,0.2c0,0-0.1,0.1-0.1,0.1c-2.3,1.8-6.1,4.7-6.1,4.7c-1.2,0.9-2.4,1.9-3.2,3.4
	C1.4,23.3,3.1,29,7.6,31.4c1.4,0.8,2.9,1.1,4.4,1.1c3.3,0,6.4-1.7,8.1-4.8c0.7-1.4,1-2.7,1.1-4.3c0,0,0.7-8.3,0.7-8.4
	c0-0.6,0.2-1.2,0.5-1.8c1.1-2.2,3.9-3.1,6.1-2c2,1,2.9,3.4,2.2,5.5c-0.1,0-0.1,0-0.2,0c-1.5,0-3,1.2-4,3.1c-1.2,2.5-1,4.9,0.7,5.7
	c0.3,0.2,0.7,0.3,1.1,0.3c1.5,0,3-1.2,4-3.1C33.1,20.9,33.1,19,32.4,17.9z M5.1,8.2c-0.8,1.4-2,2.1-2.4,1.9C2.3,9.9,2.1,8.6,3,7.1
	c0.7-1.3,1.7-2,2.2-2c0.1,0,0.1,0,0.2,0c0.2,0.1,0.3,0.4,0.3,0.9C5.7,6.7,5.5,7.5,5.1,8.2z M30.3,21.9c-0.8,1.6-2,2.2-2.3,2
	c-0.4-0.2-0.6-1.5,0.2-3.1c0.7-1.4,1.7-2,2.2-2c0.1,0,0.1,0,0.2,0C30.9,19,31.1,20.3,30.3,21.9z"/>
</svg>
