<?xml version="1.0" encoding="utf-8"?>
<!-- Generator: Adobe Illustrator 18.0.0, SVG Export Plug-In . SVG Version: 6.00 Build 0)  -->
<!DOCTYPE svg PUBLIC "-//W3C//DTD SVG 1.1//EN" "http://www.w3.org/Graphics/SVG/1.1/DTD/svg11.dtd">
<svg version="1.1" id="Layer_1" xmlns="http://www.w3.org/2000/svg" xmlns:xlink="http://www.w3.org/1999/xlink" x="0px" y="0px"
	 viewBox="0 1.6 50 46.7" enable-background="new 0 1.6 50 46.7" xml:space="preserve">
<path d="M40.2,21.8c-0.8-0.2-1.7,0.5-1.9,1.2l-0.6,3.4H12.2L11.6,23c-0.2-0.8-0.9-1.4-1.9-1.2c-0.8,0.2-1.4,0.9-1.3,1.9l3.9,23.4
	c0.2,0.8,0.8,1.2,1.6,1.2h21.9c0.8,0,1.4-0.6,1.6-1.2l3.9-23.4C41.6,22.7,40.9,22,40.2,21.8z M18.8,45.2h-3.4l-2.7-15.6h6.1V45.2z
	 M28.1,45.2h-6.2V29.6h6.2V45.2z M34.7,45.2h-3.4V29.6h5.9L34.7,45.2z M46.7,14.1c-2-2-4.7-3.1-7.7-3.1c-0.3,0-0.6,0-0.8,0
	c-1.9-5.6-7.2-9.4-13.1-9.4c-3.7,0-7.3,1.4-10,4.1C13.6,7.3,12.5,9,11.7,11c-3.1-0.2-6.3,0.9-8.4,3.1S0,19,0,22s1.1,5.6,3.3,7.7
	c0.3,0.3,0.8,0.5,1.1,0.5c0.5,0,0.8-0.2,1.1-0.5c0.6-0.6,0.6-1.6,0-2.2C3.9,26,3.1,24,3.1,22s0.8-4.1,2.3-5.5
	c1.4-1.6,3.4-2.3,5.5-2.3c0,0.5,0,0.9,0,1.4c0,0.9,0.6,1.6,1.6,1.6l0,0c0.8,0,1.6-0.6,1.6-1.6c0-2.8,1.1-5.6,3.3-7.7
	c2-2,4.8-3.1,7.7-3.1l0,0c4.5,0,8.6,2.8,10.2,7c-1.4,0.5-2.7,1.4-3.8,2.5c-0.6,0.6-0.6,1.6,0,2.2c0.6,0.6,1.6,0.6,2.2,0
	c1.1-1.1,2.3-1.9,3.9-2.2l0,0l0,0c0.5-0.2,1.1-0.2,1.6-0.2c2,0,4.1,0.8,5.5,2.3c1.4,1.4,2.3,3.4,2.3,5.5s-0.8,4.1-2.3,5.5
	c-0.6,0.6-0.6,1.6,0,2.2c0.3,0.3,0.8,0.5,1.1,0.5c0.5,0,0.8-0.2,1.1-0.5c2-2,3.3-4.8,3.3-7.7S48.9,16.3,46.7,14.1z"/>
</svg>
