<?xml version="1.0" encoding="utf-8"?>
<!-- Generator: Adobe Illustrator 18.0.0, SVG Export Plug-In . SVG Version: 6.00 Build 0)  -->
<!DOCTYPE svg PUBLIC "-//W3C//DTD SVG 1.1//EN" "http://www.w3.org/Graphics/SVG/1.1/DTD/svg11.dtd">
<svg version="1.1" id="Layer_1" xmlns="http://www.w3.org/2000/svg" xmlns:xlink="http://www.w3.org/1999/xlink" x="0px" y="0px"
	 viewBox="0 0 33.2 22.6" enable-background="new 0 0 33.2 22.6" xml:space="preserve">
<path d="M27.1,10.4c-0.3,0-0.5,0-0.8,0.1L23.8,2h1.3c0.6,0,1-0.4,1-1s-0.4-1-1-1h-6c-0.6,0-1,0.4-1,1s0.4,1,1,1h2.6l0.9,3.2H12.5
	V4.5h1c0.6,0,1-0.4,1-1s-0.4-1-1-1H9.4c-0.6,0-1,0.4-1,1s0.4,1,1,1h1.1v4.1L8.7,11c-0.8-0.4-1.7-0.6-2.6-0.6c-3.4,0-6.1,2.7-6.1,6.1
	c0,3.4,2.7,6.1,6.1,6.1c3.1,0,5.6-2.3,6-5.2h3.4c0.1,0,0.3,0,0.4-0.1c0,0,0.1,0,0.1-0.1c0.1-0.1,0.2-0.1,0.3-0.2c0,0,0,0,0,0
	l7.3-8.9l0.8,2.9c-2,1-3.4,3.1-3.4,5.5c0,3.4,2.7,6.1,6.1,6.1c3.4,0,6.1-2.7,6.1-6.1C33.2,13.1,30.5,10.4,27.1,10.4z M21.8,7.2
	l-6.1,7.4l-3.2-5.8V7.2H21.8z M11.3,10.8l2.5,4.6h-1.7c-0.2-1.3-0.9-2.4-1.7-3.3L11.3,10.8z M9.2,13.8c0.4,0.5,0.7,1,0.9,1.6H8
	L9.2,13.8z M6.1,20.6c-2.3,0-4.1-1.8-4.1-4.1s1.8-4.1,4.1-4.1c0.5,0,1,0.1,1.4,0.3l-2.3,3.2c0,0,0,0.1,0,0.1c0,0.1-0.1,0.1-0.1,0.2
	c0,0.1,0,0.1,0,0.2c0,0,0,0.1,0,0.1c0,0,0,0,0,0.1c0,0.1,0,0.1,0,0.2c0,0.1,0,0.1,0.1,0.2c0,0.1,0.1,0.1,0.1,0.1
	c0,0.1,0.1,0.1,0.1,0.2c0,0,0,0,0,0.1c0,0,0.1,0,0.1,0.1c0,0,0.1,0,0.1,0.1c0.1,0,0.2,0.1,0.3,0.1c0,0,0,0,0,0l0,0h4.1
	C9.7,19.2,8.1,20.6,6.1,20.6z M27.1,20.6c-2.3,0-4.1-1.8-4.1-4.1c0-1.5,0.8-2.8,2-3.5l1.1,3.7c0,0,0,0,0,0.1c0,0,0,0.1,0.1,0.1
	c0,0.1,0.1,0.1,0.1,0.2c0,0,0.1,0.1,0.1,0.1c0.1,0.1,0.1,0.1,0.2,0.1c0,0,0.1,0,0.1,0.1c0.1,0,0.2,0.1,0.4,0.1c0.1,0,0.2,0,0.3,0
	c0,0,0,0,0.1,0c0.1,0,0.1-0.1,0.2-0.1c0.1,0,0.1-0.1,0.2-0.1c0,0,0.1-0.1,0.1-0.1c0-0.1,0.1-0.1,0.1-0.2c0-0.1,0-0.1,0.1-0.2
	c0-0.1,0-0.1,0-0.2c0,0,0,0,0-0.1c0,0,0-0.1,0-0.1c0,0,0-0.1,0-0.1l-1.1-3.7c0.1,0,0.2,0,0.2,0c2.3,0,4.1,1.8,4.1,4.1
	S29.4,20.6,27.1,20.6z"/>
</svg>
