<?xml version="1.0" encoding="utf-8"?>
<!-- Generator: Adobe Illustrator 18.0.0, SVG Export Plug-In . SVG Version: 6.00 Build 0)  -->
<!DOCTYPE svg PUBLIC "-//W3C//DTD SVG 1.1//EN" "http://www.w3.org/Graphics/SVG/1.1/DTD/svg11.dtd">
<svg version="1.1" id="Layer_1" xmlns="http://www.w3.org/2000/svg" xmlns:xlink="http://www.w3.org/1999/xlink" x="0px" y="0px"
	 viewBox="0 0 32 32.2" enable-background="new 0 0 32 32.2" xml:space="preserve">
<path d="M5,21.3c0,0.6,0.4,1,1,1h20c0.6,0,1-0.4,1-1c0-0.6-0.4-1-1-1H6C5.4,20.3,5,20.8,5,21.3z M32,21.2c0-0.1,0-0.1,0-0.2
	c0-0.1,0-0.1-0.1-0.2c0,0,0,0,0-0.1l-5-8c-0.2-0.3-0.5-0.5-0.8-0.5h-6.9c0.5-2.3,2.5-4,4.9-4c2.8,0,5,2.2,5,5c0,0.6,0.4,1,1,1
	c0.6,0,1-0.4,1-1c0-2.8-1.7-5.2-4-6.3c0.6-0.7,1-1.6,1-2.7c0-2.2-1.8-4-4-4c-2.2,0-4,1.8-4,4c0,1,0.4,2,1,2.7c-2.1,1-3.6,3-4,5.3
	h-2.2C14.6,10,13.1,8,11,7c0.6-0.7,1-1.6,1-2.7c0-2.2-1.8-4-4-4c-2.2,0-4,1.8-4,4c0,1,0.4,2,1,2.7c-2.4,1.1-4,3.5-4,6.3
	c0,0.6,0.4,1,1,1c0.6,0,1-0.4,1-1c0-2.8,2.2-5,5-5c2.4,0,4.4,1.7,4.9,4H6c-0.3,0-0.7,0.2-0.8,0.5l-5,8c0,0,0,0,0,0.1
	c0,0.1-0.1,0.1-0.1,0.2c0,0.1,0,0.1,0,0.2c0,0,0,0,0,0.1v7c0,0.1,0,0.3,0.1,0.4c0.1,0.2,0.3,0.4,0.5,0.5c0.2,0.1,0.5,0.1,0.8,0
	c0.1-0.1,0.2-0.1,0.3-0.2c0.7-0.7,1.5-1.1,2.3-1.4v3.6c0,0.6,0.4,1,1,1c0.6,0,1-0.4,1-1v-4c1.6,0,3.1,0.6,4.3,1.8
	c0.2,0.2,0.5,0.3,0.7,0.3c0.3,0,0.5-0.1,0.7-0.3c2.4-2.4,6.2-2.4,8.6,0c0.2,0.2,0.5,0.3,0.7,0.3c0.3,0,0.5-0.1,0.7-0.3
	c1.2-1.2,2.7-1.8,4.3-1.8v4c0,0.6,0.4,1,1,1c0.6,0,1-0.4,1-1v-3.6c0.8,0.3,1.6,0.7,2.3,1.4c0.1,0.1,0.2,0.2,0.3,0.2
	c0.1,0.1,0.3,0.1,0.4,0.1c0.1,0,0.3,0,0.4-0.1c0.2-0.1,0.4-0.3,0.5-0.5c0.1-0.1,0.1-0.3,0.1-0.4L32,21.2C32,21.3,32,21.3,32,21.2z
	 M24,2.3c1.1,0,2,0.9,2,2c0,1.1-0.9,2-2,2c-1.1,0-2-0.9-2-2C22,3.2,22.9,2.3,24,2.3z M8,6.3c-1.1,0-2-0.9-2-2c0-1.1,0.9-2,2-2
	c1.1,0,2,0.9,2,2C10,5.4,9.1,6.3,8,6.3z M30,26.3c-1.2-0.7-2.6-1.1-4-1.1c-1.8,0-3.6,0.6-5,1.7c-1.4-1.1-3.2-1.7-5-1.7
	c-1.8,0-3.6,0.6-5,1.7c-1.4-1.1-3.2-1.7-5-1.7c-1.4,0-2.8,0.4-4,1.1v-4.7l4.6-7.3h18.9l4.6,7.3V26.3z"/>
</svg>
