<svg xmlns="http://www.w3.org/2000/svg" xmlns:xlink="http://www.w3.org/1999/xlink" width="0" height="0" style="position:absolute">

<symbol id="icon-comfort-air" viewBox="0 0 32 28">
        <path d="M1 10h11c2.8 0 5-2.2 5-5s-2.2-5-5-5-5 2.2-5 5c0 .6.4 1 1 1s1-.4 1-1c0-1.7 1.3-3 3-3s3 1.3 3 3-1.3 3-3 3H1c-.6 0-1 .4-1 1s.4 1 1 1zm13 8H1c-.6 0-1 .4-1 1s.4 1 1 1h13c1.7 0 3 1.3 3 3s-1.3 3-3 3-3-1.3-3-3c0-.6-.4-1-1-1s-1 .4-1 1c0 2.8 2.2 5 5 5s5-2.2 5-5-2.2-5-5-5zM26 4c-3.3 0-6 2.7-6 6 0 .6.4 1 1 1s1-.4 1-1c0-2.2 1.8-4 4-4s4 1.8 4 4-1.8 4-4 4H1c-.6 0-1 .4-1 1s.4 1 1 1h25c3.3 0 6-2.7 6-6s-2.7-6-6-6z"/>
</symbol>

<symbol id="icon-comfort-arbor" viewBox="0 0 32.1 29.7">
        <path d="M29 8.7h2.1c.5 0 .9-.3 1-.8.1-.5-.1-.9-.6-1.1L16.7.1c-.3-.1-.6-.1-.8 0L1.1 6.8c-.4.2-.7.6-.6 1.1.1.5.5.8 1 .8h2.1v19.1H1c-.6 0-1 .4-1 1s.4 1 1 1h30c.6 0 1-.4 1-1s-.4-1-1-1h-2V8.7zm-2 9h-9.7v-9H27v9zm-11.7 2v8h-4v-8h4zm2 0h3.9v8h-3.9v-8zm-1-17.6l10.1 4.6H6.1l10.2-4.6zm-1 6.6v9.1H5.6V8.7h9.7zm-9.7 11h3.8v8H5.6v-8zm17.5 8v-8H27v8h-3.9z"/>
</symbol>

<symbol id="icon-comfort-badminton" viewBox="0 0 33.6 33.4">
        <path d="M33.4 20.2l-20-20c-.2-.1-.6-.2-.9-.2-.3.1-.6.3-.7.6L2.6 22.2c-4 4.1-2.1 6.7 0 8.8 1.1 1.1 2.5 2.3 4.3 2.3 1.4 0 2.9-.8 4.5-2.4l21.6-9c.3-.1.5-.4.6-.7.1-.4 0-.7-.2-1zM7.2 25l12-16 5.4 5.4-16.1 12L7.2 25zM13 2.8l4.8 4.8-12.1 16-1.1-1.1L13 2.8zM6.9 31.4c-.9 0-1.8-.7-2.9-1.7-1.7-1.7-2.7-2.9-.5-5.4l6 6c-1 .7-1.9 1.1-2.6 1.1zm4.2-2.4L10 27.8l16-12 4.8 4.8L11.1 29z"/>
</symbol>

<symbol id="icon-comfort-baggage" viewBox="0 0 29.6 28.2">
        <path d="M26.3 5.2h-6.4c0-2.8-2.3-5.1-5.1-5.1s-5.1 2.2-5.1 5H3.2C1.5 5.2 0 6.6 0 8.4V25c0 1.8 1.5 3.2 3.2 3.2h23.1c1.8 0 3.2-1.5 3.2-3.2V8.4c.1-1.8-1.4-3.2-3.2-3.2zm-5.5 2.2V26h-12V7.4h12zm-9.1-2.3c0-1.7 1.4-3.1 3.1-3.1s3.1 1.4 3.1 3.1h-6.2zM2.2 25V8.4c0-.6.5-1 1-1h3.5V26H3.2c-.5 0-1-.4-1-1zm25.1 0c0 .6-.5 1-1 1h-3.5V7.4h3.5c.6 0 1 .5 1 1V25z"/>
</symbol>

<symbol id="icon-comfort-banket" viewBox="0 0 32 32.2">
        <path d="M5 21.3c0 .6.4 1 1 1h20c.6 0 1-.4 1-1s-.4-1-1-1H6c-.6 0-1 .5-1 1zm27-.1V21c0-.1 0-.1-.1-.2v-.1l-5-8c-.2-.3-.5-.5-.8-.5h-6.9c.5-2.3 2.5-4 4.9-4 2.8 0 5 2.2 5 5 0 .6.4 1 1 1s1-.4 1-1c0-2.8-1.7-5.2-4-6.3.6-.7 1-1.6 1-2.7 0-2.2-1.8-4-4-4s-4 1.8-4 4c0 1 .4 2 1 2.7-2.1 1-3.6 3-4 5.3h-2.2C14.6 10 13.1 8 11 7c.6-.7 1-1.6 1-2.7 0-2.2-1.8-4-4-4s-4 1.8-4 4c0 1 .4 2 1 2.7-2.4 1.1-4 3.5-4 6.3 0 .6.4 1 1 1s1-.4 1-1c0-2.8 2.2-5 5-5 2.4 0 4.4 1.7 4.9 4H6c-.3 0-.7.2-.8.5l-5 8v.1c0 .1-.1.1-.1.2v7.3c0 .1 0 .3.1.4.1.2.3.4.5.5.2.1.5.1.8 0 .1-.1.2-.1.3-.2.7-.7 1.5-1.1 2.3-1.4v3.6c0 .6.4 1 1 1s1-.4 1-1v-4c1.6 0 3.1.6 4.3 1.8.2.2.5.3.7.3.3 0 .5-.1.7-.3 2.4-2.4 6.2-2.4 8.6 0 .2.2.5.3.7.3.3 0 .5-.1.7-.3 1.2-1.2 2.7-1.8 4.3-1.8v4c0 .6.4 1 1 1s1-.4 1-1v-3.6c.8.3 1.6.7 2.3 1.4.1.1.2.2.3.2.1.1.3.1.4.1.1 0 .3 0 .4-.1.2-.1.4-.3.5-.5.1-.1.1-.3.1-.4l-.1-7.2c0 .1 0 .1 0 0zM24 2.3c1.1 0 2 .9 2 2s-.9 2-2 2-2-.9-2-2 .9-2 2-2zm-16 4c-1.1 0-2-.9-2-2s.9-2 2-2 2 .9 2 2-.9 2-2 2zm22 20c-1.2-.7-2.6-1.1-4-1.1-1.8 0-3.6.6-5 1.7-1.4-1.1-3.2-1.7-5-1.7-1.8 0-3.6.6-5 1.7-1.4-1.1-3.2-1.7-5-1.7-1.4 0-2.8.4-4 1.1v-4.7l4.6-7.3h18.9l4.6 7.3v4.7z"/>
</symbol>

<symbol id="icon-comfort-bath" viewBox="0 1.6 50 46.7">
        <path d="M40.2 21.8c-.8-.2-1.7.5-1.9 1.2l-.6 3.4H12.2l-.6-3.4c-.2-.8-.9-1.4-1.9-1.2-.8.2-1.4.9-1.3 1.9l3.9 23.4c.2.8.8 1.2 1.6 1.2h21.9c.8 0 1.4-.6 1.6-1.2l3.9-23.4c.3-1-.4-1.7-1.1-1.9zM18.8 45.2h-3.4l-2.7-15.6h6.1v15.6zm9.3 0h-6.2V29.6h6.2v15.6zm6.6 0h-3.4V29.6h5.9l-2.5 15.6zm12-31.1c-2-2-4.7-3.1-7.7-3.1h-.8C36.3 5.4 31 1.6 25.1 1.6c-3.7 0-7.3 1.4-10 4.1-1.5 1.6-2.6 3.3-3.4 5.3-3.1-.2-6.3.9-8.4 3.1S0 19 0 22s1.1 5.6 3.3 7.7c.3.3.8.5 1.1.5.5 0 .8-.2 1.1-.5.6-.6.6-1.6 0-2.2C3.9 26 3.1 24 3.1 22s.8-4.1 2.3-5.5c1.4-1.6 3.4-2.3 5.5-2.3v1.4c0 .9.6 1.6 1.6 1.6.8 0 1.6-.6 1.6-1.6 0-2.8 1.1-5.6 3.3-7.7 2-2 4.8-3.1 7.7-3.1 4.5 0 8.6 2.8 10.2 7-1.4.5-2.7 1.4-3.8 2.5-.6.6-.6 1.6 0 2.2.6.6 1.6.6 2.2 0 1.1-1.1 2.3-1.9 3.9-2.2.5-.2 1.1-.2 1.6-.2 2 0 4.1.8 5.5 2.3 1.4 1.4 2.3 3.4 2.3 5.5s-.8 4.1-2.3 5.5c-.6.6-.6 1.6 0 2.2.3.3.8.5 1.1.5.5 0 .8-.2 1.1-.5 2-2 3.3-4.8 3.3-7.7s-1.3-5.6-3.5-7.8z"/>
</symbol>

<symbol id="icon-comfort-beach" viewBox="0 0 26.9 34">
        <path d="M26.9 15.2c0-7.3-5.2-12.8-12.3-13.3V1c0-.6-.4-1-1-1s-1 .4-1 1v.9C5.5 2.4.2 7.9.2 15.2v.4c0 .1.1.2.2.2l.1.1.1.1c.2.1.4.2.6.2.3 0 .6-.2.8-.4 0 0 .7-1.1 1.9-1.2.8-.1 1.7.3 2.6 1.2l.3.3c.2.1.4.2.6.2h.2c.2 0 .4-.1.5-.3.1-.1.2-.2.2-.3.3-.3.9-.9 1.7-1 .8-.1 1.6.3 2.5 1.1V25c0 .6.4 1 1 1s1-.4 1-1v-9.5c.3-.3.9-.9 1.7-.9.8-.1 1.7.3 2.6 1.2l.3.3c.2.1.4.2.6.2h.2c.2 0 .4-.1.5-.3.1-.1.2-.2.2-.3.3-.3.9-.9 1.7-1 .9-.1 1.8.4 2.8 1.3.4.4 1 .4 1.4 0 .3-.3.4-.6.4-.8zm-4.7-2.6c-1.1.1-2 .7-2.6 1.2-1.2-.9-2.4-1.3-3.6-1.2-1.1.1-2 .7-2.6 1.2-1.2-.9-2.4-1.3-3.6-1.2-1.1.1-2 .7-2.6 1.2-1.2-.9-2.4-1.3-3.6-1.2-.5.1-.9.2-1.3.4.9-5.4 5.3-9.1 11.1-9.1 5.9 0 10.3 3.8 11.2 9.3-.7-.5-1.5-.7-2.4-.6zM25.6 26c-1.4 0-2.2.7-2.7 1.3-.5.5-.7.7-1.3.7s-.8-.2-1.3-.7c-.6-.6-1.3-1.3-2.7-1.3-1.4 0-2.2.7-2.7 1.3-.5.5-.7.7-1.3.7s-.8-.2-1.3-.7c-.6-.6-1.3-1.3-2.7-1.3-1.4 0-2.2.7-2.7 1.3-.5.5-.8.7-1.3.7-.6 0-.8-.2-1.3-.7C3.7 26.7 3 26 1.6 26c-.6 0-1 .4-1 1s.4 1 1 1 .8.2 1.3.7c.5.6 1.3 1.3 2.7 1.3 1.4 0 2.2-.7 2.7-1.3.5-.5.7-.7 1.3-.7.6 0 .8.2 1.3.7.5.5 1.3 1.3 2.7 1.3s2.2-.7 2.7-1.3c.5-.5.7-.7 1.3-.7.6 0 .8.2 1.3.7.5.5 1.3 1.3 2.7 1.3s2.2-.7 2.7-1.3c.5-.5.7-.7 1.3-.7.6 0 1-.4 1-1s-.5-1-1-1zM25.6 30c-1.4 0-2.2.7-2.7 1.3-.5.5-.7.7-1.3.7s-.8-.2-1.3-.7c-.6-.6-1.3-1.3-2.7-1.3-1.4 0-2.2.7-2.7 1.3-.5.5-.7.7-1.3.7s-.8-.2-1.3-.7c-.6-.6-1.3-1.3-2.7-1.3-1.4 0-2.2.7-2.7 1.3-.5.5-.8.7-1.3.7-.6 0-.8-.2-1.3-.7C3.7 30.7 3 30 1.6 30c-.6 0-1 .4-1 1s.4 1 1 1 .8.2 1.3.7c.5.6 1.3 1.3 2.7 1.3 1.4 0 2.2-.7 2.7-1.3.5-.5.7-.7 1.3-.7.6 0 .8.2 1.3.7.5.5 1.3 1.3 2.7 1.3s2.2-.7 2.7-1.3c.5-.5.7-.7 1.3-.7.6 0 .8.2 1.3.7.5.5 1.3 1.3 2.7 1.3s2.2-.7 2.7-1.3c.5-.5.7-.7 1.3-.7.6 0 1-.4 1-1s-.5-1-1-1z"/>
</symbol>

<symbol id="icon-comfort-bed" viewBox="0 0 32 27">
        <path d="M29 0H3C1.3 0 0 1.3 0 3v23c0 .6.4 1 1 1s1-.4 1-1v-4h28v4c0 .6.4 1 1 1s1-.4 1-1V3c0-1.7-1.3-3-3-3zm1 20H2v-6h28v6zM7.2 12c.4-1 1.4-1.8 2.6-1.8s2.2.7 2.6 1.8H7.2zm12.5 0c.4-1 1.4-1.8 2.6-1.8s2.2.7 2.6 1.8h-5.2zM30 12h-3.1c-.5-2.1-2.4-3.8-4.6-3.8s-4.2 1.6-4.6 3.8h-3.2c-.6-2.1-2.5-3.8-4.7-3.8S5.6 9.9 5.1 12H2V3c0-.6.4-1 1-1h26c.6 0 1 .4 1 1v9z"/>
</symbol>

<symbol id="icon-comfort-bedclothes" viewBox="0 0 31.8 29.5">
        <path d="M30.5 12.4l.1-.2c.7-.6 1.1-1.4 1.1-2.3s-.5-1.7-1.2-2.3L20.1.5c-1-.7-2.4-.6-3.3.1l-1.5 1.2-.4-.3c-.8-.5-1.8-.5-2.5 0L2.7 9c-.6.4-.9 1-.9 1.7 0 .4.1.7.3 1l-1.1.8c-.6.6-1 1.5-1 2.4s.5 1.7 1.2 2.3l.1.1-.2.2c-.7.4-1.1 1.3-1.1 2.2s.5 1.7 1.2 2.3l10.5 7c.5.3 1 .5 1.6.5.6 0 1.2-.2 1.7-.6l15.7-12c.7-.6 1.1-1.4 1.1-2.3s-.5-1.7-1.3-2.2zM3.9 10.5l9.7-7.4h.2l9.6 6.3.1.1c0 .1 0 .1-.1.1L13.7 17h-.1l-9.7-6.4s-.1 0-.1-.1c0 .1.1.1.1 0zm-1.6 3.6L3.7 13l8.7 5.7c.4.2.8.4 1.2.4.5 0 .9-.2 1.3-.4l9.7-7.4c.5-.4.9-1.1.8-1.8s-.4-1.3-.9-1.7L17 2.9l1-.7c.1-.2.3-.2.5-.2s.3 0 .5.1l10.4 7.1c.2.2.4.4.4.7 0 .3-.1.5-.3.7l-15.7 12c-.3.2-.7.2-1 0L2.4 15.5c-.3-.2-.4-.4-.4-.7 0-.2.1-.5.3-.7zm27.1 1.3l-15.7 12c-.3.2-.7.2-1 0L2.4 20.3c-.3-.2-.4-.4-.4-.7 0-.3.1-.5.3-.7l.7-.6 8.6 5.8c.5.3 1 .5 1.6.5.6 0 1.2-.2 1.7-.6l13.8-10.5.6.4c.2.2.4.4.4.7.1.3-.1.6-.3.8z"/>
</symbol>

<symbol id="icon-comfort-bicycle" viewBox="0 0 33.2 22.6">
        <path d="M27.1 10.4c-.3 0-.5 0-.8.1L23.8 2h1.3c.6 0 1-.4 1-1s-.4-1-1-1h-6c-.6 0-1 .4-1 1s.4 1 1 1h2.6l.9 3.2H12.5v-.7h1c.6 0 1-.4 1-1s-.4-1-1-1H9.4c-.6 0-1 .4-1 1s.4 1 1 1h1.1v4.1L8.7 11c-.8-.4-1.7-.6-2.6-.6-3.4 0-6.1 2.7-6.1 6.1 0 3.4 2.7 6.1 6.1 6.1 3.1 0 5.6-2.3 6-5.2h3.4c.1 0 .3 0 .4-.1 0 0 .1 0 .1-.1.1-.1.2-.1.3-.2l7.3-8.9.8 2.9c-2 1-3.4 3.1-3.4 5.5 0 3.4 2.7 6.1 6.1 6.1 3.4 0 6.1-2.7 6.1-6.1 0-3.4-2.7-6.1-6.1-6.1zm-5.3-3.2l-6.1 7.4-3.2-5.8V7.2h9.3zm-10.5 3.6l2.5 4.6h-1.7c-.2-1.3-.9-2.4-1.7-3.3l.9-1.3zm-2.1 3c.4.5.7 1 .9 1.6H8l1.2-1.6zm-3.1 6.8c-2.3 0-4.1-1.8-4.1-4.1s1.8-4.1 4.1-4.1c.5 0 1 .1 1.4.3l-2.3 3.2v.1c0 .1-.1.1-.1.2V16.8c0 .1 0 .1.1.2 0 .1.1.1.1.1 0 .1.1.1.1.2v.1s.1 0 .1.1c0 0 .1 0 .1.1.1 0 .2.1.3.1H10c-.3 1.5-1.9 2.9-3.9 2.9zm21 0c-2.3 0-4.1-1.8-4.1-4.1 0-1.5.8-2.8 2-3.5l1.1 3.7v.1s0 .1.1.1c0 .1.1.1.1.2l.1.1c.1.1.1.1.2.1 0 0 .1 0 .1.1.1 0 .2.1.4.1h.4c.1 0 .1-.1.2-.1s.1-.1.2-.1l.1-.1c0-.1.1-.1.1-.2s0-.1.1-.2v-.5l-1.1-3.7h.2c2.3 0 4.1 1.8 4.1 4.1s-2 3.9-4.3 3.9z"/>
</symbol>

<symbol id="icon-comfort-billiard" viewBox="0 0 30 26.8">
        <path d="M29.5 20.8L18.4 2c-.7-1.2-2-2-3.4-2s-2.7.7-3.4 2L.6 20.8c-.7 1.3-.7 2.8 0 4 .7 1.3 2 2 3.4 2h22c1.4 0 2.7-.8 3.4-2 .8-1.3.8-2.8.1-4zm-1.8 3c-.4.6-1 1-1.7 1H4c-.7 0-1.4-.4-1.7-1-.4-.6-.4-1.4 0-2L13.3 3c.4-.6 1-1 1.7-1s1.3.4 1.7 1l11 18.8c.4.6.4 1.4 0 2zM7.6 17.6c-1.8 0-3.3 1.5-3.3 3.3s1.5 3.3 3.3 3.3 3.3-1.5 3.3-3.3-1.5-3.3-3.3-3.3zm0 4.6c-.7 0-1.3-.6-1.3-1.3s.6-1.3 1.3-1.3 1.3.6 1.3 1.3-.6 1.3-1.3 1.3zM15.1 17.6c-1.8 0-3.3 1.5-3.3 3.3s1.5 3.3 3.3 3.3 3.3-1.5 3.3-3.3-1.5-3.3-3.3-3.3zm0 4.6c-.7 0-1.3-.6-1.3-1.3s.6-1.3 1.3-1.3 1.3.6 1.3 1.3-.6 1.3-1.3 1.3zM22.6 17.6c-1.8 0-3.3 1.5-3.3 3.3s1.5 3.3 3.3 3.3 3.3-1.5 3.3-3.3-1.5-3.3-3.3-3.3zm0 4.6c-.7 0-1.3-.6-1.3-1.3s.6-1.3 1.3-1.3 1.3.6 1.3 1.3-.6 1.3-1.3 1.3zM14.5 14.4c0-1.8-1.5-3.3-3.3-3.3s-3.3 1.5-3.3 3.3 1.5 3.3 3.3 3.3 3.3-1.5 3.3-3.3zm-3.3 1.3c-.7 0-1.3-.6-1.3-1.3s.6-1.3 1.3-1.3 1.3.6 1.3 1.3-.6 1.3-1.3 1.3zM22 14.4c0-1.8-1.5-3.3-3.3-3.3s-3.3 1.5-3.3 3.3 1.5 3.3 3.3 3.3 3.3-1.5 3.3-3.3zm-3.3 1.3c-.7 0-1.3-.6-1.3-1.3s.6-1.3 1.3-1.3 1.3.6 1.3 1.3-.6 1.3-1.3 1.3zM14.9 11.2c1.8 0 3.3-1.5 3.3-3.3s-1.5-3.3-3.3-3.3-3.3 1.4-3.3 3.3 1.5 3.3 3.3 3.3zm0-4.6c.7 0 1.3.6 1.3 1.3s-.6 1.3-1.3 1.3-1.3-.6-1.3-1.3.6-1.3 1.3-1.3z"/>
</symbol>

<symbol id="icon-comfort-bleach" viewBox="0 0 33.8 23.4">
        <path d="M33.2 17.8L29 10.9c-.7-1.1-1.8-1.7-3.1-1.7h-14l.5-3h13.5c1.7 0 3.1-1.4 3.1-3.1S27.7 0 25.9 0H8.1c-1.4 0-2.6.9-3 2.3l-5 17.2c-.3 1-.1 1.9.5 2.7.6.8 1.5 1.2 2.5 1.2h27c1.3 0 2.5-.7 3.2-1.9s.6-2.5-.1-3.7zM7 2.8c.2-.5.6-.8 1.1-.8h17.8c.6 0 1.1.5 1.1 1.1s-.5 1.1-1.1 1.1H12.3c-.9 0-1.7.7-1.8 1.5L9.9 9c-.1.5.1 1.1.4 1.5.4.4.9.7 1.4.7h14.2c.6 0 1.1.3 1.4.8l3 4.9H3L7 2.8zm24.6 17.8c-.3.5-.8.9-1.4.9h-27c-.4 0-.7-.2-.9-.4-.3-.4-.4-.8-.3-1.1l.3-1.1h29.1c.4.5.5 1.1.2 1.7z"/><circle cx="25.5" cy="14.2" r="1.1"/><circle cx="20.1" cy="14.2" r="1.1"/><circle cx="14.8" cy="14.2" r="1.1"/>
</symbol>

<symbol id="icon-comfort-boatrental" viewBox="0 0 35.1 31">
        <path d="M17.3 20.7h11c.6 0 1-.4 1-1v-.2C29.2 2.4 17.6 0 17.5 0c-.3-.1-.6 0-.8.2-.2.2-.4.5-.4.8v18.7c0 .5.5 1 1 1zm1-18.3c2.6 1 8.6 4.7 9 16.3h-9V2.4zM5.7 20.7h8.1c.6 0 1-.4 1-1V5.9c0-.3-.1-.6-.4-.8-.2-.2-.5-.3-.8-.2-.1 0-8.9 1.9-8.9 14.8 0 .5.4 1 1 1zm7.1-13.4v11.4H6.7C7 11 10.8 8.2 12.8 7.3zM35 23.1c-.2-.3-.5-.4-.8-.4H1c-.3 0-.7.2-.8.5-.2.3-.2.6-.1 1 .7 1.5 2.3 5.1 2.5 5.5.5.9 1.6 1.4 3 1.4s2-.6 2.8-1.1c.7-.6 1.5-1.2 3-1.2s2.2.6 3 1.2c.6.4 1.2 1 2.6 1s2-.6 2.8-1.1c.7-.6 1.5-1.2 3-1.2s2.2.6 3 1.2c.7.6 1.4 1.1 2.8 1.1 1.3 0 2-.6 2.6-1.1l.1-.1c2.4-2.3 3.8-5.6 3.8-5.7.1-.3 0-.7-.1-1zm-5.1 5.2c-.6.5-.8.6-1.4.6-.7 0-.9-.2-1.5-.7-.8-.7-2-1.7-4.2-1.7s-3.4 1-4.2 1.7c-.7.6-.9.8-1.6.8-.7 0-.9-.2-1.5-.7-.8-.7-2-1.7-4.2-1.7s-3.4 1-4.2 1.7c-.7.5-.9.7-1.5.7-.7 0-1.2-.3-1.3-.4-.1-.2-.9-2-1.8-3.9h30c-.6 1-1.5 2.5-2.6 3.6z"/>
</symbol>

<symbol id="icon-comfort-cafe" viewBox="0 0 32.7 31.2">
        <path d="M31.3 16.4c-1.3-1-3.4-1.2-5.1-.6.1-.7.1-1.5.1-2.2 0-.6-.4-1-1-1H1c-.6 0-1 .4-1 1 0 10 5.7 17.6 13.1 17.6 4.1 0 7.6-2.2 10-5.9 2.1-.1 8.9-1 9.5-5.5.2-1.4-.2-2.6-1.3-3.4zM13.1 29.2C7 29.2 2.4 23 2 14.7h22.2c-.3 8.3-4.9 14.5-11.1 14.5zm17.5-9.7c-.3 2.3-3.8 3.3-6.3 3.7.7-1.4 1.2-3 1.5-4.8.2-.4.7-.6 1-.7 1.1-.4 2.5-.3 3.3.2.5.5.6 1 .5 1.6zM15.1 11.2c.2.2.4.3.7.3.3 0 .5-.1.7-.3.4-.4.4-1 0-1.4-.1-.1-1.3-1.3.1-3.2 1.9-2.6.8-5.2 0-6.2-.4-.4-1-.5-1.4-.1-.4.4-.5 1-.1 1.4.1.1 1.4 1.8 0 3.7-2 2.6-.9 4.9 0 5.8zM11.5 11.5c.3 0 .5-.1.7-.3.4-.4.4-1 0-1.4-.1-.1-1.3-1.3.1-3.2.3-.4.2-1.1-.2-1.4-.4-.3-1.1-.2-1.4.2-2 2.6-.8 5 .1 5.8.2.2.5.3.7.3z"/>
</symbol>

<symbol id="icon-comfort-cansmoke" viewBox="0 0 31.7 30.4">
        <path d="M30.3 24h-29c-.6 0-1 .4-1 1v4.2c0 .6.4 1 1 1h29c.6 0 1-.4 1-1V25c0-.5-.4-1-1-1zM9.7 28.2H2.3V26h7.4v2.2zm19.6 0H11.7V26h17.6v2.2zM2 3.7c.8-.5 1.6-.9 2.6-1.1.5-.1 1-.2 1.6-.2 1.4 0 2.7.4 3.8 1.1-2 1-3.6 2.4-4.8 4.2-.4.7-.9 2-.9 3 0 3 2.5 5.5 5.5 5.5 2.4 0 4.5-1.6 5.3-4 .2-.8.3-1.6.3-2.5 0-2-.6-3.8-1.7-5.3.4 0 .7-.1 1.1-.1 3.4 0 6.4 1.9 8 4.6-3.4 0-6.4 2-7.7 5.1-.3.7-.4 1.5-.4 2.2 0 3 2.4 5.4 5.4 5.4 1.9 0 3.7-1 4.6-2.6 0-.1.1-.1.1-.2.9-1.6 1.3-3.4 1.3-5.3 0-.7-.1-1.3-.2-1.9 2 1.1 3.3 3.2 3.3 5.6v3.4c0 .6.4 1 1 1s1-.4 1-1v-3.4c0-3.8-2.5-7-6-8-1.7-4.1-5.8-7-10.5-7-.9 0-1.8.1-2.7.3C10.4 1.1 8.2.2 5.9.2c-.7 0-1.3.1-2 .2-1 .5-2.1 1-3.1 1.7-.4.3-.5.9-.2 1.4.3.4.9.6 1.4.2zm21.8 7.4c.3.8.4 1.7.4 2.7 0 1.6-.4 3-1.1 4.3v.1c-.6 1-1.7 1.7-2.9 1.7-1.9 0-3.4-1.5-3.4-3.4 0-.4.1-1 .3-1.4.4-1 .8-1.9 1.7-2.5 1.6-1.4 3.4-1.7 5-1.5zM13.4 9.8c0 .7-.1 1.3-.3 1.9-.5 1.6-1.8 2.6-3.3 2.6-1.9 0-3.5-1.6-3.5-3.5 0-.5.3-1.5.6-2.1C8.1 7 9.7 5.7 11.6 5c1.1 1.3 1.8 3 1.8 4.8z"/>
</symbol>

<symbol id="icon-comfort-childcharge" viewBox="0 0 33.2 32.8">
        <path d="M32.4 17.9c1.3-3.1 0-6.8-3.1-8.4-3.2-1.6-7.1-.3-8.8 2.9-.4.8-.6 1.6-.7 2.5 0 0-.4 3.4-.6 8.1-.1 1.4-.3 2.6-.9 3.7-1.9 3.5-6.3 4.8-9.8 2.9-3.5-1.9-4.8-6.3-2.9-9.8.6-1.1 1.5-1.9 2.6-2.8 0 0 5.2-4 6.6-5.1.1-.1.2-.1.3-.2l.1-.1.1-.1c.5-.5 1-1 1.3-1.7.8-1.5 1-3.3.5-5-.5-1.7-1.6-3.1-3.1-3.9C11-.7 7.3.2 5.5 3h-.3c-1.4 0-3 1.2-4 3-1.3 2.4-1.1 4.9.5 5.8.3.2.7.3 1.1.3 1.4 0 3-1.2 4-3 .6-1 .9-2.1.9-3.1 0-.7-.2-1.3-.5-1.7.6-.9 1.4-1.5 2.4-1.8 1.2-.3 2.4-.2 3.4.4 1.1.6 1.8 1.5 2.2 2.7.3 1.2.2 2.4-.4 3.4-.3.5-.6.9-1 1.2-.1.1-.2.2-.3.2-.1.1-.2.1-.3.2l-.1.1C10.8 12.5 7 15.4 7 15.4c-1.2.9-2.4 1.9-3.2 3.4-2.4 4.5-.7 10.2 3.8 12.6 1.4.8 2.9 1.1 4.4 1.1 3.3 0 6.4-1.7 8.1-4.8.7-1.4 1-2.7 1.1-4.3 0 0 .7-8.3.7-8.4 0-.6.2-1.2.5-1.8 1.1-2.2 3.9-3.1 6.1-2 2 1 2.9 3.4 2.2 5.5h-.2c-1.5 0-3 1.2-4 3.1-1.2 2.5-1 4.9.7 5.7.3.2.7.3 1.1.3 1.5 0 3-1.2 4-3.1.8-1.8.8-3.7.1-4.8zM5.1 8.2c-.8 1.4-2 2.1-2.4 1.9-.4-.2-.6-1.5.3-3 .7-1.3 1.7-2 2.2-2h.2c.2.1.3.4.3.9 0 .7-.2 1.5-.6 2.2zm25.2 13.7c-.8 1.6-2 2.2-2.3 2-.4-.2-.6-1.5.2-3.1.7-1.4 1.7-2 2.2-2h.2c.3.2.5 1.5-.3 3.1z"/>
</symbol>

<symbol id="icon-comfort-cleaner" viewBox="0 0 35 32.6">
        <path d="M34 30.6h-2.8V4.5c0-2.5-2-4.5-4.5-4.5s-4.5 2-4.5 4.5v12.3c-2.2-1.4-5-2.2-8-2.2C8 14.6 2.8 18 2 22.5c-1.2 1.1-2 2.6-2 4.4 0 3.2 2.6 5.8 5.8 5.8 1.1 0 2.2-.3 3.1-.9 1.6.6 3.4.9 5.3.9 6.8 0 12.3-4 12.3-9 0-1.9-.8-3.7-2.2-5.2v-14c0-1.4 1.1-2.5 2.5-2.5s2.5 1.1 2.5 2.5v26.1H26c-.6 0-1 .4-1 1s.4 1 1 1h8c.6 0 1-.4 1-1s-.4-1-1-1zM2 26.8C2 24.7 3.7 23 5.8 23s3.8 1.7 3.8 3.8-1.7 3.8-3.8 3.8S2 28.9 2 26.8zm22.5-3.2c0 3.9-4.6 7-10.3 7-1.3 0-2.6-.2-3.7-.5.6-.9 1-2.1 1-3.3 0-3.2-2.6-5.8-5.8-5.8-.4 0-.8 0-1.2.1 1.4-2.7 5.2-4.6 9.7-4.6 3.4 0 6.4 1.1 8.3 2.9l.1.1c1.2 1.2 1.9 2.6 1.9 4.1zM19 19.6h-4c-.6 0-1 .4-1 1s.4 1 1 1h4c.6 0 1-.4 1-1s-.4-1-1-1zM19 22.6h-4c-.6 0-1 .4-1 1s.4 1 1 1h4c.6 0 1-.4 1-1s-.4-1-1-1zM19 25.6h-4c-.6 0-1 .4-1 1s.4 1 1 1h4c.6 0 1-.4 1-1s-.4-1-1-1z"/>
</symbol>

<symbol id="icon-comfort-comp" viewBox="0 0 30 31.7">
        <circle cx="22.5" cy="27.7" r="1"/><circle cx="19.5" cy="27.7" r="1"/><circle cx="16.5" cy="27.7" r="1"/><circle cx="13.5" cy="27.7" r="1"/><circle cx="10.5" cy="27.7" r="1"/><circle cx="7.5" cy="27.7" r="1"/><path d="M27.3 0H2.7C1.2 0 0 1.2 0 2.7v16.7C0 20.8 1.2 22 2.7 22h24.7c1.5 0 2.7-1.2 2.7-2.7V2.7C30 1.2 28.8 0 27.3 0zm.7 19.3c0 .4-.3.7-.7.7H2.7c-.4 0-.7-.3-.7-.7V2.7c0-.4.3-.7.7-.7h24.7c.3 0 .6.3.6.7v16.6zM23.9 3.5H6.1C4.9 3.5 4 4.4 4 5.6v10.8c0 1.2.9 2.1 2.1 2.1h17.8c1.2 0 2.1-.9 2.1-2.1V5.6c0-1.2-.9-2.1-2.1-2.1zm.1 12.9c0 .1 0 .1-.1.1H6.1c-.1 0-.1 0-.1-.1V5.6c0-.1 0-.1.1-.1h17.8c.1 0 .1 0 .1.1v10.8zM25.5 24.5c-.5-.6-1.2-.9-1.9-.9H6.4c-.7 0-1.4.3-1.9.9L2 27.6c-.6.8-.7 1.8-.3 2.6.4.9 1.3 1.4 2.3 1.4h22.2c1 0 1.8-.5 2.3-1.4.4-.9.3-1.9-.3-2.6l-2.7-3.1zm1 4.9c0 .1-.2.3-.4.3H3.9c-.3 0-.4-.2-.4-.3 0-.1-.1-.3.1-.5l2.5-3.1c.1-.1.2-.2.4-.2h17.1c.1 0 .3.1.4.2l2.5 3.1c.2.2.1.4 0 .5z"/>
</symbol>

<symbol id="icon-comfort-cutlery" viewBox="0 0 24 32">
        <path d="M17 12c.6 0 1-.4 1-1V1c0-.6-.4-1-1-1s-1 .4-1 1v10c0 .6.4 1 1 1zM4 0C1.8 0 0 1.8 0 4v12c0 1.3.8 2.4 2 2.8V29c0 1.6 1.3 3 3 3 1.6 0 3-1.3 3-3V4c0-2.2-1.8-4-4-4zm2 29c0 .5-.4 1-1 1-.5 0-1-.4-1-1V18c0-.6-.5-1-1-1s-1-.4-1-1V4c0-1.1.9-2 2-2s2 .9 2 2v25zM23 0c-.6 0-1 .4-1 1v10c0 1.7-1.3 3-3 3-.6 0-1 .4-1 1v14c0 .6-.4 1-1 1s-1-.4-1-1V15c0-.6-.4-1-1-1-1.7 0-3-1.3-3-3V1c0-.6-.4-1-1-1s-1 .4-1 1v10c0 2.4 1.7 4.4 4 4.9V29c0 1.7 1.3 3 3 3s3-1.3 3-3V15.9c2.3-.5 4-2.5 4-4.9V1c0-.6-.4-1-1-1z"/>
</symbol>

<symbol id="icon-comfort-drier" viewBox="0 0 32.3 25">
        <path d="M20.2 2.7C16.7 1.8 13.3 1 9.9.1 8.6-.2 7.4-.2 6.3 0 3.9.5 2 1.8.9 4-.6 6.9-.2 10.2 2 12.7c.5 1.2.8 2.4.7 3.5-.1 1.6-.3 3.2-.6 4.7-.3 1.6.5 2.9 2 3.4.6.2 1.1.3 1.7.3l.5.1c.5.1 1 .2 1.5.2h.1c1.1 0 1.5-.6 1.7-1 .5-.9 0-1.6-.2-1.9-.1-.1-.1-.2-.1-.2 0-.5 0-.9.1-1.3l1.2-4.5c.1-.3.3-.7.5-1 .2-.3.5-.5.9-.6l5.1-1.2 3.2-.8c.7-.2 1.1-.7 1.1-1.4V4.1c-.1-.7-.5-1.3-1.2-1.4zM7.9 24v-.9.9zM19.3 7.6v3l-2.8.7-5.1 1.2c-.8.2-1.5.7-2 1.4-.3.4-.6.9-.8 1.5-.4 1.6-.9 3.1-1.2 4.6-.1.6-.1 1.2-.1 1.8 0 .3.1.6.3 1-.3 0-.6-.1-1-.1l-.5-.1c-.5-.1-1-.1-1.4-.3-.6 0-.8-.3-.7-1 .3-1.6.5-3.3.6-4.9.1-1.5-.2-2.9-.9-4.5-.1-.2-.2-.4-.3-.5-1.5-1.9-1.8-4.3-.7-6.5.8-1.6 2.2-2.6 4-3 .3-.1.7-.1 1-.1.5 0 1 .1 1.6.2 3.3.8 6.6 1.6 10 2.5v3.1zM7.8 3.7c-2.2 0-3.9 1.8-3.9 3.9 0 1 .4 2 1.1 2.8.7.8 1.7 1.2 2.8 1.2 2.2 0 3.9-1.8 3.9-3.9 0-1-.4-2-1.1-2.8S8.8 3.7 7.8 3.7zm0 5.8c-.5 0-1-.2-1.4-.6-.4-.3-.6-.8-.6-1.3 0-1.1.9-1.9 1.9-1.9.5 0 1 .2 1.4.6.4.4.6.8.6 1.4 0 .9-.9 1.8-1.9 1.8zM23.2 4.2c.5.2 1.2.4 1.9.4 1.1 0 2.3-.4 3-1.8.6-1.2 1.9-.7 2.2-.5.5.2 1.1 0 1.3-.5.2-.5 0-1.1-.5-1.3-1.3-.7-3.7-.8-4.9 1.4-.6 1.2-2 .7-2.3.5-.5-.2-1.1 0-1.3.5-.1.4.1 1 .6 1.3zM31.9 6.5c-1.1-1-3.4-1.8-5.1.1-.9 1-2.1.1-2.4-.1-.4-.4-1-.3-1.4.1-.3.4-.2 1 .2 1.4.6.5 1.6 1 2.7 1 .8 0 1.7-.3 2.4-1.1.9-1 2-.2 2.3.1.4.4 1 .3 1.4-.1.4-.4.3-1.1-.1-1.4zM26.7 11.3c-1.2.7-2.1-.4-2.3-.7-.3-.5-.9-.6-1.4-.3-.5.3-.6.9-.3 1.4.7 1.1 2.7 2.7 5 1.2 1.1-.7 2 .3 2.2.7.2.3.5.4.8.4.2 0 .4-.1.6-.2.5-.3.6-.9.3-1.4-.8-1.1-2.8-2.4-4.9-1.1z"/>
</symbol>

<symbol id="icon-comfort-dvd" viewBox="0 0 32 28.1">
        <path d="M31 16.1H20.5c1.4-1.7 2.2-3.9 2.2-6.2 0-5.5-4.4-9.9-9.9-9.9S2.9 4.4 2.9 9.9c0 2.3.8 4.5 2.2 6.2H1c-.6 0-1 .4-1 1v10c0 .6.4 1 1 1h30c.6 0 1-.4 1-1v-10c0-.5-.4-1-1-1zM12.8 2c4.4 0 7.9 3.6 7.9 7.9s-3.6 7.9-7.9 7.9-7.9-3.6-7.9-7.9S8.4 2 12.8 2zM30 26.1H2v-8h5.2c1.6 1.1 3.5 1.7 5.6 1.7s4-.6 5.6-1.7H30v8zM12.8 13.4c1.9 0 3.5-1.6 3.5-3.5s-1.6-3.5-3.5-3.5S9.3 8 9.3 9.9c0 2 1.6 3.5 3.5 3.5zm0-5c.8 0 1.5.7 1.5 1.5s-.7 1.5-1.5 1.5-1.5-.7-1.5-1.5.7-1.5 1.5-1.5zM16.8 21.1h-12c-.6 0-1 .4-1 1s.4 1 1 1h12c.6 0 1-.4 1-1s-.4-1-1-1z"/><circle cx="20.9" cy="22.1" r="1"/><circle cx="23.9" cy="22.1" r="1"/><circle cx="26.9" cy="22.1" r="1"/>
</symbol>

<symbol id="icon-comfort-electricity" viewBox="0 0 27.5 33.6">
        <path d="M13.7 5.2C9 5.2 5.3 9 5.3 13.8c0 3.2 1.8 6.1 4.7 7.6v5.3c0 .6.4 1 1 1h5.6c.6 0 1-.4 1-1v-5.3c2.9-1.5 4.7-4.4 4.7-7.6-.1-4.7-3.9-8.6-8.6-8.6zm2.4 14.6c-.4.2-.6.5-.6.9v5H12v-5c0-.4-.2-.8-.6-.9-2.5-1-4.1-3.4-4.1-6 0-3.7 2.8-6.6 6.4-6.6 3.6 0 6.5 2.9 6.5 6.6 0 2.6-1.6 5-4.1 6zM16.5 28.7H11c-.6 0-1 .4-1 1s.4 1 1 1h5.6c.6 0 1-.4 1-1s-.5-1-1.1-1zM15.4 31.6h-3.3c-.6 0-1 .4-1 1s.4 1 1 1h3.3c.6 0 1-.4 1-1s-.4-1-1-1zM13.7 4.4c.6 0 1-.4 1-1V1c0-.6-.4-1-1-1s-1 .4-1 1v2.4c0 .5.5 1 1 1zM7.7 5.2c.2.3.5.5.9.5.2 0 .3 0 .5-.1.5-.3.6-.9.4-1.4l-1.2-2c-.3-.5-1-.6-1.4-.4-.5.3-.7.9-.4 1.4l1.2 2zM2.2 8.2l2 1.2c.2.1.3.1.5.1.3 0 .7-.2.9-.5.3-.4.1-1-.4-1.3l-2-1.2c-.5-.3-1.1-.1-1.4.4-.2.4-.1 1.1.4 1.3zM25.3 19.2l-2-1.2c-.5-.3-1.1-.1-1.4.4-.3.5-.1 1.1.4 1.4l2 1.2c.2.1.3.1.5.1.3 0 .7-.2.9-.5.2-.5 0-1.1-.4-1.4zM4.4 13.7c0-.6-.4-1-1-1H1c-.6 0-1 .4-1 1s.4 1 1 1h2.4c.5 0 1-.4 1-1zM26.5 12.7h-2.4c-.6 0-1 .4-1 1s.4 1 1 1h2.4c.6 0 1-.4 1-1s-.5-1-1-1zM4.2 18l-2 1.2c-.5.3-.6.9-.4 1.4.2.3.5.5.9.5.2 0 .3 0 .5-.1l2-1.2c.5-.3.6-.9.4-1.4-.3-.5-.9-.6-1.4-.4zM22.7 9.5c.2 0 .3 0 .5-.1l2-1.2c.5-.3.6-.9.4-1.4-.3-.5-.9-.6-1.4-.4l-2 1.2c-.5.4-.6 1-.4 1.4.2.4.6.5.9.5zM18.4 5.6c.2.1.3.1.5.1.3 0 .7-.2.9-.5l1.2-2c.3-.5.1-1.1-.4-1.4-.5-.3-1.1-.1-1.4.4l-1.2 2c-.2.5-.1 1.1.4 1.4z"/>
</symbol>

<symbol id="icon-comfort-fireplace" viewBox="0 0 30.7 28.8">
        <path d="M1.5 24.8c.6 0 1-.4 1-1V5.5C2.5 3.6 4.1 2 6 2h18.6c1.9 0 3.5 1.6 3.5 3.5v18.3c0 .6.4 1 1 1s1-.4 1-1V5.5c0-3-2.5-5.5-5.5-5.5H6C3 0 .5 2.5.5 5.5v18.3c0 .6.5 1 1 1zM29.7 26.8H1c-.6 0-1 .4-1 1s.4 1 1 1h28.7c.6 0 1-.4 1-1s-.4-1-1-1zM9.8 20.4c-.7.6-1.7 1.4-1.7 3 0 .6.4 1 1 1s1-.4 1-1 .3-.9 1-1.5 1.7-1.4 1.7-3-1-2.4-1.7-3c-.6-.5-1-.8-1-1.5 0-.6-.4-1-1-1s-1 .4-1 1c0 1.6 1 2.4 1.7 3 .6.5 1 .8 1 1.5 0 .6-.3.9-1 1.5zM16 14c.7-.6 1.7-1.3 1.7-2.8s-1-2.3-1.7-2.8c-.7-.6-1-.9-1-1.3 0-.6-.4-1-1-1s-1 .4-1 1c0 1.5 1 2.3 1.7 2.8s.9.8.9 1.3-.3.7-.9 1.3c-.7.4-1.7 1.2-1.7 2.7 0 1.5 1 2.3 1.7 2.8s.9.8.9 1.2-.3.7-.9 1.2c-.7.7-1.7 1.5-1.7 3 0 .6.4 1 1 1s1-.4 1-1c0-.5.3-.7.9-1.2.7-.6 1.7-1.3 1.7-2.8 0-1.5-1-2.3-1.7-2.8s-.9-.8-.9-1.2c0-.7.3-.9 1-1.4zM19.6 20.4c-.7.6-1.7 1.4-1.7 3 0 .6.4 1 1 1s1-.4 1-1 .3-.9 1-1.5 1.7-1.4 1.7-3-1-2.4-1.7-3c-.6-.5-1-.8-1-1.5 0-.6-.4-1-1-1s-1 .4-1 1c0 1.6 1 2.4 1.7 3 .6.5 1 .8 1 1.5-.1.6-.4.9-1 1.5z"/>
</symbol>

<symbol id="icon-comfort-food" viewBox="0 0 32 32">
        <path d="M15.3 25.7c.2.2.5.3.7.3.3 0 .5-.1.7-.3.4-.4.4-1 0-1.4-2.9-2.9-2.9-7.7 0-10.6C20.4 10 20.4 4 16.7.3c-.4-.4-1-.4-1.4 0-.4.4-.4 1 0 1.4 2.9 2.9 2.9 7.7 0 10.6-3.7 3.7-3.7 9.7 0 13.4zm8 0c.2.2.5.3.7.3.3 0 .5-.1.7-.3.4-.4.4-1 0-1.4-2.9-2.9-2.9-7.7 0-10.6C28.4 10 28.4 4 24.7.3c-.4-.4-1-.4-1.4 0-.4.4-.4 1 0 1.4 2.9 2.9 2.9 7.7 0 10.6-3.7 3.7-3.7 9.7 0 13.4zm3.7-5.9c-.5-.2-1.1 0-1.3.6-.2.5 0 1.1.6 1.3 2.4.9 3.8 2.2 3.8 3.3 0 1.1-1.4 2.4-3.8 3.3-5.6 2.3-14.8 2.3-20.5 0C3.4 27.4 2 26.1 2 25c0-1 1.1-2.1 3-3 .5 1.4 1.2 2.6 2.3 3.7.2.2.4.3.7.3.3 0 .5-.1.7-.3.4-.4.4-1 0-1.4-2.9-2.9-2.9-7.7 0-10.6C12.4 10 12.4 4 8.7.3c-.4-.4-1-.4-1.4 0-.4.4-.4 1 0 1.4 2.9 2.9 2.9 7.7 0 10.6-2.1 2.1-3 5-2.7 7.7C1.7 21.3 0 23 0 25s1.8 3.9 5 5.2c3 1.2 7 1.8 11 1.8s8-.6 11-1.8c3.2-1.3 5-3.1 5-5.2 0-2-1.8-3.9-5-5.2z"/>
</symbol>

<symbol id="icon-comfort-frost" viewBox="0 0 28 32">
        <path d="M27.5 22.6l-3.9-2.3 2.4-.6c.5-.1.8-.7.7-1.2-.1-.5-.7-.8-1.2-.7L21.1 19l-2.4-1.4c.2-.5.3-1 .3-1.6 0-.6-.1-1.1-.3-1.6l2.4-1.4 4.3 1.2h.3c.4 0 .8-.3 1-.7.1-.5-.2-1.1-.7-1.2l-2.4-.6 3.9-2.3c.5-.3.6-.9.3-1.4-.3-.5-.9-.6-1.4-.4l-3.9 2.3.6-2.4c.3-.5-.1-1.1-.6-1.2-.5-.2-1.1.1-1.2.7l-1.2 4.3-2.4 1.4c-.7-.8-1.6-1.4-2.7-1.6V8.3l3.2-3.2c.4-.4.4-1 0-1.4-.4-.4-1-.4-1.4 0L15 5.5V1c0-.6-.4-1-1-1s-1 .4-1 1v4.5l-1.8-1.8c-.4-.4-1-.4-1.4 0-.4.4-.4 1 0 1.4L13 8.3v2.8c-1.1.2-2 .8-2.7 1.6l-2.4-1.4L6.7 7c-.1-.6-.7-.9-1.2-.7-.6.1-.9.7-.7 1.2l.6 2.4-3.9-2.3C1 7.4.4 7.5.1 8c-.2.5-.1 1.1.4 1.4l3.9 2.3-2.4.6c-.5.1-.8.7-.7 1.2.1.4.5.7 1 .7h.3L6.9 13l2.4 1.4c-.2.5-.3 1-.3 1.6 0 .6.1 1.1.3 1.6L6.9 19l-4.3-1.2c-.6-.1-1.2.2-1.3.7-.1.5.2 1.1.7 1.2l2.4.6-3.9 2.3c-.5.3-.6.9-.4 1.4.2.3.5.5.9.5.2 0 .3 0 .5-.1l3.9-2.3-.6 2.4c-.1.5.2 1.1.7 1.2h.3c.4 0 .8-.3 1-.7L8 20.7l2.4-1.4c.7.8 1.6 1.4 2.7 1.6v2.8l-3.2 3.2c-.4.4-.4 1 0 1.4.4.4 1 .4 1.4 0l1.8-1.8V31c0 .6.4 1 1 1s1-.4 1-1v-4.5l1.8 1.8c.2.2.5.3.7.3.3 0 .5-.1.7-.3.4-.4.4-1 0-1.4L15 23.7v-2.8c1.1-.2 2-.8 2.7-1.6l2.4 1.4 1.2 4.3c.1.4.5.7 1 .7h.3c.5-.1.8-.7.7-1.2l-.6-2.4 3.9 2.3c.2.1.3.1.5.1.3 0 .7-.2.9-.5.1-.5 0-1.1-.5-1.4zM14 19c-1.7 0-3-1.3-3-3s1.3-3 3-3 3 1.3 3 3-1.4 3-3 3z"/>
</symbol>

<symbol id="icon-comfort-gamingroom" viewBox="0 0 32.6 32.7">
        <path d="M32.6 10.9L29.2.7c0-.1-.1-.2-.1-.2L29 .4c0-.1-.1-.1-.1-.1s-.1 0-.1-.1c-.1 0-.1-.1-.2-.1H28L17.7 3.4c-.2.1-.4.2-.5.4l-2.6 3.8v.1s0 .1-.1.1c0 .1-.1.1-.1.2v.4l.4 1.1H6.9c-.2 0-.4.1-.6.2L.7 14l-.1.1v.1c-.1.1-.1.1-.1.2v.1c0 .1-.1.2-.1.3v16.7c0 .6.4 1 1 1H18c.1 0 .2 0 .4-.1 0 0 .1 0 .1-.1 0 0 .1 0 .1-.1l5.7-4.3c.2-.2.4-.5.4-.8v-9.8l4.7-1.6c.1 0 .2-.1.3-.2l.2-.2 2.6-3.8c.1 0 .2-.3.1-.6zm-6.9-8l-.7 1-7.1 2.4.7-1.1 7.1-2.3zM7.3 11.6h13.5l-2.4 1.8-.7.5H4.2l3.1-2.3zm-5 4.3H17v14.7H2.3V15.9zM19 29.6V15.4l1-.8 2.6-2v14.2L19 29.6zm5.7-19s-.1-.1 0 0c0-.1 0-.2-.1-.3v-.1c0-.1-.1-.1-.1-.2 0 0 0-.1-.1-.1l-.1-.1s-.1 0-.1-.1l-.1-.1h-7.2l-.3-.8 4.2-1.4L25 6l1.4 4.2 1.4 4.2-3.1 1v-4.8zm4.7 2.2L26.8 5l1.1-1.7 2.6 7.8-1.1 1.7z"/><circle cx="12.7" cy="19" r="1"/><circle cx="12.7" cy="23.4" r="1"/><circle cx="12.7" cy="27.7" r="1"/><circle cx="6.6" cy="19" r="1"/><circle cx="6.6" cy="23.3" r="1"/><circle cx="6.6" cy="27.7" r="1"/>
</symbol>

<symbol id="icon-comfort-grill" viewBox="0 0 31.4 34.7">
        <path d="M22.1 21.7c.2 0 .4 0 .5-.2 3.6-2.2 4.4-4.9 4.4-5 .2-.5-.1-1.1-.7-1.2-.5-.2-1.1.1-1.3.6 0 .1-.7 2.1-3.6 3.9-.5.3-.6.9-.3 1.4.3.4.6.5 1 .5zM11.7 8.7c-.3.5-.1 1.1.4 1.4.2.1.3.1.5.1.3 0 .7-.2.9-.5.1-.1 1.3-2.3-.2-5-.9-1.6-.1-2.8 0-2.9.3-.5.2-1.1-.2-1.4-.5-.3-1.1-.2-1.4.2-.1.1-1.6 2.3 0 5 .7 1.8.1 3.1 0 3.1zM17 8.7c-.3.5-.1 1.1.4 1.4.2.1.3.1.5.1.3 0 .7-.2.9-.5.1-.1 1.3-2.3-.2-5-.9-1.6-.1-2.8 0-2.9.3-.5.2-1.1-.2-1.4-.5-.3-1.1-.2-1.4.2-.1.1-1.6 2.3 0 5 .7 1.8 0 3.1 0 3.1zM22.3 8.7c-.3.5-.1 1.1.4 1.4.2.1.3.1.5.1.3 0 .7-.2.9-.5.1-.1 1.3-2.3-.2-5-.9-1.6-.1-2.8 0-2.9.3-.5.2-1.1-.2-1.4-.5-.3-1.1-.2-1.4.2-.1.1-1.6 2.3 0 5 .7 1.8 0 3.1 0 3.1zM24.5 27l-.6-1.9c4.5-2.3 7.5-6.9 7.5-12.3 0-.6-.4-1-1-1H4.8c-.6 0-1 .4-1 1s0 1.1.1 1.7H1c-.5 0-1 .4-1 1s.4 1 1 1h3.3c1 3.8 3.6 7 7.1 8.7L9 33.4c-.2.5.1 1.1.7 1.2h.3c.4 0 .8-.3 1-.7l1.3-4.4h8.4c-.1.4-.2.8-.2 1.2 0 2.1 1.7 3.8 3.8 3.8s3.8-1.7 3.8-3.8c-.1-1.9-1.6-3.5-3.6-3.7zM5.9 13.8h23.6C29 19.9 24 24.6 17.7 24.6S6.3 19.9 5.9 13.8zm7.3 12.1c1.4.4 2.8.7 4.4.7 1.6 0 3-.3 4.4-.7l.5 1.5c-.1.1-.3.1-.4.2h-9.4l.5-1.7zm11 6.8c-1 0-1.8-.8-1.8-1.8s.8-1.8 1.8-1.8 1.8.8 1.8 1.8-.8 1.8-1.8 1.8z"/>
</symbol>

<symbol id="icon-comfort-heating" viewBox="0 0 29.5 29.4">
        <path d="M3.1 10.9h-.2c-1.6 0-2.9 1.3-2.9 2.9v12.8c0 1.6 1.3 2.9 2.9 2.9h.3c1.6 0 2.9-1.3 2.9-2.9V13.7c-.1-1.5-1.4-2.8-3-2.8zM4 26.5c0 .5-.4.9-.9.9h-.2c-.5 0-.9-.4-.9-.9V13.7c0-.5.4-.9.9-.9h.3c.5 0 .9.4.9.9v12.8zM11 10.9h-.3c-1.6 0-2.9 1.3-2.9 2.9v12.8c0 1.6 1.3 2.9 2.9 2.9h.3c1.6 0 2.9-1.3 2.9-2.9V13.7c-.1-1.5-1.3-2.8-2.9-2.8zm.8 15.6c0 .5-.4.9-.9.9h-.3c-.5 0-.9-.4-.9-.9V13.7c0-.5.4-.9.9-.9h.4c.5 0 .9.4.9.9v12.8zM18.8 10.9h-.3c-1.6 0-2.9 1.3-2.9 2.9v12.8c0 1.6 1.3 2.9 2.9 2.9h.3c1.6 0 2.9-1.3 2.9-2.9V13.7c0-1.5-1.3-2.8-2.9-2.8zm.9 15.6c0 .5-.4.9-.9.9h-.3c-.5 0-.9-.4-.9-.9V13.7c0-.5.4-.9.9-.9h.3c.5 0 .9.4.9.9v12.8zM26.6 10.9h-.3c-1.6 0-2.9 1.3-2.9 2.9v12.8c0 1.6 1.3 2.9 2.9 2.9h.3c1.6 0 2.9-1.3 2.9-2.9V13.7c0-1.5-1.3-2.8-2.9-2.8zm.9 15.6c0 .5-.4.9-.9.9h-.3c-.5 0-.9-.4-.9-.9V13.7c0-.5.4-.9.9-.9h.3c.5 0 .9.4.9.9v12.8zM8.1 3.9C7.2 3 8 2 8.2 1.7c.4-.4.3-1-.1-1.4-.4-.4-1-.3-1.4.1-1 1.1-1.8 3.4.1 5.1 1 .9.1 2.1-.1 2.4-.4.4-.3 1 .1 1.4.2.1.4.1.7.1.3 0 .6-.1.8-.4.8-.9 1.8-3.2-.2-5.1zM15.1 3.9c-1-.9-.2-2 .1-2.3.4-.4.3-1-.1-1.4-.4-.4-1-.3-1.4.1-1 1.1-1.8 3.4.1 5.1 1 .9.1 2.1-.1 2.4-.4.4-.3 1 .1 1.4.2.2.4.2.6.2.3 0 .6-.1.8-.4.9-.9 1.9-3.2-.1-5.1zM22.2 1.7c.4-.4.3-1-.1-1.4-.4-.4-1-.3-1.4.1-1 1.1-1.8 3.4.1 5.1 1 .9.1 2.1-.1 2.4-.4.4-.3 1 .1 1.4.2.2.4.2.6.2.3 0 .6-.1.8-.4.8-1 1.9-3.3-.1-5.1-.9-1-.1-2 .1-2.3z"/>
</symbol>

<symbol id="icon-comfort-icerink" viewBox="0 0 31.3 29.1">
        <path d="M2 19.2zM30 23.5c-.6 0-1 .4-1 1 0 .7 0 2.4-3.6 2.4h-3.2v-2.6h2.3c2.7 0 4.9-2.3 4.9-5.1s-2.3-5.1-4.9-5.1h-4.8c-1 0-2.1-.5-2.3-1.8L15.7 1.2c-.1-.5-.5-.9-1-.9H5.9c-.5 0-.9.4-1 .8 0 .1-2.3 13.2-2.8 16.8-.1.4-.1.7-.1.9v.4c0 2.7 2.3 5 4.9 5h.6v2.6H1.4c-.6 0-1 .4-1 1s.4 1 1 1h24c5.1 0 5.6-3.1 5.6-4.4 0-.5-.4-.9-1-.9zM4 19.2v-.9c.5-3.1 2.2-13.1 2.7-16h7.1l.3 2h-3.3c-.6 0-1 .4-1 1s.4 1 1 1h3.6l.2 1.4h-3.8c-.6 0-1 .4-1 1s.4 1 1 1h4.1l.2 1.4h-4.3c-.6 0-1 .4-1 1s.4 1 1 1h4.6c.5 1.8 2.1 3 4.2 3h4.8c1.6 0 2.9 1.5 2.9 3.1 0 1.7-1.4 3.1-2.9 3.1H6.9C5.3 22.2 4 20.9 4 19.2zm5.5 5h10.6v2.6H9.5v-2.6z"/>
</symbol>

<symbol id="icon-comfort-jacuzzi" viewBox="0 0 30 26">
        <path d="M29 9.8V6.1c0-1.6-1.3-3-2.9-3.1h-.2c-1.7 0-3 1.4-3 3 0 .6.4 1 1 1s1-.4 1-1c0-.5.4-1 .9-1h.1c.6 0 1.1.5 1.1 1.1v3.7H1c-.6 0-1 .4-1 1s.4 1 1 1v5.3c0 2.6 2.2 4.7 4.9 4.7-.1.5-.2 1.1-.6 1.5-.4.5-.9.7-1.7.7-.6 0-1 .4-1 1s.4 1 1 1c1.4 0 2.5-.4 3.2-1.3.8-.9 1-2 1.1-2.9h14.2c.1.8.3 2 1.1 2.9.8.9 1.9 1.3 3.2 1.3.6 0 1-.4 1-1s-.4-1-1-1c-.8 0-1.4-.2-1.7-.6-.4-.4-.5-1-.6-1.5 2.7 0 4.9-2.1 4.9-4.7V11.9c.6 0 1-.4 1-1s-.4-1.1-1-1.1zm-2 2.9v4.4c0 1.5-1.3 2.7-2.9 2.7H5.9c-1.6 0-2.9-1.2-2.9-2.7v-5.3h24v.9zM18.3 5c.4.3.5.6.5.8.1.6-.4 1.3-.6 1.6-.4.4-.3 1 .1 1.4.2.2.4.3.7.3.3 0 .5-.1.7-.3.1-.1 1.3-1.5 1.1-3.1-.1-.9-.5-1.6-1.3-2.2-.3-.3-.5-.5-.5-.8 0-.4.4-.8.5-.9.4-.4.5-1 .1-1.4-.4-.4-1-.5-1.4-.1-.1.1-1.3 1.1-1.3 2.5.2.5.4 1.4 1.4 2.2zM13.4 5c.4.3.5.6.5.8.1.6-.4 1.3-.6 1.6-.4.4-.3 1 .1 1.4.2.2.4.3.7.3.3 0 .5-.1.7-.3.1-.1 1.3-1.5 1.1-3.1-.1-.9-.5-1.6-1.3-2.2-.3-.3-.5-.5-.5-.8 0-.4.4-.8.5-.9.4-.4.5-1 .1-1.4-.4-.4-1-.5-1.4-.1-.1.1-1.3 1.1-1.3 2.5.2.5.4 1.4 1.4 2.2zM8.5 5c.5.4.5.7.6.9.1.6-.4 1.3-.6 1.6-.5.3-.4 1 0 1.4.2.1.4.2.7.2.3 0 .5-.1.7-.3.1-.2 1.3-1.5 1.1-3.1 0-.9-.5-1.6-1.2-2.2-.4-.3-.5-.6-.5-.8 0-.4.4-.8.5-.9.4-.4.5-1 .1-1.4C9.6-.1 9-.1 8.5.2c-.1.1-1.2 1.1-1.2 2.5 0 .6.2 1.5 1.2 2.3z"/>
</symbol>

<symbol id="icon-comfort-karaoke" viewBox="0 0 28.7 31.5">
        <path d="M27.1 24.7c-.1-2.2-1.9-4-4.2-4h-5.1c-2.3 0-4.2 1.9-4.2 4.2v3c0 .9-.8 1.7-1.7 1.7H3.7c-.9 0-1.7-.8-1.7-1.7 0-.9.6-1.6 1.5-1.7l.5.5c.4.4.9.6 1.5.6.7 0 1.4-.3 1.9-.7l10.4-10.4c.8.2 1.6.3 2.4.3 2.4 0 4.6-.8 6-2.3 3.2-3.2 3.2-8.5 0-11.8C24.7.9 22.6 0 20.4 0c-2.2 0-4.3.9-5.9 2.4-2.5 2.5-3.2 5.6-2 8.6L2.2 21.3c-.9.9-1.2 2.4-.3 3.3-1.1.7-1.9 1.9-1.9 3.2 0 2 1.7 3.7 3.7 3.7H12c2 0 3.7-1.7 3.7-3.7v-3c0-1.2 1-2.2 2.2-2.2H23c1.1 0 2.1.9 2.2 2v5.8c0 .6.4 1 1 1s1-.4 1-1v-5.7c-.1.1-.1.1-.1 0zM20.4 2c1.7 0 3.2.7 4.4 1.8 2.4 2.4 2.5 6.2.2 8.7L15.6 4c.1-.1.1-.2.2-.2C17.1 2.7 18.7 2 20.4 2zM3.6 22.7L14.4 12c.3-.3.4-.8.2-1.2-1-2-.8-3.7 0-5.1l8.9 8.1c-1.2.6-2.4.7-3.2.7-.8 0-1.7-.1-2.4-.4-.4-.1-.8 0-1 .2L6 25.1c-.1.1-.3.2-.5.2h-.1l-2.1-2.1c.1-.1.1-.3.3-.5z"/>
</symbol>

<symbol id="icon-comfort-lan" viewBox="0 0 29.8 26.8">
        <path d="M7.7 22.2h20.2c1 0 1.8-.8 1.8-1.8v-2.9c0-.6-.3-1-.6-1.4-.2-.3-.5-.4-.8-.4H15.9V13h3.5c.4 0 .8-.3 1-.7l1.4-5c.1-.3 0-.6-.2-.9-.2-.3-.5-.4-.8-.4H20V1c0-.6-.4-1-1-1h-8.4c-.6 0-1 .4-1 1v5.1h-.7c-.3 0-.6.1-.8.4-.2.2-.3.5-.2.8l1.4 5c.1.4.5.7 1 .7h3.6v3.1c0 .9.7 1.6 1.6 1.6h12.2v2.5H1.8C.8 20.2 0 21 0 22v2.9c0 1 .8 1.8 1.8 1.8h26.9c.6 0 1-.4 1-1s-.4-1-1-1H2v-2.5h5.7zM18.1 6.1h-2.2V2h2.2v4.1zM11.7 2h2.2v4.1h-2.2V2zm-1.5 6.1h9.4l-.9 3h-7.6l-.9-3z"/>
</symbol>

<symbol id="icon-comfort-lettle" viewBox="0 0 36 26.4">
        <path d="M35.8 7.2c-.2-.3-.5-.5-.9-.5h-3.6c-.3 0-.5.1-.7.3L27 10.5c-1.7-2.7-4.3-4.6-7.5-5.4.5-.5.6-1.1.6-1.7 0-1.9-1.5-3.4-3.4-3.4s-3.4 1.5-3.4 3.4c0 .7.2 1.3.5 1.8-2.5.6-4.7 2.1-6.3 4-.6-.3-1.3-.5-2.1-.5-3 0-5.4 2.4-5.4 5.4 0 2.9 2.3 5.3 5.1 5.4.6 2.5 2 4.8 4 6.5.2.2.5.2.7.2H23.9c.2 0 .5-.1.6-.2 2.1-1.8 3.5-4.2 4.1-6.8l7.1-11.1c.3-.2.3-.6.1-.9zM16.7 2c.8 0 1.4.6 1.4 1.4 0 .8-.6 1.4-1.4 1.4-.8 0-1.4-.6-1.4-1.4.1-.8.7-1.4 1.4-1.4zm.2 4.8c2.9 0 5.5 1.2 7.3 3.1H9.6C11.4 8 14 6.8 16.9 6.8zM2 14.2c0-1.9 1.5-3.4 3.4-3.4.3 0 .7.1 1 .1-1 1.8-1.6 3.8-1.6 6v.7C3.2 17.3 2 15.9 2 14.2zm21.6 10.2H10.1c-2.1-1.9-3.4-4.6-3.4-7.5 0-1.8.5-3.5 1.3-4.9h17.6c.8 1.5 1.3 3.1 1.3 4.9.1 2.8-1.1 5.6-3.3 7.5zm5.3-9.1c-.1-1.1-.4-2.1-.8-3l3.7-3.6h1.3l-4.2 6.6z"/>
</symbol>

<symbol id="icon-comfort-microwave" viewBox="0 0 32 25">
        <path d="M29.1 0H2.9C1.3 0 0 1.3 0 2.9v15.3C0 19.7 1.3 21 2.9 21H4v3c0 .6.4 1 1 1s1-.4 1-1v-3h20v3c0 .6.4 1 1 1s1-.4 1-1v-3h1.1c1.6 0 2.9-1.3 2.9-2.9V2.9C32 1.3 30.7 0 29.1 0zM2.9 19c-.5 0-.9-.4-.9-.9V2.9c0-.5.4-.9.9-.9H23v17H2.9zm27.1-.9c0 .5-.4.9-.9.9H25V2h4.1c.5 0 .9.4.9.9v15.2zM12.6 4.5c-5.3 0-9.4 2.7-9.4 6.2s4.1 6.2 9.4 6.2c5.3 0 9.4-2.7 9.4-6.2s-4.2-6.2-9.4-6.2zm0 10.3c-4 0-7.4-1.9-7.4-4.2s3.4-4.2 7.4-4.2S20 8.3 20 10.6s-3.4 4.2-7.4 4.2z"/><circle cx="27.4" cy="6.6" r="1.1"/><circle cx="27.4" cy="10.6" r="1.1"/><circle cx="27.4" cy="14.6" r="1.1"/>
</symbol>

<symbol id="icon-comfort-noicon" viewBox="0 0 32 32">
        <path d="M25.6 6.1c-.4-.2-.8-.1-1.1.2L13.3 16.6l-5.8-5.5c-.3-.3-.7-.3-1.1-.2-.4.2-.6.5-.6.9v7.3c0 .3.1.5.3.7l6.5 6.1c.2.2.4.3.7.3.2 0 .5-.1.6-.2l11.9-10c.2-.2.4-.5.4-.8V7.1c0-.4-.3-.8-.6-1zm-1.4 8.7L13.4 24l-5.5-5.2v-4.6l4.8 4.5c.4.4 1 .4 1.4 0l10.1-9.4v5.5zM29 0H3C1.3 0 0 1.3 0 3v26c0 1.7 1.3 3 3 3h26c1.7 0 3-1.3 3-3V3c0-1.7-1.3-3-3-3zm1 29c0 .6-.4 1-1 1H3c-.6 0-1-.4-1-1V3c0-.6.4-1 1-1h26c.6 0 1 .4 1 1v26z"/>
</symbol>

<symbol id="icon-comfort-parking" viewBox="0 0 32.1 32.1">
        <path d="M29.1.1h-26c-1.7 0-3 1.3-3 3v26c0 1.7 1.3 3 3 3h26c1.7 0 3-1.3 3-3v-26c0-1.7-1.4-3-3-3zm1 29c0 .6-.4 1-1 1h-26c-.6 0-1-.4-1-1v-26c0-.6.4-1 1-1h26c.6 0 1 .4 1 1v26zm-14-23h-7c-.6 0-1 .4-1 1v18c0 .6.4 1 1 1s1-.4 1-1v-3h5.7c4.2 0 7.9-3.2 8.3-7.2.2-2.3-.5-4.5-2-6.2-1.6-1.7-3.8-2.6-6-2.6zm5.9 8.6c-.3 3-3 5.4-6.3 5.4H10v-12h6c1.7 0 3.3.7 4.4 2 1.3 1.2 1.8 2.9 1.6 4.6z"/>
</symbol>

<symbol id="icon-comfort-phone" viewBox="0 0 29.7 29.7">
        <path d="M29.5 21.9l-.1-.4c-.5-1.5-2-3-3.6-3.4l-3.4-.9c-.4-.1-.8-.2-1.2-.2-1.4 0-2.8.5-3.6 1.4l-.4.4c-2.9-1.1-5.2-3.4-6.3-6.3l.4-.4c1.2-1.2 1.7-3.2 1.3-4.8l-.9-3.4C11.3 2.3 9.9.8 8.3.3L7.9.2C7.4.1 6.9 0 6.5 0 5.1 0 3.8.5 2.9 1.4L1.1 3.2C.3 4 0 5.6 0 5.9c-.1 6.3 2.5 12.5 6.9 16.9 4.4 4.4 10.5 6.9 16.7 6.9h.2c.3 0 1.9-.3 2.7-1.1l1.8-1.8c1.2-1.2 1.7-3.3 1.2-4.9zm-2.6 3.4l-1.8 1.8c-.3.3-1.3.5-1.3.5h-.2c-5.7 0-11.2-2.3-15.3-6.3-4.1-4-6.4-9.6-6.3-15.4 0 0 .2-.9.5-1.3l1.8-1.8c.6-.5 1.4-.8 2.2-.8.2 0 .5 0 .7.1l.4.1c.9.3 1.8 1.3 2.1 2.2l.9 3.4c.2.9-.1 2.2-.8 2.9l-1.2 1.2c1.2 4.4 4.7 7.9 9.1 9.1l1.2-1.2c.5-.5 1.4-.8 2.2-.8.2 0 .5 0 .7.1l3.4.9c.9.3 1.9 1.2 2.2 2.1l.1.4c.4.9.1 2.2-.6 2.8z"/>
</symbol>

<symbol id="icon-comfort-playground" viewBox="0 0 31.9 21.5">
        <path d="M31.6 1s-.1 0 0 0c-.2-.4-.5-.7-1-.7H1.3c-.6 0-1 .4-1 1v18.9c0 .6.4 1 1 1h29.3c.6 0 1-.4 1-1V1zM2.3 2.9C5 4.5 6.7 7.5 6.7 10.8c0 3.3-1.7 6.3-4.4 7.9V2.9zm6.3 7.8c0-3.3-1.4-6.4-3.8-8.4h10.1v3.8c-2.1.5-3.7 2.3-3.7 4.6s1.6 4.1 3.7 4.6v3.9h-10c2.3-2.1 3.7-5.1 3.7-8.5zm6.3 2.5c-1-.4-1.7-1.4-1.7-2.5s.7-2.1 1.7-2.5v5zm2-5c1 .4 1.7 1.4 1.7 2.5s-.7 2.1-1.7 2.5v-5zm0 7.1c2.1-.5 3.7-2.3 3.7-4.6S19 6.6 16.9 6.1V2.3h10.3c-2.3 2.1-3.8 5.1-3.8 8.4 0 3.3 1.4 6.4 3.8 8.4H16.9v-3.8zm8.5-4.6c0-3.2 1.6-6.1 4.2-7.7v15.5c-2.5-1.6-4.2-4.5-4.2-7.8z"/>
</symbol>

<symbol id="icon-comfort-plumbing" viewBox="0 0 27.6 30.2">
        <path d="M26.6 6H10.1C8.9 6 8 7 8 8.2v1.7H4V8.2C4 4.8 6.7 2 10.1 2h16.4c.6 0 1-.4 1-1s-.4-1-1-1H10.1C5.6 0 2 3.7 2 8.2v1.7H1c-.6 0-1 .4-1 1s.4 1 1 1h9.7c.6 0 1-.4 1-1s-.4-1-1-1H10V8.2c0-.1 0-.2.1-.2h16.4c.6 0 1-.4 1-1s-.4-1-.9-1zM2.9 15.2c.2-.5 0-1.1-.5-1.3-.5-.2-1.1 0-1.3.5-.1.2-1.9 4.4 0 8 1.5 2.7 0 6.3 0 6.4-.2.5 0 1.1.5 1.3.1.1.3.1.4.1.4 0 .8-.2.9-.6.1-.2 1.9-4.5 0-8.1-1.5-2.7 0-6.2 0-6.3zM6.8 15.2c.2-.5 0-1.1-.5-1.3-.5-.2-1.1 0-1.3.5-.1.2-1.9 4.4 0 8 1.5 2.7 0 6.3 0 6.4-.2.5 0 1.1.5 1.3.1.1.3.1.4.1.4 0 .8-.2.9-.6.1-.2 1.9-4.5 0-8.1-1.5-2.7 0-6.2 0-6.3zM10.6 15.2c.2-.5 0-1.1-.5-1.3-.5-.2-1.1 0-1.3.5-.1.2-1.9 4.4 0 8 1.5 2.7 0 6.3 0 6.4-.2.5 0 1.1.5 1.3.1.1.3.1.4.1.4 0 .8-.2.9-.6.1-.2 1.9-4.5 0-8.1-1.5-2.7 0-6.2 0-6.3z"/>
</symbol>

<symbol id="icon-comfort-pool" viewBox="0 3.2 50 43.6">
        <path d="M1.6 34.6c1.9 0 2.8.5 3.9 1.2 1.3.8 2.7 1.6 5.5 1.6s4.2-.9 5.5-1.6c1.1-.6 2-1.2 3.9-1.2s2.8.5 3.9 1.2c1.2.8 2.7 1.6 5.5 1.6s4.2-.9 5.5-1.6c1.1-.6 2-1.2 3.9-1.2s2.8.5 3.9 1.2c1.2.8 2.7 1.6 5.5 1.6.9 0 1.6-.6 1.6-1.6s-.6-1.6-1.6-1.6c-1.9 0-2.8-.5-3.9-1.2-1.2-.8-2.7-1.6-5.5-1.6s-4.2.9-5.5 1.6c-1.1.6-2 1.2-3.9 1.2s-2.8-.5-3.9-1.2c-1.2-.8-2.7-1.6-5.5-1.6s-4.2.9-5.5 1.6c-1.1.6-2 1.2-3.9 1.2s-2.9-.4-4-1.2c-1.2-.8-2.7-1.6-5.5-1.6-.9.1-1.5.7-1.5 1.6s.6 1.6 1.6 1.6zm46.8 9.1c-1.9 0-2.8-.5-3.9-1.2-1.2-.8-2.7-1.6-5.5-1.6s-4.2.9-5.5 1.6c-1.1.6-2 1.2-3.9 1.2s-2.8-.5-3.9-1.2c-1.2-.8-2.7-1.6-5.5-1.6s-4.2.9-5.5 1.6c-1.1.6-2 1.2-3.9 1.2s-2.7-.5-3.8-1.3c-1.2-.8-2.7-1.6-5.5-1.6-.9 0-1.6.6-1.6 1.6S.6 44 1.6 44c1.9 0 2.8.5 3.9 1.2 1.3.8 2.7 1.6 5.5 1.6s4.2-.9 5.5-1.6c1.1-.6 2-1.2 3.9-1.2s2.8.5 3.9 1.2c1.2.8 2.7 1.6 5.5 1.6s4.2-.9 5.5-1.6c1.1-.6 2-1.2 3.9-1.2s2.8.5 3.9 1.2c1.2.8 2.7 1.6 5.5 1.6.9 0 1.6-.6 1.6-1.6s-.8-1.5-1.8-1.5zM10.9 31.3c.9 0 1.6-.6 1.6-1.6V25H28v4.7c0 .9.6 1.6 1.6 1.6.9 0 1.6-.6 1.6-1.6V11c0-2.7 2-4.7 4.7-4.7.9 0 1.6-.6 1.6-1.6s-.6-1.6-1.6-1.6C31.6 3.2 28 6.6 28 11v1.6H12.5V11c0-2.7 2-4.7 4.7-4.7.9 0 1.6-.6 1.6-1.6s-.6-1.6-1.6-1.6c-4.4 0-7.8 3.4-7.8 7.8v18.8c0 1 .6 1.6 1.5 1.6zm1.6-15.6H28V22H12.5v-6.3z"/>
</symbol>

<symbol id="icon-comfort-requestclean" viewBox="0 0 35.7 33.8">
        <path d="M34.4 31.5h-2.8V5.3c0-2.5-2-4.5-4.5-4.5s-4.5 2-4.5 4.5v12.3c-2.2-1.4-5-2.2-8-2.2-6.3 0-11.4 3.5-12.2 7.9-1.2 1.1-2 2.6-2 4.4 0 3.2 2.6 5.8 5.8 5.8 1.1 0 2.2-.3 3.1-.9 1.6.6 3.4.9 5.4.9 6.8 0 12.3-4 12.3-9 0-1.9-.8-3.7-2.2-5.2v-14c0-1.4 1.1-2.5 2.5-2.5s2.5 1.1 2.5 2.5v26.1h-3.2c-.6 0-1 .4-1 1s.4 1 1 1h8c.6 0 1-.4 1-1-.2-.5-.7-.9-1.2-.9zm-28.3 0c-2.1 0-3.8-1.7-3.8-3.8 0-.4.1-.9.2-1.3.6 2 2.1 3.7 4.2 5-.1 0-.3.1-.6.1zm18.8-7c0 3.9-4.6 7-10.3 7s-10.3-3.1-10.3-7 4.6-7 10.3-7c3.4 0 6.4 1.1 8.3 2.9l.1.1c1.2 1.1 1.9 2.5 1.9 4zM19.4 20.5h-4c-.6 0-1 .4-1 1s.4 1 1 1h4c.6 0 1-.4 1-1s-.5-1-1-1zM19.4 23.5h-4c-.6 0-1 .4-1 1s.4 1 1 1h4c.6 0 1-.4 1-1s-.5-1-1-1zM19.4 26.5h-4c-.6 0-1 .4-1 1s.4 1 1 1h4c.6 0 1-.4 1-1s-.5-1-1-1zM9.4 13.8c3.7 0 6.8-3 6.8-6.8 0-3.7-3-6.8-6.8-6.8S2.6 3.3 2.6 7c0 3.8 3.1 6.8 6.8 6.8zm0-11.5c2.6 0 4.8 2.1 4.8 4.8 0 2.6-2.1 4.8-4.8 4.8S4.6 9.7 4.6 7c0-2.6 2.2-4.7 4.8-4.7zM9.4 8.5h2c.6 0 1-.4 1-1s-.4-1-1-1h-1v-2c0-.6-.4-1-1-1s-1 .4-1 1v3c0 .5.4 1 1 1z"/>
</symbol>

<symbol id="icon-comfort-shower" viewBox="0 0 30 31.1">
        <path d="M29 14.9V4.3C29 2 27.2.1 24.9 0h-.2c-2 0-3.7 1.4-4.2 3.3-2.2.4-3.9 2.3-3.9 4.6 0 .6.4 1 1 1h7.3c.6 0 1-.4 1-1v-.2c-.1-2-1.5-3.7-3.4-4.2.3-.8 1.1-1.4 2-1.4h.2C26 2 27 3 27 4.3v10.6H1c-.6 0-1 .4-1 1s.4 1 1 1v5.3c0 2.6 2.2 4.7 4.9 4.7 0 .1 0 .3-.1.4L4.5 29c-.3.1-.6.1-.9.1-.6 0-1 .4-1 1s.4 1 1 1c1.4 0 2.5-.4 3.2-1.3.8-.9 1-2 1.1-2.9h14.2c.1.8.3 2 1.1 2.9.8.9 1.9 1.3 3.2 1.3.6 0 1-.4 1-1s-.4-1-1-1c-.4 0-.7 0-.9-.1l-1.3-1.7c0-.1 0-.3-.1-.4 2.7 0 4.9-2.1 4.9-4.7v-5.3c.6 0 1-.4 1-1s-.4-1-1-1zm-5.3-8h-4.9c.4-1 1.4-1.7 2.5-1.7h.1c1.1.1 1.9.8 2.3 1.7zM27 22.2c0 1.5-1.3 2.7-2.9 2.7H5.9c-1.6 0-2.9-1.2-2.9-2.7v-5.3h24v5.3zM22 12.9v-2c0-.6-.4-1-1-1s-1 .4-1 1v2c0 .6.4 1 1 1s1-.4 1-1zM17.7 13.9c.4 0 .8-.3 1-.7l.5-1.9c.1-.5-.2-1.1-.7-1.2-.5-.1-1.1.2-1.2.7l-.5 1.9c-.1.5.2 1.1.7 1.2h.2zM24.3 13.9h.3c.5-.1.8-.7.7-1.2l-.5-1.9c-.1-.5-.7-.9-1.2-.7-.5.1-.8.7-.7 1.2l.5 1.9c0 .4.4.7.9.7z"/>
</symbol>

<symbol id="icon-comfort-sport" viewBox="0 0 32.8 32.8">
        <path d="M24.5 8.3l-6-6c-.4-.4-1-.4-1.4 0s-.4 1 0 1.4L22.3 9 9 22.3 3.7 17c-.4-.4-1-.4-1.4 0s-.4 1 0 1.4l12 12c.2.2.5.3.7.3s.5-.1.7-.3c.4-.4.4-1 0-1.4l-5.3-5.3 13.3-13.3 5.3 5.3c.2.2.5.3.7.3s.5-.1.7-.3c.4-.4.4-1 0-1.4l-5.9-6zM22.3 1.3c-.4-.4-1-.4-1.4 0s-.4 1 0 1.4l9.2 9.2c.2.2.5.3.7.3s.5-.1.7-.3c.4-.4.4-1 0-1.4l-9.2-9.2zM32.5 6.7L26 .3c-.4-.4-1-.4-1.4 0s-.4 1 0 1.4L31 8.1c.2.2.5.3.7.3s.5-.1.7-.3c.5-.3.5-1 .1-1.4zM2.7 20.8c-.4-.4-1-.4-1.4 0s-.4 1 0 1.4l9.2 9.2c.2.2.5.3.7.3s.5-.1.7-.3c.4-.4.4-1 0-1.4l-9.2-9.2zM1.7 24.6c-.4-.4-1-.4-1.4 0s-.4 1 0 1.4l6.4 6.4c.2.2.5.3.7.3s.5-.1.7-.3c.4-.4.4-1 0-1.4l-6.4-6.4z"/>
</symbol>

<symbol id="icon-comfort-storage" viewBox="0 0 30.1 27.5">
        <path d="M29.1 0H1C.4 0 0 .4 0 1v22.2c0 .6.4 1 1 1h3.8L3.6 26c-.3.5-.2 1.1.2 1.4.2.1.4.2.6.2.3 0 .6-.1.8-.4l2-2.9h15.6l2 2.9c.2.3.5.4.8.4.2 0 .4-.1.6-.2.5-.3.6-.9.2-1.4l-1.2-1.7H29c.6 0 1-.4 1-1V1c.1-.6-.3-1-.9-1zm-1 22.2H2V2h26.1v20.2zM5.1 20.5H25c.6 0 1-.4 1-1V4.8c0-.6-.4-1-1-1H5.1c-.6 0-1 .4-1 1v14.7c0 .5.5 1 1 1zm1-14.7H24v12.7H6.1V5.8zM21.1 8.6c-.6 0-1 .4-1 1v4c0 .6.4 1 1 1s1-.4 1-1v-4c0-.5-.5-1-1-1z"/>
</symbol>

<symbol id="icon-comfort-taxi" viewBox="0 0 32.3 30.6">
        <path d="M29.4 13.3v-1.8c0-3.2-2-6-5.4-7.4-.3-2.3-2.3-4.1-4.8-4.1h-6.1c-2.5 0-4.5 1.8-4.8 4.2-3.4 1.4-5.4 4.1-5.4 7.4v1.8C1 15.2 0 17.5 0 20v4.4c0 1.1.9 2 2 2h1v1.2c0 1.6 1.3 2.9 2.9 2.9s2.9-1.3 2.9-2.9v-1.2h14.5v1.2c0 1.6 1.3 2.9 2.9 2.9s2.9-1.3 2.9-2.9v-1.2h1c1.1 0 2-.9 2-2V20c.2-2.5-.8-4.8-2.7-6.7zM6.9 27.7c0 .5-.4.9-.9.9s-1-.4-1-.9v-1.2h1.9v1.2zm20.4 0c0 .5-.4.9-.9.9s-.9-.4-.9-.9v-1.2h1.9v1.2zm3-3.3H2V20c0-2.4 1.1-4.3 2.9-5.8v-2.7c0-2.9 2.2-5.1 5.4-5.9v-.8c0-1.6 1.3-2.8 2.8-2.8h6.1C20.8 2 22 3.3 22 4.8v.8c3.2.9 5.4 3 5.4 5.9v2.7c1.8 1.4 2.9 3.4 2.9 5.8v4.4zM24.8 11.5c0-2.4-3-3.7-6-3.7h-5.3c-3 0-6 1.3-6 3.7v2.7h17.3v-2.7zm-2 .6H9.5v-.7c0-.9 1.9-1.7 4-1.7h5.3c2.1 0 4 .8 4 1.7v.7zM11.2 20.6h2v2h-2zM13.2 18.6h2v2h-2zM15.2 20.6h2v2h-2zM17.2 18.6h2v2h-2zM19.2 20.6h2v2h-2zM6 17.8c-1.6 0-2.9 1.3-2.9 2.9 0 1.6 1.3 2.9 2.9 2.9 1.6 0 2.9-1.3 2.9-2.9 0-1.6-1.3-2.9-2.9-2.9zm0 3.8c-.5 0-.9-.4-.9-.9s.4-.9.9-.9.9.4.9.9-.4.9-.9.9zM23.4 20.7c0 1.6 1.3 2.9 2.9 2.9 1.6 0 2.9-1.3 2.9-2.9 0-1.6-1.3-2.9-2.9-2.9-1.6 0-2.9 1.3-2.9 2.9zm3.9 0c0 .5-.4.9-.9.9s-.9-.4-.9-.9.4-.9.9-.9.9.4.9.9zM12.7 5.1h7c.6 0 1-.4 1-1s-.4-1-1-1h-7c-.6 0-1 .4-1 1s.4 1 1 1z"/>
</symbol>

<symbol id="icon-comfort-toilet" viewBox="0 0 28.6 33.1">
        <path d="M25.2 0c-1.9 0-3.4 1.5-3.4 3.4v10.8H1c-.6 0-1 .4-1 1 0 5.7 3.7 9.5 9.9 10v6.9c0 .6.4 1 1 1h11.4c.4 0 .7-.2.9-.5.2-.3.1-.7-.1-1-1.4-1.8-1.9-3.6-1.5-5.3.4-1.8 1.7-3.2 2.6-4h1c1.9 0 3.4-1.5 3.4-3.4V3.4c0-1.9-1.5-3.4-3.4-3.4zm-4.7 31.1h-8.6v-5.9c2.7-.1 5.3-1.2 7.3-3.1h2.3c-.8 1-1.5 2.2-1.8 3.6-.4 1.8-.1 3.6.8 5.4zm6.1-12.3c0 .8-.6 1.4-1.4 1.4h-6.4c-.3 0-.5.1-.7.3-1.8 1.8-4.1 2.8-6.7 2.8-5.4 0-8.8-2.6-9.3-7h20.7c.6 0 1-.4 1-1V3.4c0-.8.6-1.4 1.4-1.4s1.4.6 1.4 1.4v15.4z"/>
</symbol>

<symbol id="icon-comfort-transfer" viewBox="0 0 32.3 28.6">
        <path d="M29.4 11.3V8.2c0-4-3.7-7.9-7.4-7.9H10.3C6.5.3 2.9 4.1 2.9 8.2v3.1C1 13.1 0 15.5 0 18v4.4c0 1.1.9 2 2 2h1v1.2c0 1.6 1.3 2.9 2.9 2.9s2.9-1.3 2.9-2.9v-1.2h14.5v1.2c0 1.6 1.3 2.9 2.9 2.9s2.9-1.3 2.9-2.9v-1.2h1c1.1 0 2-.9 2-2V18c.2-2.5-.8-4.9-2.7-6.7zM6.9 25.6c0 .5-.4.9-.9.9s-1-.4-1-.9v-1.2h1.9v1.2zm20.4 0c0 .5-.4.9-.9.9s-.9-.4-.9-.9v-1.2h1.9v1.2zm3-3.2H2V18c0-2.4 1.1-4.3 2.9-5.8v-4c0-2.9 2.6-5.9 5.4-5.9h11.8s5.4 3 5.4 5.9v4c1.8 1.4 2.9 3.4 2.9 5.8v4.4zM24.8 8.3c0-3.3-3-4.1-6-4.1h-5.3c-3 0-6 1-6 4.1v3.8h17.3V8.3zm-2 1.8H9.5V8.3c0-1.8 2.2-2.1 4-2.1h5.3c4 0 4 1.5 4 2.1v1.8zM6 15.7c-1.6 0-2.9 1.3-2.9 2.9 0 1.6 1.3 2.9 2.9 2.9 1.6 0 2.9-1.3 2.9-2.9 0-1.6-1.3-2.9-2.9-2.9zm0 3.9c-.5 0-.9-.4-.9-.9s.4-.9.9-.9.9.4.9.9c0 .4-.4.9-.9.9zM23.4 18.6c0 1.6 1.3 2.9 2.9 2.9 1.6 0 2.9-1.3 2.9-2.9 0-1.6-1.3-2.9-2.9-2.9-1.6 0-2.9 1.3-2.9 2.9zm3.9 0c0 .5-.4.9-.9.9s-.9-.4-.9-.9.4-.9.9-.9.9.4.9.9zM21.2 16.1h-10c-.6 0-1 .4-1 1s.4 1 1 1h10c.6 0 1-.4 1-1s-.5-1-1-1zM21.2 19.1h-10c-.6 0-1 .4-1 1s.4 1 1 1h10c.6 0 1-.4 1-1s-.5-1-1-1z"/>
</symbol>

<symbol id="icon-comfort-tv" viewBox="0 0 31.8 29">
        <path d="M29 0H3C1.3 0 0 1.3 0 3v20c0 1.7 1.3 3 3 3h1v2c0 .6.4 1 1 1s1-.4 1-1v-2h20v2c0 .6.4 1 1 1s1-.4 1-1v-2h1c1.7 0 3-1.3 3-3V3c0-1.7-1.3-3-3-3zm1 23c0 .6-.4 1-1 1H3c-.6 0-1-.4-1-1V3c0-.6.4-1 1-1h26c.6 0 1 .4 1 1v20zM21 4H7C5.3 4 4 5.3 4 7v12c0 1.7 1.3 3 3 3h14c1.7 0 3-1.3 3-3V7c0-1.7-1.3-3-3-3zm1 15c0 .6-.4 1-1 1H7c-.6 0-1-.4-1-1V7c0-.6.4-1 1-1h14c.6 0 1 .4 1 1v12zm5-11c-.6 0-1 .4-1 1s.4 1 1 1 1-.4 1-1-.4-1-1-1zm0 4c-.6 0-1 .4-1 1s.4 1 1 1 1-.4 1-1-.4-1-1-1zm0 4c-.6 0-1 .4-1 1s.4 1 1 1 1-.4 1-1-.4-1-1-1z"/>
</symbol>

<symbol id="icon-comfort-tvplus" viewBox="0 0 27.1 31.2">
        <path d="M24.1 6.4C21.4 2.4 17.4 0 13.7 0c-1.5 0-2.9.4-4.1 1.2-.1.1-.2.2-.3.2-4.1 2.4-6.4 6.4-6.3 11 .1 3.5 1.5 6.8 3.9 9.2V26c-2.4.1-6.9.5-6.9 2.6 0 2.4 6 2.6 7.9 2.6s7.9-.2 7.9-2.6c0-2.1-4.5-2.5-6.9-2.6v-2.9c.3.2.6.4.9.5 1.6.8 3.4 1.2 5.2 1.2 2.9 0 5.9-1 9-3.1 2-1.4 3.1-3.8 3.1-6.8 0-2.8-1.1-5.8-3-8.5zM7.9 29.2c-2.5 0-4.3-.3-5.3-.6 1-.3 2.7-.6 5.3-.6s4.3.3 5.3.6c-1 .3-2.8.6-5.3.6zm2.8-7.3c-3.4-1.7-5.6-5.5-5.7-9.5 0-2.1.5-4 1.5-5.6-.4 3.1.6 6.7 2.8 9.9 2.1 3 5 5.2 7.9 6-2.3.5-4.5.2-6.5-.8zm12.1-1.7c-.8.6-1.8.9-2.9.9-2.7 0-5.7-1.7-8-4.4l3.3-2.6c.7.5 1.4.9 2.2.9.5 0 1-.1 1.4-.4 1.4-.9 1.5-3 .3-4.8-.8-1.2-2-1.9-3.2-1.9-.5 0-1 .1-1.4.4-.7.5-1.1 1.3-1.1 2.3 0 .7.2 1.4.5 2L10.7 15c-3-4.7-3-10 0-12.2.9-.5 1.8-.8 3-.8 3 0 6.5 2.2 8.8 5.5 1.6 2.4 2.6 5 2.6 7.5 0 2.3-.8 4.2-2.3 5.2zm-7.4-9.7c0-.1 0-.5.2-.6.1 0 .2-.1.3-.1.4 0 1 .3 1.5 1 .6.9.6 1.8.2 2-.3.2-1.2 0-1.8-1-.3-.4-.4-.9-.4-1.3z"/>
</symbol>

<symbol id="icon-comfort-washer" viewBox="0 0 26 32">
        <path d="M13 28c5 0 9-4 9-9s-4-9-9-9-9 4-9 9 4 9 9 9zm0-16c3.7 0 6.7 2.9 7 6.6-1.8 1.5-4.6 1.5-6.3-.3-2-2-4.9-2.5-7.4-1.4.9-2.8 3.6-4.9 6.7-4.9zm-.7 7.7c1.3 1.3 3 1.9 4.7 1.9.9 0 1.8-.2 2.7-.6-.9 2.9-3.6 5-6.7 5-3.7 0-6.7-2.9-7-6.6 1.9-1.5 4.6-1.4 6.3.3zM23 0H3C1.3 0 0 1.3 0 3v26c0 1.7 1.3 3 3 3h20c1.7 0 3-1.3 3-3V3c0-1.7-1.3-3-3-3zm1 29c0 .6-.4 1-1 1H3c-.6 0-1-.4-1-1V8h22v21zm0-23H2V3c0-.6.4-1 1-1h20c.6 0 1 .4 1 1v3z"/>
</symbol>

<symbol id="icon-comfort-waterheater" viewBox="0 0 26 32.4">
        <path d="M9.7 13.5c.3-.5.2-1.1-.2-1.4-.5-.3-1.1-.2-1.5.2-.7 1-1.6 3.4.1 5.4 1.1 1.3 0 3-.1 3-.3.5-.2 1.1.3 1.4.2.1.4.2.6.2.3 0 .6-.2.8-.4.7-1 1.6-3.5-.1-5.5-1.1-1.2 0-2.9.1-2.9zM13.8 21.9c.7-1 1.6-3.5-.1-5.5-1.1-1.2 0-2.9.1-2.9.3-.5.2-1.1-.2-1.4s-1.1-.2-1.4.2c-.7 1-1.6 3.4.1 5.4 1.1 1.2 0 2.9-.1 3-.3.5-.2 1.1.3 1.4.2.1.4.2.6.2.2 0 .5-.2.7-.4zM16.3 20.7c-.3.5-.2 1.1.3 1.4.2.1.4.2.6.2.3 0 .6-.2.8-.4.7-1 1.6-3.5-.1-5.5-1.1-1.2 0-2.9.1-2.9.3-.5.2-1.1-.2-1.4-.5-.3-1.1-.2-1.4.2-.7 1-1.6 3.4.1 5.4 1 1.3-.1 3-.2 3zM26 21.9V1c0-.6-.4-1-1-1H1.1C.4 0 0 .4 0 1v20.9c0 3.2 6 5.4 11.9 5.7v1.5c.1 1.8 1.7 3.3 3.5 3.3H25c.6 0 1-.4 1-1s-.4-1-1-1h-9.6c-.8 0-1.4-.6-1.5-1.4V27.6c6-.2 12.1-2.5 12.1-5.7zM23.4 2C22 3.6 18.1 5.9 13 5.9S4 3.6 2.6 2h20.8zM2 21.9V4.1c2.3 2 6.3 3.8 11 3.8s8.7-1.8 11-3.8v17.8c0 1.3-4.5 3.7-11 3.7S2 23.2 2 21.9z"/>
</symbol>

<symbol id="icon-comfort-wifi" viewBox="0 0 30.3 24.2">
        <path d="M13.2 19.1c-.6.6-.9 1.3-.9 2.1s.3 1.6.9 2.1c.6.6 1.3.9 2.1.9s1.6-.3 2.1-.9c.6-.6.9-1.3.9-2.1s-.3-1.6-.9-2.1c-1.1-1.2-3-1.2-4.2 0zm2.8 2.8c-.4.4-1 .4-1.4 0-.2-.2-.3-.4-.3-.7s.1-.5.3-.7c.2-.2.4-.3.7-.3s.5.1.7.3c.2.2.3.4.3.7s-.1.5-.3.7zM15.3 12c-2.5 0-4.8 1-6.5 2.7-.2.2-.4.5-.4.8 0 .3.1.6.4.8.5.5 1.2.5 1.7 0 1.3-1.3 3-2 4.8-2s3.5.7 4.8 2c.2.2.5.4.8.4s.6-.1.8-.4c.2-.2.4-.5.4-.8 0-.3-.1-.6-.4-.8-1.6-1.7-3.9-2.7-6.4-2.7zM15.3 6c-4.1 0-7.9 1.6-10.7 4.5-.5.5-.5 1.2 0 1.7.2.2.5.4.8.4s.6-.1.8-.4c2.4-2.4 5.6-3.7 9.1-3.7s6.6 1.3 9.1 3.7c.5.5 1.2.5 1.7 0s.5-1.2 0-1.7C23.2 7.6 19.4 6 15.3 6zM30.3 6.2c-4-4-9.3-6.2-15-6.2S4.3 2.2.3 6.2c-.5.5-.5 1.2 0 1.7s1.2.5 1.7 0c3.6-3.6 8.3-5.5 13.3-5.5s9.7 2 13.3 5.5c.2.2.5.4.8.4s.6-.1.8-.4c.6-.5.6-1.2.1-1.7z"/>
</symbol>

<symbol id="icon-eye" viewBox="0 0 32 32">
        <path d="M16 6C9.02 6 2.972 10.064 0 16c2.972 5.936 9.02 10 16 10s13.027-4.064 16-10c-2.972-5.936-9.02-10-16-10zm7.89 5.303c1.88 1.2 3.472 2.805 4.67 4.697-1.198 1.89-2.79 3.498-4.67 4.697C21.526 22.204 18.8 23 16 23s-5.527-.796-7.89-2.303C6.23 19.497 4.64 17.892 3.44 16c1.198-1.89 2.79-3.498 4.67-4.697.123-.078.247-.154.372-.228C8.172 11.93 8 12.85 8 13.812c0 4.418 3.582 8 8 8s8-3.582 8-8c0-.962-.17-1.883-.482-2.737.124.074.248.15.37.228zM16 12.813c0 1.657-1.343 3-3 3s-3-1.343-3-3 1.343-3 3-3 3 1.343 3 3z"/>
</symbol>

<symbol id="icon-eye-blocked" viewBox="0 0 32 32">
        <path d="M26.23 9.263c2.425 1.72 4.417 4.034 5.77 6.737-2.973 5.936-9.02 10-16 10-1.955 0-3.837-.32-5.6-.91l2.437-2.435C13.87 22.883 14.93 23 16 23c2.8 0 5.527-.796 7.89-2.303 1.88-1.2 3.472-2.805 4.67-4.697-1.16-1.83-2.69-3.392-4.49-4.578l2.16-2.16zM16 21.813c-.71 0-1.4-.093-2.054-.267l9.787-9.787c.174.654.267 1.343.267 2.053 0 4.418-3.582 8-8 8zM30 0h-1.68L21.46 6.863C19.738 6.303 17.903 6 16 6 9.02 6 2.972 10.064 0 16c1.333 2.662 3.285 4.947 5.662 6.658L0 28.32V30h1.68L30 1.677v-1.68zM13 9.813c1.5 0 2.745 1.103 2.965 2.543l-3.423 3.423C11.102 15.56 10 14.314 10 12.813c0-1.657 1.342-3 3-3zM3.44 16c1.198-1.89 2.79-3.498 4.67-4.697.123-.078.247-.154.372-.228C8.172 11.93 8 12.85 8 13.812c0 1.83.614 3.514 1.647 4.86l-1.83 1.83C6.065 19.328 4.575 17.793 3.44 16z"/>
</symbol>
</svg>